<svg width="0" height="0" fill="none" style="visibility: hidden; position: absolute;" aria-hidden="true">
    <symbol id="actions" xmlns="http://www.w3.org/2000/svg" fill="currentColor" viewBox="0 0 24 24">
        <path d="M16.164 15.589c-.831.177-.914-.176-.277-.606 1.098-.718-1.53-.536-.213-1.113 1.129-.282-.973-.63-1.207-.994-5.755-2.62-6-7.737-.59-9.3C19 1.89 26.014 4.713 22.645 9.878c-1.367 1.768-3.412 2.936-5.478 3.863 1.167.224.644.533-.005.903.5.412 1.265 1.15.053.96-1.191.965.822 2.436.824 3.617-.114 1.21-1.317 2.334-.674 3.591-.207.812-.798.279-.987-.64-.19-.92 1.004-2.136 1.008-3.222-1.151-1.757-1.081-2.185-1.223-3.361zm3.891-4.051c1.682-1.157 3.156-3.244 2.333-5.248-.247-.717-.978-1.437-1.708-1.606 1.807 1.377 1.7 4.017.38 5.66-.014.222-1.703 1.684-1.005 1.194zM7.52 20.427c-.766-1.295.261-2.603.567-3.84-.105-1.293-1.245-2.315-1.283-3.6-.975.118-.777-.284-.156-.756.748-.526-1.478-.5-.405-1.028 1.27-.185-.825-.612-1.191-.998C3.061 9.095.959 7.568.579 5.287.387 3.24 2.292 1.621 4.216 1.034c2.899-.945 6.5-.602 8.754 1.482 1.262.826.207.856-1.056 1.478-3.426 1.81-2.48 5.14-1.6 5.924-.39.308-2.482.87-2.19 1.266 1.3.14.045.684-.322.835.423.323 1.358 1.202.162.933-1.014.108-.149 1.464.136 1.975.482.723.849 1.656.35 2.463-.572.955-.794 2.181-.349 3.114-.159.12-.51.155-.58-.078zM4.294 1.625c-3.035.652-4.285 3.81-1.617 6.488-1.928-4.24-.52-4.996 1.617-6.488z"/>
    </symbol>
    <symbol id="alcohol" xmlns="http://www.w3.org/2000/svg" stroke="currentColor" fill="none" stroke-width="1" viewBox="0 0 24 24">
        <path d="M6.692 10.79C8.63 8.976 11.03 7.88 10.811 5.47l-.19-1.95 4.406-.055c-.44 1.778-.705 3.472.12 4.317C19.777 11.871 20 14 20 21.541c-5.42.147-9.579 0-15 .049 0-3.59-.425-8.47 1.692-10.8zm12.095 7C19 13 16.88 13.974 13.181 13.928c-5.306-.067-5.876-.028-6.463.442-.721.576-.714 3.087.01 3.485.588.324 11.285.268 12.06-.063zM11.452 2.76C10.22 1.037 10.428.647 12.625.557c2.365-.097 3.7.303 2.594.777-.396.17-.72.574-.72.899 0 .459-.335.59-1.5.59-.826 0-1.522-.028-1.547-.063z"/>
    </symbol>
    <symbol id="bakery" xmlns="http://www.w3.org/2000/svg" fill="currentColor" stroke="currentColor" stroke-width="0" viewBox="0 0 24 24">
        <path d="M1.736 22.21c-.59-1.994-.353-4.101-.458-6.15-.008-1.811.044-3.627.27-5.427C2.658 9.47.455 8.33 1.238 7.12c.766-1.169 2.217-1.656 3.48-2.139.915-.367 2.163-.05 2.66-1.101.536-.815.978-1.86 2.03-2.126 2.753-1.207 5.87-.502 8.599.406 1.917.66 4.019 1.534 5.05 3.366.475 1.317-.716 2.48-.64 3.796-.973 3.293-1.731 6.511-2.947 9.468-.973.917-1.864 1.868-1.978 3.231-1.054.934-2.658.348-3.954.554-3.844.05-7.7.034-11.53-.294l-.137-.031zm15.063-10.887c-.998-.682-1.677-2.126-.315-2.764.53-1.447-1.276-2.336-2.42-2.718-3.67-.504-9.118-1.013-11.675 1.379-.688 1.226 1.997 2.296.434 3.436-.69 3.46-.6 7.277-.32 10.53 4.61.915 9.967.368 14.3.328.353-3.37.474-7.078-.004-10.191zm2.374 5.324c.77-2.28 1.434-4.595 2.143-6.894-.555-.959-.556-2.355.683-2.724.716-1.242-.808-2.28-1.74-2.877-2.585-1.617-5.758-2.227-8.789-1.967-1.06.142-2.153.551-2.821 1.412.824 1.32 2.658.616 3.925 1.102 1.798.3 3.778.8 4.94 2.292.827 1.18-1.2 2.258-.19 3.3.625 1.483.278 3.119.364 4.676 0 1.127.035 2.262.262 3.37.832.636.904-1.327 1.223-1.69z"/>
    </symbol>
    <symbol id="bear" xmlns="http://www.w3.org/2000/svg" stroke="none" fill="currentColor" viewBox="0 0 24 24">
        <path d="M12.118 20.974c.169-.238 1.378-.432 2.688-.432h2.38v-6.984c0-6.02-.096-7.017-.692-7.216-1.442-.48-3.204-.192-5.59.913-1.357.629-2.468 1.024-2.468.878 0-.146-.401.108-.892.566-.49.457-1.081.83-1.312.83-.241 0-.42 1.622-.42 3.798 0 2.279-.176 3.798-.438 3.798s-.438-1.479-.438-3.676c0-3.596-.545-5.884-1.64-6.89-.68-.622-.711-2.052-.06-2.618.27-.233.72-.822 1.003-1.31.42-.727.865-.888 2.465-.896 1.073-.005 2.151-.119 2.396-.252.655-.358 5.56.006 6.072.45.241.21.868.381 1.392.381.524 0 1.156.214 1.404.475.715.75 1.114 3.2.57 3.492-.954.511-.495 1.35.738 1.35.669 0 1.653.266 2.188.591.873.53.972.916.972 3.768v3.177l-1.829 1.358c-1.006.748-1.99 1.36-2.187 1.36-.198 0-.359.394-.359.876 0 1.612-.986 2.265-3.716 2.461-1.823.132-2.448.062-2.227-.248zm8.306-5.119l1.55-1.27-.209-2.757c-.115-1.517-.318-2.911-.451-3.098-.43-.602-3.253-.403-3.253.23 0 .348.408.57 1.047.57 1.244 0 1.578.616 1.578 2.913 0 1.427-.218 1.879-1.312 2.712-1.274.97-1.734 1.97-.907 1.97.224 0 1.105-.572 1.957-1.27zm-1.079-1.549c.759-.793.427-4.207-.409-4.207-.5 0-.687.567-.786 2.374-.13 2.356.205 2.87 1.195 1.833zM7 8c.157-.523.476-.703.991-.561.417.115 1.008-.051 1.312-.37.304-.317 1.02-.577 1.593-.577.633 0 1.04-.223 1.04-.57 0-.674 3.477-.81 4.815-.189 1.055.49 1.38.017 1.03-1.501-.235-1.02-.446-1.181-1.42-1.083-.728.073-1.411-.16-1.88-.645-.646-.665-.856-.696-1.693-.253-.685.363-1.089.39-1.429.095-.692-.601-1.656-.503-2.274.232-.51.604-.587.604-1.283 0-.408-.354-1.008-.643-1.335-.643-.78 0-1.968 1.048-1.968 1.736 0 .298-.197.542-.438.542-.699 0-.505 1.9.219 2.141.36.12.656.6.656 1.064C4.936 8.917 6.584 9.381 7 8zM5.823 20.365c-.293-.306-.464-.728-.381-.937.082-.209.378.042.656.557.577 1.068.493 1.183-.275.38zm2.451-2.956c-.436-1.413-.313-5.98.162-5.98.26 0 .438 1.392.438 3.417 0 3.496-.135 4.07-.6 2.563zm2.787-2.563c0-2.025.178-3.418.438-3.418.259 0 .437 1.393.437 3.418 0 2.025-.178 3.418-.437 3.418-.26 0-.438-1.393-.438-3.418zm3.063 0c0-2.025.178-3.418.437-3.418.26 0 .438 1.393.438 3.418 0 2.025-.179 3.418-.438 3.418-.26 0-.437-1.393-.437-3.418z" stroke="none"/>
    </symbol>
    <symbol id="cake" xmlns="http://www.w3.org/2000/svg" stroke="currentColor" fill="currentColor" stroke-width="0" viewBox="0 0 24 24">
        <path d="M16.68 21.3c-.891-.163-2.774-.475-4.185-.693-9.037-1.397-9.68-1.516-10.09-1.87-.418-.36-.795-7.881-.427-8.501.115-.193.979-.604 1.92-.915.942-.311 1.827-.652 1.969-.758.14-.105.478-.191.749-.191.289 0 .609-.265.774-.64.407-.924 1.048-1.457 1.752-1.457.357 0 .665-.17.737-.408.117-.389.125-.389.155 0 .017.224.169.408.338.408.168 0 .588.262.932.582.81.755 1.183.737 1.222-.058.02-.394.08-.484.155-.233.084.278.396.41.981.415 1.205.011 2.094.729 2.265 1.827.138.889.201.935 2.791 2.042 1.737.743 2.702 1.294 2.8 1.6.202.63.191 8.021-.013 8.679-.146.47-.322.521-1.684.497a23.354 23.354 0 01-3.141-.325zm4.102-.296c.222-.122.31-1.021.287-2.91-.034-2.684-.048-2.742-.792-3.315-.416-.32-.875-.582-1.02-.582-.143 0-.393.445-.555.99a27.45 27.45 0 01-.401 1.269c-.069.178.302.312 1.026.37.873.072.762.097-.487.11-2.55.028-3.337-.136-3.177-.662.185-.612-.629-1.611-1.313-1.611-.31 0-1.023.314-1.585.699-.77.527-1.28.691-2.064.667-.624-.019-.798-.072-.433-.133.646-.107.792-.408.32-.66-.157-.084-.397-.404-.533-.712-.192-.437-.441-.559-1.13-.553-.487.004-1.12.162-1.41.35-.744.486-1.037.433-1.927-.35-1.125-.99-2.113-.93-2.782.168-.286.469-.255.527.297.556l.617.031-.623.103c-.965.16-.632.855.491 1.026L4.53 16l-1.012.03c-1.013.03-1.013.031-1.013 1.063 0 1.272.514 1.764 1.844 1.764.547 0 1.419.108 1.938.239.519.131 1.611.333 2.428.447 2.247.314 5.91.885 7.425 1.156 1.245.223 2.418.362 3.78.447.297.019.685-.045.862-.142zm-1.874-3.01a4.45 4.45 0 011.215 0c.334.055.06.1-.608.1-.668 0-.942-.045-.607-.1zm-2.562-.47c.41-.053 1.018-.051 1.35.004.332.055-.003.1-.746.097-.742-.001-1.014-.047-.604-.1zm-2.838-.23a4.45 4.45 0 011.215 0c.334.056.06.102-.608.102-.668 0-.942-.046-.607-.101zm-2.7-.465a4.45 4.45 0 011.215 0c.334.055.06.1-.608.1-.668 0-.942-.045-.607-.1zm-2.7-.233a4.45 4.45 0 011.215 0c.334.055.06.1-.608.1-.668 0-.942-.045-.607-.1zm-2.97-.467a4.45 4.45 0 011.215 0c.334.056.06.101-.608.101-.668 0-.942-.045-.607-.1zm7.968-.002c.41-.054 1.018-.052 1.35.003.332.055-.003.099-.746.097-.742-.001-1.014-.047-.604-.1zm-5.67-.7c.41-.053 1.018-.051 1.35.004.332.055-.003.099-.746.097-.742-.001-1.014-.047-.604-.1zm-2.7-.232c.41-.054 1.018-.052 1.35.003.332.055-.003.099-.746.097-.742-.001-1.014-.047-.604-.1zm13.429-.075c0-.706.607-1.39 1.234-1.39.212 0 .619.202.904.447.646.559.832.407.832-.682 0-1.018-.314-1.28-2.7-2.251-2.461-1.002-2.847-1.081-3.314-.678-.688.594-1.71.682-2.61.224-.454-.232-.826-.556-.826-.721 0-.355-.59-.396-.97-.068-.694.598-2.791.055-3.182-.824-.2-.451-1.46-.224-3.645.658l-1.721.695.152 1.276c.172 1.431.292 1.63.787 1.288.866-.599 1.509-.555 2.357.16.921.778 1.72.9 2.346.36.222-.192.695-.35 1.05-.35.666 0 2.016 1.052 2.016 1.571 0 .162.05.294.113.294.062 0 .29.058.505.13.216.071.562-.007.77-.175.207-.168.782-.5 1.276-.74.76-.366.999-.388 1.535-.14.35.16.708.578.796.927.09.349.42.873.735 1.165l.574.531.493-.525c.271-.29.493-.821.493-1.182zm-.742-2.795c-.335-.115-.608-.266-.608-.334 0-.277 2.094-.1 2.58.218.494.321.468.342-.42.335-.52-.004-1.218-.103-1.552-.219zm-7.088-.7c-.52-.105-1.856-.257-2.97-.336-3-.213-4.05-.37-4.05-.608 0-.274 1.98-.264 3.393.018.605.12 2.475.331 4.158.468 3.565.29 4.877.695 2.169.669-.965-.01-2.18-.104-2.7-.21zM15 10c.896-.903.4-2.157-.97-2.454-.765-.166-.944.078-.401.546.252.217.222.28-.135.28-.252 0-.459-.158-.459-.35 0-.775-.951-.163-1.121.722-.052.269.078.767.29 1.107.305.493.579.618 1.357.618.642 0 1.133-.16 1.439-.469zm-3.932-.954c.527-.753.292-1.724-.506-2.092-.515-.238-.56-.214-.427.226.117.386.027.493-.42.493-.442 0-.496-.063-.244-.28.441-.38.407-.652-.081-.652-.63 0-1.485.87-1.485 1.511 0 1.496 2.273 2.066 3.163.794zm1.47-3.937c0-.32.06-.451.136-.29a.783.783 0 010 .582c-.075.16-.136.029-.136-.292zm-2.452-.135c.013-.272.077-.327.163-.141.078.168.069.369-.02.446-.09.078-.154-.06-.143-.305zm.523-.44c-.005-.275 1.327-1.289 1.694-1.289.146 0-.086.233-.514.517-.428.284-.868.624-.977.757-.116.14-.2.147-.203.015zm2.464-.357c0-.192.104-.559.232-.815.146-.294.232-.337.232-.117 0 .193-.104.56-.232.816-.146.294-.232.337-.232.116zm.61-1.343c-.43-.249-.37-1.686.072-1.686.24 0 .36.311.36.932 0 1.011.004 1.005-.432.754z"/>
    </symbol>
    <symbol id="cart" xmlns="http://www.w3.org/2000/svg" fill="currentColor" stroke="currentColor" stroke-width="0" viewBox="0 0 24 24">
        <path d="M10.242 1.215a.22.22 5.025 00-.144.05l-6.782 5.7a.22.22 5.025 00-.027.31l.451.54a.22.22 5.025 00.31.027l6.782-5.7a.22.22 5.025 00.025-.312l-.45-.537a.22.22 5.025 00-.165-.078zm3.21 1.451a.22.22 75.825 00-.2.107l-.36.604h-.001a.22.22 75.825 00.078.303l7.611 4.527a.22.22 75.825 00.303-.076l.361-.604a.22.22 75.825 00-.076-.3l-7.615-4.53a.22.22 75.825 00-.102-.031zM.638 9a.26.26 0 00-.237.26v1.152a.26.26 0 00.26.262h22.59a.26.26 0 00.26-.262v-1.15a.26.26 0 00-.26-.262H.66A.26.26 0 00.64 9zm.548 2.607c-.306 0-.653.27-.562.563l3.293 10.275c.09.292.256.565.56.565l15.061-.031c.306 0 .489-.265.563-.561l3.125-10.248c.074-.297-.257-.563-.563-.563H1.187z"/>
    </symbol>
    <symbol id="chevron_l" xmlns="http://www.w3.org/2000/svg" fill="currentColor" stroke="currentColor" stroke-width="0" viewBox="0 0 24 24">
        <path d="M14 23.435L3 11.563 13.968.43 17 3.889l-8 7.699 8 8.301z"/>
    </symbol>
    <symbol id="chevron_r" xmlns="http://www.w3.org/2000/svg" fill="currentColor" stroke="currentColor" stroke-width="0" viewBox="0 0 24 24">
        <path d="M10 23.435l11-11.872L10.032.43 7 3.889l8 7.699-8 8.301z"/>
    </symbol>
    <symbol id="chicken" xmlns="http://www.w3.org/2000/svg" stroke="currentColor" fill="currentColor" stroke-width="0" viewBox="0 0 24 24">
        <path d="M9.616 20.85c-1.139-.445-1.77-.874-1.77-1.202 0-.143-.332-.41-.738-.593-1.732-.78-2.129-1.02-2.648-1.596-.543-.601-.863-1.276-.691-1.455.049-.05.322.226.607.614s.939.906 1.453 1.152c.514.246 1.098.534 1.296.64.688.367 3.581.78 5.44.776 3.863-.008 7.138-.978 8.349-2.472.61-.753.625-1.335.051-2.04-.415-.511-1.288-1.105-1.412-.962-.203.234-.292 1.376-.116 1.49.368.236.226 1.07-.235 1.373-1.378.906-2.298 1.07-6.047 1.077-3.093.006-3.785-.05-4.621-.377-1.235-.483-1.405-.641-1.098-1.025.205-.256.084-.35-.793-.621-.569-.175-1.234-.514-1.479-.753-.252-.245-.577-.38-.75-.312-.368.147-.391-.144-.059-.747.135-.245.246-.756.246-1.135 0-.526.104-.73.441-.86.37-.144.49-.074.742.433.386.774.515.761.957-.09.902-1.74 3.125-3.091 5.457-3.316 1.278-.123 1.512-.215 2.12-.828.787-.794 2.178-1.49 2.978-1.49.396 0 .723-.215 1.165-.765L19.076 5l.373.47c.379.477.33 1.147-.074.995-.498-.186-.91.285-.911 1.043-.001.417-.134 1.022-.295 1.344-.397.79-.37.96.252 1.594.295.3.692 1.007.883 1.57.206.605.498 1.073.714 1.144.846.28 1.983 1.706 1.985 2.492.003.8-.669 1.71-1.768 2.399-.595.372-1.328.737-1.628.811-.3.074-.847.48-1.215.904-.943 1.083-2.239 1.47-4.844 1.448-1.41-.012-2.323-.126-2.932-.364zm6.178-.632c1.22-.543 1.202-.927-.033-.694-1.195.226-4.756.228-6.097.004-.877-.146-1.017-.126-.922.13.227.614 1.484.92 3.856.941 1.873.017 2.46-.053 3.196-.38zM11.189 8.095c0-.739 1.74-2.045 3.048-2.288 1-.187 1.868-.64 1.868-.976 0-.625.438-.72.906-.196l.466.521-.637.366c-.35.201-1.057.574-1.57.828-.514.254-.935.537-.935.628 0 .091-.098.166-.217.166-.12 0-.387.223-.593.496-.27.355-.555.488-1.012.471-.35-.013-.79.05-.98.14-.247.116-.344.072-.344-.156z"/>
    </symbol>
    <symbol id="cofee" xmlns="http://www.w3.org/2000/svg" fill="currentColor" stroke="currentColor" stroke-width="0" viewBox="0 0 24 24">
        <path d="M.753 21.952c-.19-1.495.394-2.968.876-4.36.594-1.592 1.558-3.314 1-5.051-.371-.994-1.126-2.087-.701-3.172.673-.893 1.957-.788 2.96-.893 1.84-.01 3.714-.151 5.528.213 1.28.35.788 1.985.403 2.857-.255.495-1.476 1.892-.474 1.942 2.491-1.469 4.427-3.675 6.615-5.534 1.402-1.157 2.75-2.512 4.495-3.129 1.023-.369 1.76.76 1.719 1.668.044 1.142-1.159 1.714-1.877 2.396-2.47 1.858-5.045 3.634-7.868 4.915-1.34.071-1.915 1.304-1.714 2.517.015 1.81.31 3.605.378 5.41-.224 1.273-1.875.996-2.85 1.153-2.368.077-4.754.34-7.118.065-.586-.085-1.213-.368-1.372-.997zm10.481-1.067c-.44-2.147-1.922-3.913-2.421-6.038-.292-1.602.823-2.978 1.083-4.502-.985-.394-2.13-.275-3.187-.346-1.442-.009-2.885-.002-4.327-.004.594 1.154 1.413 2.217 1.763 3.478.156 1.46-.701 2.776-1.199 4.095l-1.771 4.047c2.86-.043 5.735.132 8.582-.215.474-.124 1.177-.08 1.477-.515zm11.33-13.729c.268-1.367-1.314-1.197-2.037-.542-2.462 1.437-4.833 3.107-6.806 5.176-.365.295-.73 1.181.07.678C16.63 11.1 19.34 9.46 21.933 7.67c.218-.162.436-.325.632-.514zm-18.883-.77c-.304-1.272.2-2.587.62-3.782.126-.577.929-1.992.814-.616-.108 1.517-.21 3.142-1.008 4.471-.114.183-.368.124-.426-.072zm2.345-.652c.03-1.503.123-3.093.85-4.438 1.005-.617.967 1.708.335 2.173-.677 1.17-.897 2.512-1.174 3.814l-.011-1.55zm1.863-.3c.312-1.547 1.089-2.962 1.8-4.358.304.11-.316 1.63-.333 2.21-.373.847.113 3.02-1.293 2.71-.14-.15-.173-.365-.174-.561z"/>
    </symbol>
    <symbol id="confet" xmlns="http://www.w3.org/2000/svg" stroke="currentColor" fill="none" viewBox="0 0 24 24">
        <path d="M5.95 19.924c-.986-.988-1.884-1.962-1.997-2.163-.313-.558.31-.922 1.845-1.08.748-.077 1.36-.23 1.36-.34 0-.111-.33-.538-.733-.949-.402-.41-.732-.856-.732-.99 0-.466 8.475-8.745 8.94-8.735.251.006.726.334 1.055.73 1.018 1.224 1.4.98 1.636-1.044.29-2.49.693-2.496 3.109-.048 1.557 1.578 1.805 1.94 1.597 2.327-.136.252-.49.463-.787.47-.297.005-1.13.147-1.852.315l-1.312.305.885.935c.486.515.884 1.105.884 1.312 0 .207-1.838 2.218-4.086 4.469-4.417 4.424-4.782 4.639-5.885 3.48-.316-.333-.665-.605-.775-.605-.11 0-.277.63-.37 1.4-.16 1.317-.444 2.008-.825 2.008-.091 0-.972-.809-1.957-1.797z"/>
    </symbol>
    <symbol id="contacts" xmlns="http://www.w3.org/2000/svg" fill="none" stroke="currentColor" viewBox="0 0 24 24">
        <path d="M.89.802v22.602h22.3V.8zm15.808 3.852c2.235.12 2.638.955 1.224 2.503 3.876.686 2.438 1.385 2.004 2.081l-6.23.1c-.933-.953-1.321-1.844 1.83-2.314-1.21-1.775-.275-2.23 1.172-2.37zm-13.884 7.54h14.923v1.527H2.816zm-.094 3.208H17.64v1.527H2.72zm.021 3.394h14.922v1.529H2.74z"/>
    </symbol>
    <symbol id="cour" xmlns="http://www.w3.org/2000/svg" stroke="currentColor" fill="currentColor" stroke-width="0" viewBox="0 0 24 24">
        <path d="M9.426 22.639c-1.451-.33-1.704-.457-2.564-1.295-.497-.484-1.44-1.058-2.096-1.274-3.262-1.077-4.246-3.842-1.993-5.598.904-.704 1.114-1.08 1.52-2.727.75-3.042 2.638-5.54 5.03-6.655.655-.306 1.349-.105 1.349.39 0 .471.8 1.127 1.387 1.138.284.005.884-.394 1.335-.887.637-.698.938-.841 1.36-.644 2.524 1.177 4.604 3.875 5.155 6.688.229 1.168.502 1.774.96 2.127 2.044 1.575 2.404 3.26 1.003 4.695-.46.47-1.458 1.075-2.219 1.344-.76.269-1.608.736-1.882 1.038-1.135 1.251-2.12 1.589-4.95 1.696-1.524.058-3.052.042-3.395-.036zm5.9-.919c.299-.1.489-.353.423-.565-.092-.293-.426-.314-1.416-.088-.712.163-2.332.215-3.599.117-2.306-.18-3.208.202-1.37.58.514.105 1.046.247 1.183.315.32.16 4.065-.122 4.778-.359zm1.2-1.772c2.171-.455 3.711-1.07 4.728-1.887.867-.696.8-2.223-.12-2.788-.549-.336-.632-.314-.699.189-.09.68-1.632 2.47-2.128 2.47-.191 0-.839.217-1.439.48-1.594.702-7.564.679-9.709-.038-1.972-.659-3.213-1.72-3.213-2.748 0-.414-.146-.749-.327-.749-.443 0-1.417 1.146-1.417 1.668 0 .757.296 1.388.65 1.388.19 0 .347.121.347.27 0 .404 2.127 1.261 4.234 1.706 2.514.531 6.657.549 9.093.039zM11.56 5c-.701-.629-.305-1.734.622-1.734.64 0 .73.11.73.884 0 .525-.16.96-.393 1.07-.502.236-.433.252-.96-.22z"/>
    </symbol>
    <symbol id="create" xmlns="http://www.w3.org/2000/svg" viewBox="0 0 24 24" fill="currentColor" stroke="currentColor" stroke-width="0">
        <path d="M20.864 1.628l-.842.84 1.211 1.21.84-.839zM2 1c-.554 0-1 .446-1 1v20c0 .554.446 1 1 1h20c.554 0 1-.446 1-1V10.988h-1v10.104a.906.906 0 01-.908.908H2.908A.906.906 0 012 21.092V2.908C2 2.405 2.405 2 2.908 2H13.93V1zm17.507 2.017l-8.305 8.304-.57 1.76 1.764-.564 8.306-8.307z" stroke="none"/>
    </symbol>
    <symbol id="delivery" xmlns="http://www.w3.org/2000/svg" stroke="currentColor" fill="currentColor" stroke-width="0" viewBox="0 0 24 24">
        <path d="M14.899 23.121c-.226-.185-.486-1.057-.59-1.973-.41-2.249-.628-2.78-2.583-4.729-.586 1.788-1.222 3.622-2.128 5.236-.867 1.525-.945 1.59-1.82 1.52-1.254-.1-1.288-.649-.164-2.65l.916-1.631c1.667-5.08-.191-7.458.326-11.224l2.278-.127c1.253-.07 2.44-.085 2.636-.033 1.017 1.6.856 2.159 1.35 4.369l1.994.117c1.898.111 1.993.145 1.993.701 0 .571-.055.586-2.35.653-2.834.082-2.835.086-1.366 3.159 1.1 2.303 1.814 6.08 1.252 6.636-.408.404-1.237.392-1.744-.024zm1.287-12.345c-.165-.165-.344-1.194-.398-2.288l-.098-1.987 3.188-.066c3.823-.08 3.856-.056 3.73 2.7l-.084 1.809-3.019.066c-2.19.047-3.1-.017-3.319-.234zM9.71 6.396c-2.73-.917-1.997-4.36.91-4.267.596.02 1.948.036 3.006.037 1.56.002 1.922.072 1.922.372 0 .645-.531 1.215-1.274 1.368-.396.082-.72.3-.72.484 0 1.499-2.097 2.594-3.844 2.007z"/>
    </symbol>
    <symbol id="desserts" xmlns="http://www.w3.org/2000/svg" stroke="currentColor" fill="currentColor" stroke-width="0" viewBox="0 0 24 24">
        <path d="M6.883 20.118c-.132-.079-.434-.844-.67-1.701-.754-2.728-1.024-3.286-1.754-3.632-.853-.404-1.933-1.92-1.96-2.75-.036-1.163 1.496-3.247 2.812-3.824.306-.134.526-.412.526-.665 0-.603 1-1.771 1.92-2.243.422-.216 1.503-.54 2.403-.72.9-.18 2.018-.491 2.486-.692l.85-.365.14.432c.22.683.168 1.171-.184 1.734-.18.287-.267.572-.194.633.298.248 1.882.097 2.185-.208.174-.175.717-.529 1.206-.786.797-.42 1.107-.462 3.022-.412 1.507.04 2.163.131 2.235.312.08.2-.097.221-.799.097-1.573-.277-2.947-.174-4.132.309-1.237.503-1.593.933-1.048 1.265.428.262 1.125 1.351 1.125 1.759 0 .163.316.49.702.728.944.582 1.64 1.836 1.611 2.904-.039 1.447-.355 1.952-1.903 3.039-.421.295-.685.762-.882 1.558-.406 1.642-.959 3.063-1.256 3.228-.142.079-2.045.143-4.23.143-2.184 0-4.08-.064-4.211-.143zm8.51-.97c.656-2.093.958-3.107.958-3.215 0-.066-.306-.113-.68-.104-.785.019-1.004.323-1.412 1.96-.287 1.154-.712 1.672-.712.869 0-.255.166-.869.368-1.363.202-.495.333-1.135.292-1.423l-.075-.523-.579.393c-.504.342-.59.581-.668 1.874-.07 1.157-.167 1.482-.441 1.482-.294 0-.322-.186-.173-1.12.289-1.81.276-1.893-.3-1.961-.51-.06-.526-.013-.526 1.6 0 1.4-.056 1.646-.35 1.552-.274-.087-.351-.473-.351-1.74 0-1.451-.053-1.652-.488-1.846-.702-.314-.78-.135-.48 1.108.147.61.267 1.462.267 1.894 0 1.257-.489.564-.618-.876-.167-1.857-.265-2.117-.796-2.117-.66 0-.763.383-.374 1.38.512 1.315.649 1.932.428 1.932-.255 0-.743-.882-.743-1.344 0-.736-.538-1.61-1.1-1.789-.807-.256-1.006-.078-.729.651.132.347.338 1.103.458 1.679.39 1.872.141 1.777 4.64 1.777h3.955zm-1.685-3.987c.172-.112.454-.102.744.028 1.648.735 4.074-.574 4.572-2.467.387-1.468-2.037-4.142-2.545-2.808-.432 1.136-3.45 1.333-4.471.293-.848-.864-.784-2.314.138-3.155.385-.352.7-.849.7-1.104 0-.254.106-.517.234-.583.239-.123.335-1.072.11-1.072-.069 0-.502.132-.964.292-.461.161-1.139.293-1.506.293-.999 0-2.56.58-3.466 1.287-.76.593-.803.697-.79 1.887.015 1.253.47 2.295 1.216 2.784.178.116.276.333.217.48-.173.433-1.177-.67-1.735-1.905L5.67 8.32l-.863.74c-2.427 2.084-2.349 4.003.226 5.545 1.352.81 2.714.98 3.947.491.628-.248.919-.283 1.037-.123.091.122.58.343 1.088.49.92.266 1.903.152 2.603-.302zM9.49 12.18c-.112-.244.032-.272.852-.17 1.417.178 1.637.464.357.464-.741 0-1.115-.091-1.209-.294zM15.7 10c.769-.614.902-1.84.265-2.429-.468-.43-1.016-.465-1.016-.064 0 .161-.161.293-.358.293-.288 0-.309-.078-.106-.394.525-.818-.293-1.019-1.538-.377-1.517.781-1.498 2.462.038 3.325.857.482 1.827.355 2.715-.354zm-1.86-1.55a.458.458 0 01-.293-.405c0-.26.073-.251.48.057.408.307.554.324.958.114.262-.137.543-.194.623-.127.38.317-1.04.606-1.768.36z"/>
    </symbol>
    <symbol id="drinks" xmlns="http://www.w3.org/2000/svg" fill="currentColor" stroke="currentColor" stroke-width="0" viewBox="0 0 24 24">
        <path d="M4.787 22.206c-.69-3.216-1.462-7.712-2.054-10.948-.681-.045-1.413.128-2.049-.153-.236-.877-.551-2.901.93-2.606.31-.121 1.1.259 1.015-.261.752-4.818 6.323-4.771 9.812-4.9.178-.898.288-2.196 1.404-2.33 2.042-.204 4.01-.321 6.093-.168.012.393.281 1.014-.417.996-1.76.064-2.976.198-4.81.217-.718.202-.642.59-.793 1.407 3.161.315 6.313.452 7.485 5.036.636.048.947-.05 1.52.29.428 1.03.52 2.862-1.818 2.738-.606 1.53-1.18 7.27-1.727 9.64-.126.998-.934 1.585-1.824 1.824-2.53.259-10.779 1.044-12.767-.782zm13.293-.205c1.286-2.565 1.52-7.52 1.917-10.601-4.893-.017-10.754-.142-15.964-.142.57 3.667 1.082 6.823 1.794 10.417 4.042 1.046 8.736.901 12.253.326zM7.85 21.51c-.893-.47-1.476-1.998-1.09-2.896.994-.348 1.141.974 1.386 1.658.052.477.268.73.754.616.756.058 1.57-.08 2.272.222-.16.903-1.687.306-2.41.474-.304-.012-.612-.013-.913-.074zM22.26 9.188L1.752 9.187c-.474.634-.345 1.047 0 1.38h20.529c.34-.444.124-1.22-.02-1.38zm-9.98-5.033c-2.54-.036-8.489.435-8.642 4.38 1.816.109 5.487-.072 7.851-.088.306-1.41.636-2.918.79-4.292zm7.852 3.512c-1.049-2.777-3.955-3.537-6.496-3.49-.312 1.355-.67 2.954-.939 4.32h7.527z"/>
    </symbol>
    <symbol id="edit" xmlns="http://www.w3.org/2000/svg" viewBox="0 0 24 24" fill="currentColor" stroke="currentColor" stroke-width="0">
        <path d="M21.63.95l-.84.84L22 3l.84-.84L21.63.95zM2 1c-.554 0-1 .446-1 1v20c0 .554.446 1 1 1h20c.554 0 1-.446 1-1V10.988h-1v10.104a.906.906 0 01-.908.908H2.908A.906.906 0 012 21.092V2.908C2 2.405 2.405 2 2.908 2H13.93V1H2zm18.273 1.338l-8.304 8.305-.57 1.76 1.763-.565L21.47 3.53l-1.196-1.193zM4 14v1h7v-1H4zm.035 3.086v1h15.201v-1h-15.2zm-.008 2.652v1h15.2v-1h-15.2z"/>
    </symbol>
    <symbol id="enter" xmlns="http://www.w3.org/2000/svg" viewBox="0 0 24 24" fill="currentColor" stroke="currentColor" stroke-width=".2">
        <path d="M2 1c-.554 0-1 .446-1 1v5c.395.622.72.544 1 0V2.908C2 2.405 2.405 2 2.908 2h18.184c.503 0 .908.405.908.908v18.184a.906.906 0 01-.908.908H2.908A.906.906 0 012 21.092V17c-.373-.449-.696-.33-1 0v5c0 .554.446 1 1 1h20c.554 0 1-.446 1-1V2c0-.554-.446-1-1-1H2zm8 8.3l.3 1.971h-9c-.279.34-.505.738 0 1.91h9l-.3 2.22c.133-.231 4-3.35 4-3.35L10 9.3z"/>
    </symbol>
    <symbol id="error" xmlns="http://www.w3.org/2000/svg" fill="none" stroke="currentColor" stroke-width="0.8" viewBox="0 0 24 24">
        <path d="M1 21.488C4.415 14.22 6.607 10.306 11.226 2c.426-.428 1.248-.427 1.663.002.125.13 2.474 4.483 5.22 9.674 5.45 10.305 5.232 9.83 4.82 10.499-.359.584.367.548-10.896.546l-10.2-.001c-.504-.274-.827-.784-.833-1.232zm11.4-1.592c.498-.255.649-.69.403-1.162-.301-.577-1.143-.585-1.483-.013-.206.345-.182.64.076.945.337.326.625.423 1.004.23zm-.092-3.501c.176-.142.214-.389.524-3.393.184-1.783.315-3.34.292-3.462-.024-.122-.156-.334-.295-.471-.451-.448-1.105-.448-1.557 0-.138.137-.271.349-.294.47-.024.122.107 1.68.291 3.463.31 3.004.348 3.251.524 3.393.207.187.332.145.515 0z"/>
    </symbol>
    <symbol id="exit" xmlns="http://www.w3.org/2000/svg" viewBox="0 0 24 24" fill="currentColor" stroke="currentColor" stroke-width=".2">
        <path d="M2 1c-.554 0-1 .446-1 1v20c0 .554.446 1 1 1h13.1c.554 0 1-.446 1-1v-5c-.396-.622-.721-.544-1 0v4.092a.906.906 0 01-.909.908H2.908A.906.906 0 012 21.092V2.908C2 2.405 2.405 2 2.908 2h11.283c.504 0 .909.405.909.908V7c.372.449.695.33 1 0V2c0-.554-.446-1-1-1H2zm16.7 8.03L19 11h-9c-.28.34-.506.737 0 1.91h9l-.3 2.219c.132-.23 4-3.35 4-3.35l-4-2.75z"/>
    </symbol>
    <symbol id="fish" xmlns="http://www.w3.org/2000/svg" stroke="none" fill="currentColor" stroke-width="0" viewBox="0 0 24 24">
        <path d="M17.528 20.492c-.45-.576-.683-1.376-.7-2.412-.012-.661-.1-.81-.554-.932a113.6 113.6 0 01-4.235-1.277c-.51-.17-1.333-.26-1.945-.214-1.395.108-2.618-.205-2.791-.712-.765-1.135-.922-2.591-1.534-3.758C4.38 9.044 3.828 6.32 4.414 4.501c.241-.75.255-.757 1.633-.894 1.669-.166 3.339 0 4.456.444.715.283 1 .292 2.202.07 1.513-.28 2.77-.062 3.294.569.474.571 2.378 4.318 2.534 4.986.083.358.241.702.351.765.32.184.23 1.424-.124 1.697-.424.327-.41.896.054 2.117l.378.996.972-.052c.695-.037 1.22.08 1.836.407 1.09.58 1.199 1.016.336 1.348-.362.14-.659.333-.659.43 0 .097-.108.176-.24.176-.352 0-2.192 1.847-2.68 2.691-.488.84-.724.887-1.23.241zm.907-.605c0-.355 2.61-2.788 3.3-3.075.696-.29.751-.564.173-.851-.542-.27-2.3-.268-2.844.002-.379.189-.388.243-.093.517.18.168.329.407.329.53 0 .124-.198.027-.44-.215-.243-.242-.518-.44-.61-.44-.224 0-1.112 1.66-1.112 2.077 0 .678.68 1.916.991 1.805.169-.06.306-.218.306-.35zm1.405-3.531c-.285-.114-.322-.177-.108-.184.178-.006.47.076.649.184.395.237.053.237-.54 0zm-1.994-.177c.687-.707.742-.85.596-1.556-.733-3.538-3.414-7.689-5.95-9.216-.853-.513-1.676-.92-1.726-.853-.021.03-.268.632-.547 1.34-.668 1.694-1.923 2.878-3.556 3.357-.658.192-1.196.426-1.196.518 0 .093.263.55.585 1.018.436.632.606.76.664.498.044-.193.182-.352.307-.352.368 2.018 1.085 2.387 2.967 3.44.365.15.664.342.664.425 0 .083.111.152.247.152.135 0 .646.17 1.134.38 1.393.595 4.34 1.563 4.916 1.616.076.006.478-.339.895-.767zm-8.178-2.977c-.287-.267-.305-.363-.08-.432.158-.05.325.014.371.142.118.329.81.285 1.128-.071.157-.177.217-.547.143-.89-.123-.569-.103-.585.577-.482.96.145 1.416-.33 1.005-1.044-.316-.548-.24-.76.186-.515.697.4.077 2.228-.756 2.228-.16 0-.29.095-.29.21 0 .36-1.04 1.196-1.489 1.196-.234 0-.592-.154-.795-.342zm-1.406-1.984c-.252-.281-.2-.303.46-.196 1 .163 1.364-.093 1.24-.872-.095-.607-.076-.624.576-.51.568.099.721.037.968-.392.241-.418.244-.566.015-.823-.38-.424-.115-.616.493-.359.755.32 1.33-.146 1.16-.94-.154-.714.213-.834.488-.159.251.616-.344 1.557-.984 1.557-.352 0-.513.155-.616.591-.093.393-.353.68-.774.853-.349.143-.637.351-.641.462-.004.111-.19.406-.413.654-.479.533-1.55.606-1.972.134zM10 15c-.003-.083-.385-.368-.849-.634-.464-.265-1.083-.69-1.376-.942-.293-.252-.584-.41-.647-.352-.108.1.34 1.474.616 1.889.148.223 2.265.26 2.256.039zm8.503-3.34c.237-.573-.178-1.693-1.768-4.776-1.081-2.096-1.62-2.577-2.885-2.577-.642 0-1.948.579-1.344.596.316.008 2.464 1.933 3.257 2.918.585.726 1.786 2.878 2.101 3.765.15.42.48.46.64.075zM7.031 8.7c1.141-.54 1.934-1.278 2.516-2.337.62-1.128.608-1.968-.028-2.146-.927-.26-3.514-.343-4.106-.132-.593.211-.595.217-.592 2.175.002 1.08.062 2.166.134 2.414.168.583.882.592 2.076.026zm.392-2.777c-.511-.475-.545-.772-.142-1.265.374-.458 1.265-.45 1.719.016.421.433.436.625.08 1.06-.463.564-1.167.644-1.657.19zm.944-.132c.38-.136.463-.789.124-.984-.315-.18-1.079.086-1.079.377 0 .136.117.356.26.488.303.282.26.274.695.12zm-.385-.58c.069-.166.153-.302.187-.302s.117.136.186.301c.075.182 0 .301-.186.301-.188 0-.262-.12-.187-.3z"/>
    </symbol>
    <symbol id="fruit" xmlns="http://www.w3.org/2000/svg" stroke="currentColor" fill="currentColor" stroke-width="0" viewBox="0 0 24 24">
        <path d="M9.403 21.32c-2.788-.911-5.056-2.808-6.184-5.135-1.03-1.909-1.31-4.15-.575-6.166.46-1.024 1.398-1.86 2.59-2.302 1.568-.681 3.464-.806 5.171-.48.692.432 1.528.676 1.43-.34.036-1.144-.571-2.394-1.814-2.954-.44-.855 1.02-.342 1.205.164.416.304 1.484 1.79 1.469.618-.118-.893.316-1.931 1.474-2.137 1.224-.268 2.536-.404 3.792-.271.199.736-.652 1.415-1.104 2.006-.634.71-1.496 1.44-2.647 1.344-.953-.105-2.144.359-1.695 1.311.523.807 1.99-.048 2.913.153 1.553-.138 3.217.174 4.322 1.157 1.392 1.05 2.206 2.611 2.315 4.17-.196 1.665-.887 3.27-1.685 4.793-.66.68-1.008 1.458-1.805 2.092-2.333 1.956-5.992 3.084-9.172 1.977zm6.22-.83c2.935-1.21 4.818-3.754 5.483-6.385.417-1.764.228-3.792-1.337-5.14-1.345-1.32-3.586-1.306-5.478-1.199-1.095-.245-1.945 1.11-2.884.465-1.025-.666-2.423-.448-3.631-.49-1.193-.033-2.466.182-3.285.975C3.268 9.75 2.59 11.24 2.885 12.699c.139 1.492.49 3.016 1.528 4.266.694.878 1.35 1.839 2.371 2.476.803.395 1.52 1.082 2.524 1.267 2.039.464 4.352.494 6.316-.218zM5.249 16.537c-1.151-1.571-1.713-3.487-1.467-5.326-.197-.535 1.3-1.888 1.048-.774-.47.662-.746 1.427-.586 2.204.261 1.273.734 2.547 1.526 3.658.532.422-.199.918-.52.238zM15.96 4.347c.675-.349 1.847-1.85.228-1.636-1.039.184-2.174.42-2.948 1.069-.435.65.699.737.904.196.857-.428.883.35.214.58-1.137.46.031 1.058.642.444.342-.193.661-.414.96-.652z"/>
    </symbol>
    <symbol id="garnish" xmlns="http://www.w3.org/2000/svg" stroke="currentColor" fill="currentColor" stroke-width="0" viewBox="0 0 26 26">
        <path d="M24.886 11.419c.359-2.06-1.149-3.763-2.71-4.629C14.702 3.6 9.68 4.608 3.425 6.768c-4.589 2.768-2.917 6.106 1.437 9.087 3.39 3.36 7.064 4.218 11.272 3.32 2.693-1.085 8.318-4.931 8.753-7.756zM8.245 16.777c7.016 1.372 9.048-.554 9.792.204.14.956-2.648 1.368-4.039 1.551-4.348.131-6.321-.696-5.753-1.755zm.241-.842C1.354 14.35-.652 8.723 5.11 7.32c1.488 1.189-1.345 1.656-1.412 2.971-.462 1.649 1.033 2.916 2.258 3.511 4.242 1.677 8.86 1.47 12.868.318 4.184-1.273 4.19-4.467 1.2-5.733C16.355 6.74 12.06 6.622 8.467 7.263c-.736.367-2.218-.498-.873-.982 2.449-.791 5.061-.898 7.594-.681 5.167.4 12.923 4.39 5.643 9.067-3.913 1.875-8.509 2.17-12.345 1.268zm10.508-3.605c-.206-1.597-.235-2.493-1.395-3.009-1.36-.708-2.816-1.156-4.242-1.678 2.726-.117 6.251.25 7.816 2.588.589 2.24-1.9 3.182-2.179 2.098z"/>
    </symbol>
    <symbol id="home" xmlns="http://www.w3.org/2000/svg" stroke="currentColor" fill="none" stroke-width=".6" viewBox="0 0 24 24">
        <path d="M3.23.742C2.6.78 2.295.51 2.412 2.187.426 2.222.58 4.19 2.42 4.256V5.69C.382 5.703.275 7.79 2.424 7.75c-.01.475-.019.95-.03 1.424-2.044.025-1.997 2.155.026 2.08 0 2.626-.01 2.152.004 4.905-1.963.074-2.127 2.08-.004 2.058v1.436c-1.728.031-2.29 2.063-.009 2.068a7.87 7.518 0 00.017 1.157c.03.33.382.289.803.289 6.499-.007 13.086-.032 19.577-.155a1.167 1.115 0 00.332-.307l.11-.175V1.378c.005-.346-.26-.605-.666-.612zm9.5 1.31c.945.022 1.158.46 1.193 1.384 2.502.043 4.625 2.046 4.74 4.594 1.752-.073 1.415 1.603.68 1.68-4.774.035-7.833-.04-13.322-.019-.94-.011-.905-1.556.71-1.651.045-2.992 1.85-4.575 4.767-4.598.011-.862.287-1.413 1.233-1.39zM5.439 14.874h14.545a.373.356 0 01.373.358v.53a.364.364 0 01-.373.358H5.438a.366.366 0 01-.375-.357v-.531a.375.358 0 01.375-.358zm-.021 2.668H19.96a.375.358 0 01.374.358v.53a.366.366 0 01-.374.359H5.417a.366.366 0 01-.375-.358V17.9a.375.358 0 01.375-.358zm-.002 2.627h14.542a.373.356 0 01.375.356v.533a.365.365 0 01-.375.356H5.415a.363.363 0 01-.373-.356v-.533a.37.354 0 01.373-.356z"/>
    </symbol>
    <symbol id="icecream" xmlns="http://www.w3.org/2000/svg" stroke="currentColor" fill="none" stroke-width="0.7" viewBox="0 0 24 24">
        <path d="M11.928 21.697c-.2-.586.125-.987.809-.997.375-.006.258.77-.183 1.211-.386.386-.424.373-.626-.214zM11 19.598c-.281-.332.081-.68.709-.68.292 0 .797-.146 1.122-.326 1.199-.663 1.937-.121.818.6-.7.452-2.391.71-2.649.406zm-.774-1.905c-.419-.368-.138-.503 2.411-1.16 2.297-.592 2.455-.604 2.455-.183 0 .404-.162.474-2.565 1.111-1.603.425-2.033.469-2.301.232zm-.765-1.895c-.29-.342.366-.815 1.31-.945 1-.139 3.362-.743 4.09-1.047.784-.328 1.143-.27 1.143.186 0 .224-.307.509-.684.633-1.173.39-2.776.784-3.65.9-.463.061-.915.2-1.007.308-.227.27-.963.248-1.202-.035zM8.664 14a4.902 4.902 0 01-.076-.448c-.028-.234 2.257-.929 4.073-1.237 1.08-.184 1.271-.531.547-.99-.654-.415-.741-.401-2.213.352-1.493.764-3.015 1.012-4.392.715-3.834-.828-3.85-4.81-.021-5.733 1.164-.281 1.38-.427 1.456-.98.377-2.775 3.638-4.046 6.679-2.605 1.283.608 1.67 1.194 1.72 2.598.02.562.19.677 1.367.932.74.16 1.66.559 2.045.887 1.395 1.187 1.308 3.151-.187 4.198-.727.51-1.279.656-2.96.786-1.136.088-3.4.51-5.03.939-1.63.428-2.983.692-3.008.586z"/>
    </symbol>
    <symbol id="krevetka" xmlns="http://www.w3.org/2000/svg" stroke="currentColor" fill="currentColor" stroke-width="0" viewBox="0 0 24 24">
        <path d="M12.839 22.203c-1.875-.26-4.411-1.352-5.344-2.303-.196-.2-.472-.363-.614-.363-.728 0-4.481-2.994-4.31-3.438.047-.122.406-.254.797-.293.58-.058.682-.154.546-.515-.091-.244-.094-.688-.005-.987.142-.48.229-.514.745-.29.32.139 1.232.834 2.025 1.544 1.055.944 1.793 1.39 2.752 1.66.721.203 1.497.508 1.725.679 1.254.938 3.143-.53 1.964-1.528-.205-.174-.596-.627-.869-1.005-.826-1.15-1.781-1.655-2.895-1.53-.535.059-1.239.18-1.563.27-.448.122-.59.075-.59-.197 0-.223.223-.36.59-.362.91-.004 1.77-.246 1.77-.497 0-.143-.584-.182-1.574-.106-1.97.151-2.041-.121-.127-.484.853-.162 1.377-.366 1.28-.5-.16-.218-.998-.165-2.533.16-.6.126-.696.09-.561-.207.119-.263.505-.359 1.445-.359 1.016 0 1.283-.076 1.283-.365 0-.316-.235-.346-1.751-.226-2.03.16-2.008-.267.024-.461.661-.063 1.203-.184 1.203-.268 0-.085-.657-.723-1.46-1.419-.805-.697-1.76-1.822-2.132-2.508L3.987 5.06l.559-.974C5.164 3.01 5.716 2.75 7.809 2.55c.975-.093 1.657-.023 2.409.246 1.863.669 7.249 5.722 6.781 6.362-.084.115-.456-.173-.827-.64-.371-.467-.771-.882-.89-.922a.344.344 0 01-.215-.305c0-.38-3.99-3.591-5.036-4.053-1.325-.584-1.492-.317-.28.446 1.34.841 4.174 3.32 4.987 4.36.364.465.763.845.888.845a.23.23 0 01.228.232c0 .127.206.419.458.649.682.622 1.442 1.781 1.167 1.781-.132 0-1.075-.929-2.097-2.064-3.825-4.25-7.34-6.798-8.405-6.094-1.134.75-1.37 1.611-.757 2.766.375.706 1.122 1.4 1.507 1.4.399 0 .314-.727-.15-1.288-.552-.666-.388-.985.332-.647.317.15 1.074.503 1.683.786 2.548 1.185 5.588 3.542 6.635 5.145.277.425 1.014 1.257 1.638 1.85C18.49 13.999 19 14.64 19 14.83c0 .19.16.505.357.697.651.64.969 2.273.608 3.129-.634 1.503-1.871 2.844-2.648 2.87-.133.004-.43.152-.662.33-.554.423-2.185.572-3.815.347zm3.074-.503c.316-.153.736-.402.932-.555.196-.152.503-.277.682-.277.394 0 1.198-.91 1.85-2.095.466-.847.467-.915.008-2.056-.261-.649-.632-1.29-.824-1.425-.192-.135-.349-.402-.349-.594 0-.192-.297-.612-.66-.933l-.661-.583-1.054.849c-.858.69-1.248.848-2.092.848-1.258 0-1.304.263-.194 1.12.85.657 2.231 1.032 2.947.8.213-.07.454-.034.537.08.247.338-1.171.517-2.127.269-1.227-.319-1.191.15.079 1.036 1.124.784.972 1.223-.175.506-1.52-.952-2.574-.336-2.26 1.32.128.678.079.858-.235.858-.293 0-.396-.252-.396-.964 0-1.02-.217-1.265-1.744-1.977-1.187-.554-1.637-.482-2.078.335l-.39.72.087-.83c.08-.757-.06-.965-1.556-2.307-1.267-1.138-1.682-1.395-1.806-1.12-.089.196.16.855.56 1.475.864 1.343.7 1.656-.347.665-.417-.395-.911-.675-1.098-.622-.465.13 1.355 1.732 2.868 2.524.648.34 1.651.926 2.228 1.304 1.545 1.01 2.2 1.284 3.8 1.58 1.962.365 2.787.376 3.468.049zm-.573-7.827c1.234-.945.369-2.826-2.184-4.746-.822-.62-1.057-.703-1.25-.444-.2.266-.24.258-.243-.046-.006-.596-.779-.693-1.046-.131l-.235.495-.017-.48c-.01-.265.131-.529.311-.587.339-.11-.4-.669-1.584-1.198-.485-.217-.628-.211-.738.03-.16.351.561 3.535.983 4.342.95 1.822 1.783 2.78 2.716 3.128.789.294 2.705.082 3.287-.363zm-7.35-5.12c0-.075-.472-.535-1.047-1.022-1.285-1.087-1.777-2.296-1.38-3.391.308-.848.183-.984-.354-.385-.552.615-.441 1.98.225 2.772 1.3 1.548 2.555 2.544 2.555 2.026z"/>
    </symbol>
    <symbol id="list" xmlns="http://www.w3.org/2000/svg" viewBox="0 0 24 24" fill="none" stroke="currentColor">
        <path d="M3.021 1.26c-.985 0-1.779.792-1.779 1.777v17.858c0 .985.794 1.777 1.78 1.777h18.011c.986 0 1.778-.792 1.778-1.777V3.037c0-.985-.792-1.777-1.778-1.777z"/>
        <path d="M3.236 3.44c-.13 0-.236.235-.236.527v.168c0 .292.106.527.236.527h17.842c.13 0 .235-.235.235-.527v-.168c0-.292-.104-.528-.235-.528H3.236zm.297 3.337c-.122 0-.222.235-.222.528v.168c0 .292.1.527.222.527h16.76c.123 0 .22-.235.22-.527v-.168c0-.293-.097-.528-.22-.528H3.533zM3.531 10c-.121 0-.219.235-.219.527v.168c0 .293.098.528.22.528h16.593c.121 0 .219-.235.219-.528v-.168c0-.292-.098-.527-.219-.527H3.531zm-.011 3c-.122 0-.221.235-.221.527v.168c0 .293.099.528.22.528h16.643c.122 0 .22-.235.22-.528v-.168c0-.292-.098-.527-.22-.527H3.52zm-.016 3.3c-.122 0-.219.236-.219.528v.168c0 .292.097.53.219.53h16.642c.122 0 .221-.238.221-.53v-.168c0-.292-.099-.527-.22-.527H3.503zm-.582 3.079c-.13 0-.235.235-.235.527v.168c0 .292.104.528.235.528h17.842c.13 0 .236-.236.236-.528v-.168c0-.292-.106-.527-.236-.527H2.922z" fill="currentColor" stroke="none"/>
    </symbol>
    <symbol id="logo" xmlns="http://www.w3.org/2000/svg" viewBox="0 0 128 128">
        <path fill="currentColor" stroke="currentColor" stroke-width="0" d="M12.98 112.508c14.769-16.479 20.273-22.375 41.8-45.882-3.501-4.64-8.027-8.92-12.278-10.822-10.02-.371-14.368-1.887-18.995-5.927-7.452-9.96-14.794-20.043-22.135-30.127.812-1.02 1.725-1.836 2.588-2.703C13.427 27.81 21.534 37.351 29.976 46.94c1.014-1.122 1.826-2.091 2.84-3.162-8.918-9.737-17.543-19.85-26.188-29.944l2.182-2.448c5.616 5.83 18.903 21.431 26.767 30.005.862-.918 1.674-1.836 2.536-2.754-9.015-9.839-18.035-19.677-27.05-29.52.862-.919 1.674-1.837 2.536-2.755 9.02 9.839 18.04 19.682 27.061 29.52 1.015-1.122 1.979-2.193 2.993-3.315C34.35 23.045 25.044 13.528 15.74 4.011c.761-.867 1.573-1.683 2.334-2.55 9.182 7.62 18.167 15.581 27.172 23.507 2.994 3.366 4.414 7.502 4.414 13.056.01 8.625 3.907 16.454 10.867 21.824l1.624 1.224c6.042-2.958 12.759-8.68 15.067-15.57-3.55-17.183.914-26.267 8.143-34.182C95.563.89 111.098-.008 117.916 8.464c6.56 8.828 5.667 23.313-2.84 35.263-8.463 10.205-16.854 12.954-30.273 8.583-5.733 3.06-10.913 9.145-14.292 15.061 13.83 14.934 28.086 29.357 41.728 44.55 3.602 8.395-4.566 11.751-8.827 9.604-13.581-14.122-26.863-28.658-40.155-43.183-13.298 14.663-26.798 29.04-40.282 43.433-5.79 1.887-11.755-3.06-9.985-9.323zM99.452 8.604C86.434 11.206 80.706 23.767 82 37.727c3.551-12.103 11.07-21.89 17.452-29.123z"/>
    </symbol>
    <symbol id="meat" xmlns="http://www.w3.org/2000/svg" stroke="currentColor" fill="currentColor" stroke-width="0" viewBox="0 0 24 24">
        <path d="M12.859 20.38c-.451-.11-1.288-.516-1.86-.903-1.07-.723-2.895-2.95-2.897-3.533-.001-.18-.083-.329-.182-.329-.099 0-.472-.667-.83-1.482-.357-.815-1.164-2.054-1.792-2.753C3.71 9.612 3.322 8.848 3.32 7.483c-.001-1.004.112-1.285.824-2.038.713-.753.987-.873 2.004-.873.648 0 1.307.148 1.463.329.206.237 1.376.328 4.218.328 4.424 0 4.843.13 6.678 2.073 1.632 1.728 1.987 2.767 1.987 5.815 0 2.323-.064 2.752-.553 3.681-.713 1.353-1.672 2.472-2.627 3.063-.867.537-3.245.814-4.455.52zm4.525-1.534c1.911-1.293 3.063-4.525 2.553-7.163-.291-1.508-1.006-3.026-1.852-3.937-1.407-1.514-4.476-2.402-6.535-1.892-1.63.403-3.245.358-3.778-.107-.25-.218-.93-.386-1.562-.386-1.516 0-2.199.723-2.204 2.334-.004 1.066.097 1.263 1.362 2.662.751.83 1.366 1.643 1.366 1.807 0 .163.096.296.213.296.116 0 .277.236.356.524.08.289.265.675.414.859.148.184.474.806.725 1.382.492 1.132 2.154 3.182 3.074 3.79 1.496.992 4.272.911 5.868-.169zm-5.315-.695c-1.296-.787-1.742-1.215-2.373-2.273-.302-.506-.617-.98-.7-1.052-.083-.072-.23-.427-.326-.788-.097-.362-.239-.717-.316-.79-.077-.072-.324-.55-.548-1.062-.225-.512-.857-1.34-1.403-1.84-.547-.5-1.153-1.286-1.345-1.746-.326-.777-.32-.881.1-1.496.646-.949 1.099-1.025 2.58-.437 1.166.464 1.511.49 3.059.24 4.195-.683 6.793.558 7.848 3.748 1.627 4.92-2.7 9.852-6.576 7.496zm2.544-4.315c.138-.106.369-.452.513-.77.865-1.895-2.565-4.033-3.934-2.452-.456.526-.456.545-.033 1.453.71 1.524 2.55 2.466 3.454 1.77zM12.7 12.66c-.38-.211-.505-.476-.455-.966.093-.924.727-.994 1.449-.16.481.556.542.76.319 1.07-.32.446-.591.457-1.313.056z"/>
    </symbol>
    <symbol id="ok" xmlns="http://www.w3.org/2000/svg" fill="currentColor" stroke="currentColor" stroke-width="0" viewBox="0 0 24 24">
        <path d="M1 12l10 11L23.302 5.988 21 1 10.754 18 4 9z"/>
    </symbol>
    <symbol id="person" xmlns="http://www.w3.org/2000/svg" fill="currentColor" viewBox="0 0 24 24">
        <path d="M11.71 1.237c-4.178.097-4.204 2.83-4.205 6.318.001 2.868 1.288 4.476 3.134 5.206l.146.826c-8.072.106-8.579 6.022-9.511 9.675h21.512c-1.483-5.826-3.533-9.538-9.897-9.666l.02-.778c2.095-.95 2.9-2.838 3.004-5.263 0-3.489-.449-6.38-4.204-6.318z"/>
    </symbol>
    <symbol id="persons" xmlns="http://www.w3.org/2000/svg" fill="currentColor" viewBox="0 0 24 24">
        <path d="M8.037 1.23c-4.176.098-4.202 2.831-4.203 6.319.001 2.868 1.287 4.475 3.133 5.205l.146.826c-2.598.034-4.406.676-5.703 1.645v8.03h17.703v-.001h3.87V15.72c-1.121-.823-2.547-1.327-4.434-1.362l.017-.625c1.833-.762 2.538-2.276 2.63-4.222 0-2.8-.393-5.12-3.678-5.07-3.656.077-3.677 2.27-3.678 5.07 0 2.301 1.125 3.592 2.74 4.177l.129.663a9.718 9.718 0 00-2.648.38c-1.266-.705-2.84-1.102-4.844-1.142l.02-.777c2.094-.95 2.9-2.84 3.003-5.264 0-3.489-.448-6.38-4.2-6.319h-.003z"/>
    </symbol>
    <symbol id="phone" xmlns="http://www.w3.org/2000/svg" fill="currentColor" stroke="currentColor" stroke-width=".5" viewBox="0 0 24 24">
        <path d="M19.276 23.15c-5.389-1.898-10.462-6.097-14.037-10.474C3.37 10.341.703 6.001.804 4.904.703 3.144 5 0 6.25 1.402c1.21 1.052 2.08 2.036 3.071 3.1C10.61 5.908 8.31 6.782 8 8c1.021 3.07 4.356 5.74 6.709 7.47 1.48.759 2.167-1.295 3.384-1.583 1.323.113 4.419 3.21 5.035 3.828.834.836-2.51 5.907-3.852 5.434z"/>
    </symbol>
    <symbol id="piza" xmlns="http://www.w3.org/2000/svg" stroke="currentColor" fill="currentColor" stroke-width="0" viewBox="0 0 24 24" height="1em" width="1em">
        <path d="M5.589 19.069c-.152-1.715-.926-3.292-1.32-4.955-.887-3.174-1.796-6.343-2.62-9.534-.292-1.246 1.544-.447 2.198-.493 3.71.568 7.403 1.242 11.107 1.852 2.194.3 4.355.804 6.546 1.118 1.168-.267 1.222.977.736 1.703-.946 2.228-2.37 4.27-4.289 5.767-2.907 2.43-6.376 4.206-10.06 5.102-.704.05-1.822.546-2.27-.172a2.04 2.04 0 01-.028-.388zm3.618-.356c2.045-.74 4.105-1.503 5.907-2.747 2.209-1.442 4.217-3.26 5.568-5.547.529-.756 1.199-1.688.844-2.648-.683-.483-1.779-.665-2.542-.58-.677 1.117-1.085 2.394-1.96 3.392-2.577 3.206-6.351 5.36-10.349 6.235l-.997.246c.222.692.375 1.413.708 2.062.803.184 1.65-.101 2.437-.284l.2-.063zM9 15.68c.813-.16 1.33-.796 2.109-.939 2.566-1.432 4.893-3.442 6.367-6.01.482-.677.66-1.982-.514-1.961-3.022-.586-6.085-.943-9.095-1.6-1.396-.257-2.832-.225-4.208-.617l-1.258-.287c.2 1.203.326 2.441.881 3.544.482 1.696.741 3.453 1.336 5.12.36 1.172.705 2.348 1.055 3.524 1.128-.172 2.243-.41 3.327-.774zm-.974-1.54c-.755-.45-.593-1.538-.413-2.27.297-1.04 1.581-1.494 2.532-1.133.128.668.402 1.323 1.263 1.248 1.062-.004 1.21 1.484.153 1.643-.799-.016-1.72-.276-2.181.6-.417.284-.939.087-1.354-.088zm1.418-1.226c.665-.26 1.813.797 2.29-.088-.473-.871-1.816-.214-2.322-.82.45-.653-.152-1.08-.69-.564-.614.491-.868 2.228-.043 2.368.289-.265.567-.555.765-.896zm-3.462-1.27c-.904-.448-.05-1.79.796-1.596.868.101 1.347 1.156.34 1.51-.33.288-.758.22-1.136.086zm.978-.669c.057-.992-1.418.337-.338.326a.726.726 0 00.338-.326zm5.075-.049c-.911-.292-1.848-1-1.71-2.073-.132-1.153.927-1.928 1.945-2.122 1.306-.294 3.006-.008 3.709 1.253.589 1.3-.48 2.74-1.76 3.048a3.313 3.313 0 01-2.184-.106zM15 10c.908-.628.72-1.966-.244-2.425-1.268-.917-3.451-.567-3.976 1.032-.119.92.765 1.893 1.696 1.947.868.088 1.874.154 2.524-.554zm-2.607-.44c.412-1.023 1.494.639.287.349-.188.005-.445-.126-.287-.349zm1.42-.814c.941-.948.543.805 0 0zm-1.62-.719c.028-.89 1.651.173.471.321-.23.102-.524-.028-.471-.32zM6.296 9.286c-.433-.393-.655-.972-1.404-.855-.727-.074-1.696-1.06-.84-1.644.712-.667 1.942.238 2.263-.905.853-.628 2.144.155 2.081 1.2.148.868-.05 1.923-1.03 2.173-.336.21-.715.162-1.07.031zm1.377-1.105c.583-.577.233-1.3-.217-1.819-.197-.507-.368-.178-.538.156-.406 1.004-1.563.471-2.36.614-.742.732.994.69 1.452.679.841-.12.284 1.743 1.235.911.167-.159.304-.347.428-.54z"/>
    </symbol>
    <symbol id="piza2" xmlns="http://www.w3.org/2000/svg" stroke="currentColor" fill="currentColor" stroke-width="0" viewBox="0 0 24 24">
        <path d="M10.411 22.816c-1.484-.205-4.31-1.47-4.512-2.02-.061-.169-.208-.306-.326-.306-.41 0-1.712-1.72-2.406-3.178-.947-1.989-1.278-4.205-.94-6.287.144-.884.339-1.714.433-1.845.094-.131.248-.506.343-.833.222-.771 1.313-2.27 2.455-3.373 1.896-1.831 4.789-2.767 7.596-2.458 1.652.182 1.878.47 1.322 1.694-.205.45-.373 1.008-.373 1.239 0 .23-.46 1.892-1.02 3.692-.562 1.8-1.022 3.322-1.022 3.382 0 .207.829.109 1.832-.217.552-.18 1.821-.509 2.82-.732.997-.223 2.457-.572 3.242-.775.785-.202 1.48-.313 1.545-.245.065.068.173.697.241 1.399.262 2.702-.755 5.714-2.626 7.777-1.379 1.52-2.15 2.056-3.773 2.617-1.712.592-3.016.718-4.83.469zm3.365-.754c.687-.166 1.605-.478 2.042-.693 1.923-.948 3.85-3.088 4.614-5.121.454-1.21.723-4.306.416-4.777-.4-.612-.72-.007-.72 1.363 0 2.352-.983 4.652-2.648 6.195-1.362 1.262-1.377 1.272-2.342 1.662-2.445.986-4.923.896-6.979-.254-1.661-.929-2.75-2.078-3.675-3.876-.686-1.335-.734-1.584-.74-3.81-.004-1.748.092-2.57.361-3.095.202-.393.368-.793.368-.89.001-.097.148-.365.326-.595l.946-1.216c1.413-1.811 3.842-2.894 6.491-2.894 1.367 0 1.767-.076 1.767-.335 0-.221-.385-.39-1.134-.498C9.21 2.7 5.66 4.73 3.636 8.508c-.4.744-.976 3.23-.976 4.207 0 .967.467 2.942 1.012 4.284.32.788 2.326 3.116 3.315 3.85.983.728 3.371 1.485 4.748 1.504.436.006 1.355-.125 2.041-.291zM15 20c1.136-.528 3.087-2.262 3.087-2.745 0-.185.088-.337.195-.337.382 0 1.166-2.662 1.166-3.96v-1.3l-.85.15c-.469.082-1.31.29-1.872.46-.562.17-1.863.5-2.893.733-1.21.274-1.872.536-1.872.742 0 .487-.86.378-1.126-.143-.314-.615-.296-.967.049-.969.32 0 .835-1.294 1.418-3.57.219-.851.537-1.885.709-2.298.171-.413.312-1.029.312-1.369 0-.606-.032-.619-1.532-.61-1.036.005-1.825.156-2.439.467-.499.253-1.035.464-1.19.469-.157.004-.284.115-.284.246a.243.243 0 01-.247.238c-.45 0-2.215 2.115-2.73 3.27-.73 1.642-.722 4.931.018 6.597.612 1.377 2.419 3.314 3.604 3.863 1.881.872 4.68.9 6.477.066zm-6.323-1.205c-1.252-.367-1.873-1.908-1.164-2.889.428-.591.665-.516.503.16-.189.789.033 1.286.747 1.673.649.352 1.24.173 1.78-.539.25-.328.284-.312.284.132 0 .983-1.14 1.76-2.15 1.463zm3.437-.069c-.146-.4.523-1.094 1.056-1.094.44 0 .508.722.107 1.143-.37.388-1.013.36-1.163-.049zm1.835-1.562c-.21-.257-.29-.527-.18-.599.112-.072.267-.022.345.111.231.392 1.15.278 1.556-.193.467-.543.485-1.558.035-2.03-.452-.475-.43-.649.056-.467 1.237.46 1.576 1.879.721 3.019-.594.793-1.946.878-2.533.16zm-8.09-2.368c-.414-.276-.15-.974.367-.97.628.006 1.052.386.898.806-.152.416-.765.496-1.264.164zm11.717-.754c-.88-.538-.257-1.428.646-.921.625.351.71.823.187 1.034-.43.172-.348.183-.833-.113zM7.061 11.736c-.829-.581-.906-2.094-.151-2.973.503-.586 1.973-.552 2.556.06.648.68.578 1.092-.106.622-.307-.211-.75-.384-.985-.384-1 0-1.564 1.704-.821 2.483.266.28.28.373.056.37a1.152 1.152 0 01-.549-.178zm3.13-3.675c-.434-.456-.33-1.143.174-1.143.425 0 .916.63.916 1.175 0 .344-.752.322-1.09-.032z"/>
    </symbol>
    <symbol id="rect" xmlns="http://www.w3.org/2000/svg" viewBox="0 0 24 24" fill="none" stroke="currentColor" stroke-width="1">
        <path d="M3.021 1.26c-.985 0-1.779.792-1.779 1.777v17.858c0 .985.794 1.777 1.78 1.777h18.011c.986 0 1.778-.792 1.778-1.777V3.037c0-.985-.792-1.777-1.778-1.777z"/>
    </symbol>
    <symbol id="rogalik" xmlns="http://www.w3.org/2000/svg" stroke="currentColor" fill="currentColor" stroke-width="0" viewBox="0 0 24 24">
        <path d="M8.176 20.19c-.997-.33-3.247-1.706-3.247-1.985 0-.097-.24-.291-.533-.43-.677-.324-1.362-1.853-1.725-3.847-.338-1.867-.05-3.824.757-5.126a8.25 8.25 0 00.776-1.77c.307-1.1 1.206-2.176 2.315-2.77.683-.367 1.255-.412 4.255-.34 3.696.09 4.646.314 5.8 1.373.338.31.997.775 1.464 1.033.468.258.9.602.962.763.061.162.227.294.368.294.14 0 .584.505.985 1.12.768 1.18.99 2.674.449 3.028-.154.101-1.214.152-2.356.113-1.141-.04-2.075.022-2.075.135 0 .271-1.912 1.24-2.447 1.24a.959.959 0 00-.664.314c-.137.173-.653.441-1.148.596-.494.155-1.147.542-1.45.86-.304.318-.658.578-.787.578-.53 0-.182 1.028.584 1.723 1.364 1.237 2.098 2.009 2.094 2.203-.02 1.049-2.426 1.54-4.377.895zm3.592-.59c.325-.282.29-.381-.336-.98-.384-.367-.748-.667-.809-.667-.304 0-1.473-1.61-1.586-2.183-.154-.779-1.217-1.443-1.987-1.241-.643.17-2.121 2.011-2.121 2.645 0 .566 1.692 1.904 3.13 2.476 1.164.462 3.15.435 3.71-.05zm-6.84-3.656c0-.16.358-.62.794-1.02.915-.841 1.938-.954 3.155-.35.704.35.807.35 1.322-.004.378-.26.605-.685.702-1.318.167-1.095.534-1.254.534-.231 0 .387.078.704.172.704.416 0 1.843-1.228 2.273-1.957.639-1.082.65-3.308.022-4.568-.891-1.789-1.738-2.441-3.709-2.859-2.28-.483-4.448.46-5.376 2.338l-.294.595 1.862-.003c1.46-.003 1.955.085 2.295.407.24.226.502.411.585.411.341 0 1.31 1.302 1.728 2.323.384.935.062.834-.545-.171C9.355 8.428 8.108 7.62 6.404 7.62c-1.063 0-2.144.443-2.147.88 0 .162-.084.294-.184.294-.1 0-.403.53-.673 1.176-.755 1.811-.639 3.469.45 6.405.23.62.263.634.66.257.23-.218.419-.527.419-.688zm10.582-4.039c1.158-.712 1.646-1.824 1.646-3.744 0-1.389-.08-1.765-.449-2.12a6.006 6.006 0 00-3.403-1.594l-1.308-.158.692.533c.917.708 1.529 1.722 2.017 3.343.38 1.26.381 1.402.024 2.587-.207.69-.377 1.323-.377 1.409 0 .272.47.168 1.158-.256zM20.5 11c.173-.473-.257-2.206-.548-2.206-.119 0-.22-.132-.224-.294-.006-.161-.46-.64-1.01-1.064l-1-.77v1.637c0 .9-.102 1.703-.225 1.782-.509.33-.212.823.505.839.4.009.93.107 1.177.218.706.318 1.175.267 1.325-.142z"/>
    </symbol>
    <symbol id="salad" xmlns="http://www.w3.org/2000/svg" stroke="currentColor" fill="currentColor" stroke-width="0" viewBox="0 0 24 24" height="1em" width="1em">
        <path d="M8.717 19.875c-.058-.078-.07-.214-.07-.732v-.636l-.355-.117c-.946-.313-2.177-.957-2.869-1.501C4.11 15.856 3.3 14.61 3.044 13.236c-.099-.533-.094-1.358.01-1.594.062-.143.33-.382.511-.455a2.65 2.65 0 00-.198-.283c-.437-.582-.645-1.148-.799-2.171-.164-1.084-.387-1.789-.593-1.87-.31-.122-.243-.602.085-.602.25 0 1.136.312 1.636.576.276.145.515.247.531.226.017-.02.072-.238.122-.484.116-.56.126-1.031.027-1.287-.081-.21-.05-.356.1-.454.107-.07.234-.01.566.267a4.502 4.502 0 011.352 1.96c.168.501.235.473.203-.084-.082-1.42.7-2.506 1.942-2.697.193-.03.693.034.852.109.038.018.095-.038.151-.15.1-.197.249-.302.428-.302.077 0 .526.323 1.353.977.68.537 1.255.963 1.278.946.023-.017.041-.073.041-.125 0-.19.277-.764.526-1.092.633-.83 1.58-1.034 2.424-.523.546.331.922.903 1.053 1.604l.05.263.176-.173c.82-.805 1.806-.814 2.54-.024l.147.16.255-.109c.78-.331 1.461-.238 2.334.32.75.478 1.194 1.329 1.194 2.284 0 1.077-.793 2.48-1.701 3.007-.187.108-.233.158-.21.227.066.203.07.898.01 1.328-.272 1.895-1.605 3.591-3.695 4.7-.448.236-1.309.599-1.74.732l-.183.056v.631c0 .56-.01.643-.086.736-.085.104-.143.106-3.517.106-3.269 0-3.434-.005-3.502-.097zm6.59-.885v-.35l-.14.036c-1.027.263-2.633.392-3.785.304-.708-.054-1.705-.198-2.102-.303l-.118-.032v.694h6.144zm-1.29-.73c2.757-.429 5.038-1.694 6.17-3.424.251-.383.569-1.073.641-1.39l.027-.119h-6.456c-5.946 0-6.461-.007-6.534-.087a.31.31 0 010-.405c.072-.08.605-.088 6.585-.1l6.507-.014v-.394c0-.367-.008-.399-.108-.46-.15-.094-17.083-.1-17.25-.008-.103.058-.11.083-.11.475v.413h1.426c1.266 0 1.434.01 1.504.087.098.109.1.27.008.397-.067.09-.169.096-1.44.096-1.287 0-1.368.006-1.368.095 0 .155.35.962.566 1.307.295.47.845 1.083 1.32 1.471 1.477 1.207 3.383 1.923 5.74 2.157.46.046 2.258-.018 2.772-.098zm-4.386-1.006a6.55 6.55 0 01-1.987-.736c-.285-.163-.372-.319-.295-.526.077-.21.21-.211.571-.01.694.388 1.49.637 2.282.712.26.025.489.073.526.112.086.087.085.34-.001.446-.084.104-.561.105-1.096.002zM6.356 15.57c-.283-.266-.32-.524-.094-.65.131-.074.208-.041.44.187.206.203.236.37.096.542-.121.149-.217.132-.442-.08zM4.78 11.092c0-.133-.18-.792-.29-1.06-.16-.394-.392-.747-.645-.981-.165-.153-.225-.244-.225-.34 0-.147.137-.34.242-.34.124 0 .349.207.633.583.328.435.581 1.032.73 1.718.084.39.115.47.193.484.09.016.092 0 .092-.503 0-.895-.19-1.499-.672-2.125A3.928 3.928 0 003.611 7.48c-.379-.213-.803-.399-.831-.364-.01.011.03.204.088.428.058.225.146.686.196 1.026.106.73.173.993.352 1.383.183.398.617.92.897 1.081.257.147.466.173.466.059zm4.33-1.496l.011-1.542H6.596l-.025.409a4.752 4.752 0 01-.378 1.544c-.15.354-.168.439-.168.778v.382l1.536-.014 1.536-.014zm1.857 1.52c0-.028-.038-.083-.085-.124-.261-.224-1.01-1.436-1.157-1.873-.031-.093-.074-.169-.095-.169-.043 0-.052 2.127-.009 2.18.045.056 1.346.042 1.346-.015zM12 11a1.6 1.6 0 01.165-.324l.109-.16-.105-.084c-.997-.798-1.671-1.828-1.893-2.893-.187-.9-.03-1.594.36-1.594.115 0 .391.194 1.342.946l1.197.946.116-.248c.064-.136.104-.264.088-.284-.052-.068-3.37-2.679-3.404-2.679-.055 0-.215.576-.285 1.028-.227 1.455.332 3.362 1.368 4.672.347.438.744.84.83.84.031 0 .081-.075.112-.166zm3.306.148c0-.01-.135-.13-.301-.27l-.301-.252-.515.19c-.926.342-.927.34.161.345.526.002.956-.003.956-.013zm5.668-.064c.406-.117.757-.37 1.099-.792.529-.652.78-1.32.743-1.971-.038-.653-.313-1.176-.807-1.537-.788-.574-1.556-.655-2.233-.234-.117.073-.24.133-.274.133-.033 0-.157-.114-.276-.252-.327-.383-.61-.552-.974-.58-.395-.03-.69.104-1.1.497l-.303.292-.442-.037c-1.306-.11-2.35.434-2.714 1.415-.056.15-.16.557-.233.904-.143.691-.31 1.174-.54 1.566-.082.14-.134.255-.117.255.018 0 .187-.074.376-.164.19-.09.575-.251.858-.358l.514-.194.095-.325c.263-.901.677-1.549 1.19-1.859.31-.187.463-.186.547.005.09.206.015.352-.272.528-.342.21-.638.592-.825 1.068-.08.205-.143.378-.138.384.005.007.258-.057.563-.14.305-.084.897-.23 1.316-.323l.761-.171.129-.32c.333-.83.946-1.433 1.61-1.586.123-.028.172-.013.244.075.18.222.082.484-.21.56-.218.055-.537.265-.727.475-.187.208-.416.592-.379.638.014.017.389-.031.834-.106 1.024-.174 1.528-.242 1.785-.243.172 0 .214.02.277.138.066.123.067.152.01.276-.077.168-.064.165-1.493.377-.598.09-1.144.176-1.213.193l-.125.03.16.158c.261.255.568.42.867.465.29.044.39.129.39.333 0 .195-.125.297-.364.297-.436 0-.982-.321-1.475-.868-.225-.25-.228-.252-.45-.217-.34.054-2.141.503-2.21.55-.073.05.287.298.823.57l.346.174h2.04c1.671 0 2.092-.014 2.317-.079zm-8.33-1.456c-.264-.267-.166-.692.18-.778.112-.029.143-.067.166-.206.024-.145.011-.185-.085-.268-.232-.2-2.09-1.655-2.15-1.682-.09-.043-.035.625.083.992.227.71.822 1.564 1.447 2.079l.288.237.078-.143c.076-.14.075-.146-.008-.231zm-1.03-1.08c-.12-.188-.113-.395.018-.546.15-.173.35-.165.48.02.124.177.128.344.011.526-.068.107-.127.139-.254.139-.128 0-.186-.032-.255-.14zm-5.603.297a3.127 3.127 0 00-.23-1.891c-.144-.317-.712-1.115-.793-1.115-.02 0-.037.08-.037.178 0 .17-.164 1.027-.247 1.293-.035.113.004.179.397.659.34.416.472.623.604.94.189.454.207.45.306-.064zm1.475-1.833c0-.484.11-.823.366-1.133.278-.336.497-.436.953-.433l.395.003.029-.207c.034-.25.005-.279-.33-.326-.719-.103-1.472.436-1.715 1.226-.075.246-.09.385-.076.727.01.233.032.453.05.488.018.035.099.064.18.064h.148v-.409zm1.701.238a9.046 9.046 0 01-.055-.636c-.031-.543-.066-.59-.425-.553-.514.053-.824.596-.692 1.215l.031.145h1.169zm4.525-1.348c.101-.243.346-.52.56-.631.195-.103.623-.099.825.007.202.107.397.31.507.53.085.168.096.173.314.148a1.45 1.45 0 00.238-.038 1.766 1.766 0 00-.078-.31c-.116-.381-.43-.781-.76-.97-.215-.124-.302-.142-.656-.142-.356.001-.44.02-.648.144-.448.268-.837.888-.922 1.469-.027.187-.022.195.223.384l.251.192.03-.289c.017-.159.07-.381.116-.494zm.693.468c.147-.086.362-.185.477-.221.234-.074.254-.114.113-.226-.27-.213-.608-.116-.794.227-.085.156-.132.375-.08.375.01 0 .138-.07.284-.155z"/>
    </symbol>
    <symbol id="sauce" xmlns="http://www.w3.org/2000/svg" fill="currentColor" stroke="currentColor" stroke-width="0" viewBox="0 0 24 24">
        <path d="M7.508 20.286c-.523-.993.346-2.036.83-2.839-1.45-1.459-2.55-3.28-3.21-5.235-.772-1.882-1.116-3.97-2.275-5.673-.42-.769-1.629-1.1-1.718-1.969.887-.536 2.085-.28 2.957.19 2.242 1.224 4.205 2.927 6.53 4.005 2.33.692 4.957.573 7.14-.541.815-.242.229 1.32.226 1.791-.234.385-.099 1.586.328.708.37-1.308 1.084-2.799 2.546-3.114 1.256-.257 2.144 1.007 2.287 2.117.415 2.877-2.065 5.797-4.95 5.95-1.031-.045-2.26.615-2.398 1.711.064.393.026 2.134-.448 1.123-.322-.547.36-1.97-.317-1.98-.204.298-.822.61-.788.954.562.806 1.247 1.918.635 2.866-.852.495-1.954.205-2.904.304-1.356-.026-2.721.071-4.069-.096a.56.56 0 01-.402-.272zm7.088-.845c.022-.907-1.283-1.474-.809-2.423.596-.856 1.4-1.563 1.93-2.475 1.082-1.55 1.518-3.425 1.895-5.247-.478-.364-1.665.665-2.48.488-1.959.069-4.073.207-5.803-.891-2.012-1.116-3.74-2.697-5.811-3.703-.439-.19-1.725-.38-.785.271 1.463 1.477 1.797 3.627 2.506 5.502.764 2.074 1.549 4.31 3.312 5.76.74.629.102 1.482-.361 2.038-.679.752-.194 1.304.698 1.12 1.902.062 3.805.028 5.708.037v-.477zm-8.527-8.553c-.105-.702-.911-1.9-.235-2.34.403.744.453 1.653.805 2.435.278.39.499 1.961-.143 1.018a9.193 9.193 0 01-.427-1.113zm12.22 4.054c1.355-.112 2.666-.768 3.433-1.913.937-1.237 1.427-3.21.298-4.482-.884-.861-2.136.11-2.628.94-.756 1.05-.57 2.394-.826 3.588-.83.657.078-1.91-.865-1.322-.516.974-.81 2.063-1.405 3.004-.22.42-1.04 1.583-.138.886.613-.464 1.39-.598 2.132-.701z"/>
    </symbol>
    <symbol id="shashlyk" xmlns="http://www.w3.org/2000/svg" stroke="currentColor" fill="currentColor" stroke-width="0" viewBox="0 0 24 24">
        <path d="M4.656 21.057c.012-.084.621-.833 1.353-1.665.972-1.104 1.278-1.621 1.133-1.916-.11-.222-.118-.703-.02-1.07.152-.567.314-.641 1.089-.499 1.033.19 1.19-.068.51-.837-.257-.291-.38-.609-.271-.706.108-.097.365.073.572.377.556.818.727.722.717-.401-.012-1.233.676-1.979 1.577-1.71.827.245 1.058-.43.312-.914-.671-.435-.596-1.173.162-1.591.338-.187.658-.136 1.155.185.76.49 1.173.244.687-.408-.516-.694-.262-1.041.315-.43.566.6.627.551.713-.56.07-.897.625-1.47 1.326-1.368.348.051.813-.226 1.214-.724.502-.622.837-.779 1.47-.686.614.09.884-.027 1.068-.46.343-.805-.094-1.582-.83-1.472-.659.099-.746-.379-.103-.57.506-.15 1.199.428 1.408 1.176.247.884-.5 1.91-1.383 1.899-1.088-.013-2.044.884-2.01 1.885.036.997-.644 1.684-1.538 1.554l-.635-.093.466.819c.337.592.366.805.106.767-.198-.03-.467-.229-.598-.443-.4-.657-.598-.132-.278.737.338.92.031 2.118-.59 2.303-.242.072-.504-.185-.682-.667-.43-1.167-.762-1.03-.77.316-.006.997-.097 1.225-.624 1.553-.362.225-.841.28-1.158.13-.686-.322-.78.196-.162.895.257.291.38.609.272.706-.108.097-.382-.097-.609-.43-.472-.696-.9-.528-.536.21.143.292.13.79-.032 1.236-.242.662-.369.718-1.124.497-.786-.23-.944-.143-2.087 1.15-1.106 1.25-1.65 1.67-1.585 1.225zm4.454-3.203c.055-.376-.37-1.133-.917-1.634-.137-.126-.406-.06-.598.147-.277.298-.263.519.066 1.058.467.767 1.36 1.031 1.449.429zm2.25-2.755c.907-.269.464-2.018-.49-1.939-.554.046-.854.899-.541 1.534.256.52.423.586 1.032.405zm2.698-2.119c.106-.73-1.052-2.266-1.79-2.373-.839-.123-.803.373.076 1.062.413.323.846.93.962 1.346.234.835.627.817.752-.035zm2.21-4.047c.056-.382-.1-.644-.45-.758-.394-.128-.556-.027-.617.386-.044.307-.018.663.06.79.266.438.922.166 1.007-.418z"/>
    </symbol>
    <symbol id="snack" xmlns="http://www.w3.org/2000/svg" stroke="none" fill="currentColor" stroke-width="0" viewBox="0 0 24 24">
        <path d="M4.043 19.467c-1.099-.452-1.85-1.363-1.861-2.255l-.008-.727h3.03c2.668 0 3.013-.042 2.888-.354-.11-.272-.185-.289-.326-.07-.147.228-.37.224-1.142-.02C5.89 15.81 5.6 15.8 5.39 16c-.333.319-1.816.35-1.816.038 0-.123-.141-.224-.314-.224-.622 0-1.121-.817-1.044-1.712l.073-.86 5.374-.119 5.374-.118-5.432-.05c-3.431-.03-5.432-.131-5.432-.273 0-.143 2.07-.223 5.743-.223h5.743l1.208.769c.664.423 1.408 1.127 1.653 1.566.245.438.551.796.68.796.275 0 2.963-2.673 2.963-2.946 0-.102.6-.185 1.332-.185 1.5 0 1.466.362-.047.506l-.934.09.977.037c1.188.046 1.343.362 1.009 2.051-.175.884-.167 1.244.032 1.361.384.227.098 1.647-.43 2.145-.24.225-.83.585-1.311.8-.781.349-1.7.39-8.404.373-6.154-.014-7.677-.08-8.345-.355zm17.49-1.005c.857-.803.942-1.693.15-1.567l-1.228.192c-.491.077-.968-.011-1.344-.247-.533-.334-.644-.336-1.295-.013-.664.329-.762.323-1.46-.09-.573-.34-.852-.388-1.185-.21-.24.129-.87.178-1.4.11-.686-.088-1.077-.024-1.364.224-.612.53-2.313.636-3.268.202-.642-.292-1.392-.356-3.596-.306l-2.785.064.048.645c.047.634.577 1.287 1.247 1.54.187.07 4.026.136 8.532.146l8.191.018zm-9.284-2.23c.64-.655.711-.677 1.105-.336.572.496 1.573.462 1.96-.067.34-.465.704-.364.946.265.197.51 1.274.512 1.863.003.426-.37.463-.369.755.013.208.272.625.407 1.286.416 1.032.013 1.483-.272 1.743-1.103.153-.489.11-.504-1.484-.504-1.297 0-1.73.088-2.06.417-.23.23-.657.536-.949.682-.475.237-.572.194-.934-.416l-.405-.68-4.848-.001c-4.154-.001-4.848.046-4.848.334 0 .414 1.406.466 1.823.067.218-.209.28-.182.28.122 0 .74 1.063 1.489 2.115 1.489.784 0 1.099-.134 1.652-.701zm-7.17-.636c1.034-.376.671-.677-.816-.677-1.436 0-1.67.261-.605.673.666.257.724.258 1.42.004zm10.412-1.34c0-.562-1.16-.679-6.746-.679-5.632 0-6.367.083-5.987.671.192.299 12.733.307 12.733.008zm6.853-.101c.153-.382-.31-.578-1.364-.578-.657 0-1.517.453-1.517.8 0 .052.62.095 1.377.095.973 0 1.414-.093 1.504-.317zM2.57 12.05c-.289-.053-.396-.3-.396-.909 0-2.727 3.685-5.763 7.476-6.158l2.362-.244c.72-.074 2.035-.015 2.92.13 4.372.722 8.097 3.91 7.758 6.638l-.073.58-9.825.018c-5.404.01-10.004-.015-10.222-.055zm19.756-.618c.362-.346-.734-2.307-1.95-3.486-1.371-1.333-2.161-1.748-4.65-2.445-5.273-1.477-11.478.875-12.926 4.9-.183.507-.276.976-.207 1.042.172.164 19.562.153 19.733-.011zm-13.622-.999c-.53-.507-.436-1.235.22-1.714.524-.382.826-.353 1.274.121.504.533.494 1.366-.022 1.74-.573.417-.92.382-1.472-.147zM10 10c.187-.565-.024-.897-.572-.897-.535 0-.81.625-.454 1.035.383.442.855.378 1.026-.138zm-5.023.246c0-.489.487-.736.932-.474.434.257.108.897-.457.897-.31 0-.475-.147-.475-.423zM18.516 9.2c-.275-.317-.26-.41.103-.665.561-.393 1.12-.162 1.032.427-.09.594-.713.725-1.135.238zm-5.276-.878c-.081-.202-.035-.475.102-.606.356-.34 1.03-.029.937.433-.103.515-.852.64-1.039.173zM9.808 6.776c-.07-.172.018-.5.194-.727.3-.386.346-.389.717-.039.218.206.333.533.256.727-.176.437-.996.465-1.167.04z"/>
    </symbol>
    <symbol id="sosiska" xmlns="http://www.w3.org/2000/svg" stroke="currentColor" fill="currentColor" stroke-width="0" viewBox="0 0 24 24">
        <path d="M4.168 18.436c-.75-1.411-.884-1.494-1.373-.843-.9 1.198-1.117.864-1.118-1.722L1.675 13.4c1.242 1.03 1.782 1.588 1.989.15C4 13 4 12 6.419 12.27 9.921 12.66 15 10 17.457 6.262 18.21 5.113 19 5 20.069 5.22c.89.183.716.561 1.058-.758.405-1.564.712-1.603.968-.126.108.625.393 1.529.633 2.01.385.768.386.906.009 1.16C21 7 21.083 8.123 21.075 9.22c0 1.911-1.646 4.438-4.43 6.803-3.053 2.594-4.865 3.39-8.42 3.698C6.562 19.805 4 19 4.167 18.436zm7.994-.372c2.132-.883 5.33-3.462 7.117-5.74 1.689-2.172 1.986-9.48-1.504-5.41-1.577 1.84-1.634 1.983-1.457 3.644.102.952.066 1.73-.08 1.73-.145 0-.343-.692-.439-1.537-.158-1.384-.235-1.48-.785-.963-.48.452-.575.884-.443 2.041.093.818.043 1.468-.113 1.468-.154 0-.282-.284-.284-.63-.01-1.375-.476-2.019-1.061-1.468-.423.397-.54.948-.469 2.198l.096 1.667-.421-1.597c-.327-1.242-.555-1.537-1.02-1.323-.485.223-.565.54-.423 1.676.096.77.054 1.532-.094 1.693-.148.16-.347-.386-.441-1.214-.137-1.203-.32-1.506-.91-1.506-.694 0-.727.11-.542 1.84.14 1.317.103 1.739-.131 1.484-.18-.195-.327-.782-.327-1.305 0-1.334-.458-1.692-2.359-1.843-1.42-.113-1.703.016-1.973.903-.37 1.217-.597 3.48.474 4.186 1.427.942 5.036 1.064 7.59.006zm-9.19-2.272c0-.261-.13-.475-.288-.475-.158 0-.288.354-.288.787 0 .433.13.647.288.475.158-.172.287-.526.287-.787zm18.965-9.533c0-.261-.13-.615-.288-.787-.158-.171-.287.042-.287.475s.13.787.287.787c.158 0 .288-.213.288-.475z"/>
    </symbol>
    <symbol id="soup" xmlns="http://www.w3.org/2000/svg" stroke="currentColor" fill="currentColor" stroke-width="0" viewBox="0 0 26 26">
        <path d="M1.087 17.062c-.33-1.646 1.055-3.006 2.489-3.698 4.954-2.5 10.353-2.118 14.585-1.124 1.501 0 2.42-1.318 3.613-1.981.676-.831 1.987-.174 1.218.737-.6.839-2.481 1.157-2.187 2.35 4.216 2.212 2.68 4.879-1.32 7.26-3.114 2.685-6.49 3.37-10.356 2.652-2.475-.866-7.643-3.939-8.042-6.196zm15.289 4.281c-6.446 1.096-8.313-.443-8.997.163-.129.764 2.433 1.093 3.711 1.239 3.995.105 5.808-.556 5.286-1.402zm-.222-.673c6.553-1.266 8.396-5.762 3.103-6.883-1.367.95 1.236 1.323 1.297 2.374.425 1.317-.949 2.33-2.074 2.805-3.898 1.34-8.14 1.174-11.823.254-3.844-1.017-3.849-3.569-1.102-4.58 3.37-1.317 7.315-1.41 10.617-.898.676.293 2.038-.398.802-.785-2.25-.632-4.65-.717-6.977-.544-4.747.32-11.873 3.507-5.185 7.244 3.595 1.498 7.818 1.734 11.342 1.013zM6.5 17.79c.189-1.276.216-1.992 1.282-2.404 1.25-.566 2.587-.924 3.897-1.341-2.504-.093-5.743.2-7.181 2.068-.541 1.79 1.746 2.542 2.002 1.676zM11.943.567c-.94 4.563 4.691 7.218.953 10.11-2.75-2.998-4.41-5.95-.953-10.11z"/>
    </symbol>
    <symbol id="tea" xmlns="http://www.w3.org/2000/svg" stroke="currentColor" fill="currentColor" stroke-width="0" viewBox="0 0 24 24">
        <path d="M8.23 22.815c.054-.454.96-1.003-.099-1.072-1.744-.291-3.52-.845-4.91-1.964-.507-.6.125-1.095.504-.329 1.793 1.587 4.317 1.656 6.571 1.947 2.828.214 5.726-.082 8.403-1.037 1.301-.65 1.367-1.246 2.137-1.27.491.589-1.347 1.335-2.117 1.811-1.141.535-2.38.873-3.642.88.15.298.834 1.402.048.968-.767-.7-1.91-.566-2.87-.737-1.253-.098-2.544.122-3.637.757-.122.045-.258.092-.388.046zm-.839-6.219C5.99 15.067 5 12.963 5.358 10.857c.347-1.24 1.875-.601 2.809-.812 3.093-.097 6.192-.035 9.284-.003.959.072 1.212 1.29 2.266.814 1.269-.265 2.887.725 2.26 2.16-.387 1.2-1.784 1.311-2.756 1.812-1.356.537-2.38 1.615-3.418 2.597-.828.873-1.502 2.036-1.357 3.279-.406.646-1.783.125-2.582.302-.762-.166-2.079.327-2.478-.41.099-1.688-1.062-2.931-1.995-4zm10.353-2.962c-.66-1.022-2.083-.44-3.092-.626-2.695.008-5.394-.081-8.085.107-1.205.52.312 1.882.716 2.568.964 1.146 2.315 2.147 2.569 3.72-.216 1.445 1.69 1.033 2.57 1.026.711.003 1.52.133 1.55-.762.597-2.677 3.23-4.053 3.772-6.033zm2.537.201c1.244-.094 1.8-2.046.448-2.45-1.302-.62-2.333.772-2.39 1.945.291 1.288 1.092 1.081 1.942.505zM18 12.5c0-.32-3.517-.183-5.275-.244-2.152-.017-4.31-.024-6.456.162.196.449 1.614.169 2.25.29 3.327.013 8.889-.012 9.481-.208zm0-1.25c.255-.777-.34-.813-.916-.75H6.044V12H18zm-6.614-1.985c.957-.873.297-2.256-.357-3.09-.85-.578-1.624-1.617-.872-2.614.015-.602 1.572-1.103.807-.323-.905.953-.205 2.192.628 2.886.685.834 1.239 2.13.511 3.108-.16.2-.7.525-.717.033zm1.526-1.25c.902-.825.36-2.146-.21-2.994-.606-.798-1.528-1.943-.62-2.881.094-.633 1.455-.78.774-.076-1.036.766-.669 1.926.232 2.575.743.969 1.168 2.417.4 3.484-.178.24-.476.133-.576-.108z"/>
    </symbol>
    <symbol id="vegetables" xmlns="http://www.w3.org/2000/svg" fill="none" stroke="currentColor" stroke-width="0.5" viewBox="0 0 24 24">
        <path d="M8.252 21.574c-1.13-.582 3.522-5.768 5.019-7.65.619.137 1.546 1.727 1.954 1.002-.433-.573-1.04-1.017-1.567-1.519 1.015-1.284 1.987-2.597 3.055-3.846 2.012.047 4.57 2.236 4.745 3.987-.818.785-1.904 1.318-2.885 1.929-.77.188-1.535-1.848-2.168-1.016.375.729 2.28 1.444.688 1.974-.773.268-1.562 1.527-2.366 1.024-.427-.215-1.452-1.672-1.65-.832.402.675 1.742 1.188.636 1.932-1.581.676-4.85 3.28-5.46 3.015zM3.12 17.441c-.997-.742-1.443-1.906-1.955-2.942-.96-2.106-.8-4.555.393-6.56.58-1.033 1.353-1.97 2.223-2.821.511-.422 1.528-.006.974.8C3.59 7.477 3.499 9.444 3.478 11.26c.103 1.993.44 4.108 1.841 5.731-.574.479-1.452.865-2.199.449zm4.91-.288c-1.927-.742-3.074-2.563-3.41-4.276-.354-2.257-.497-4.376.751-6.427.79-1.266 2.521-1.336 2.843-1.787C7.803 3.51 6.769 2.049 7.157.84c.68-.658 2.427-.482 2.867.35.07 1.077-.177 2.256-.43 3.3-.094.667.653.579 1.247 1.156 1.6 1.897 1.44 4.424 1.186 6.663-.373 2.103-2.121 5.38-3.997 4.843zm4.938-8.403c-.155-1.338-.564-2.666-1.38-3.804.68-.682 2.648-.166 3.202.79a6.783 6.783 0 011.3 3.285c-.976 1.343-1.694 2.562-3.05 3.954-.576.252.06-3.345-.072-4.225zm7.013 2.238c-.387-.731.647-1.715.195-2.58-.11-.349-.98-1.44-.062-1.127.745.617.696 1.567.688 2.4.79-.678 1.52-1.417 2.378-2.027.837.224-.72 1.145-1.032 1.55-.334.353-1.445 1.042-.274.881 1.224-.079 2.792.26 1.711.99-1.158-.68-2.496-.427-3.604-.087zM17.104 8.68c-.16-.903-.477-1.779-.865-2.623 1.337-.06 2.151 1.201 2.468 2.221-.011.256.493 1.335-.344.998a2.861 2.861 0 01-1.259-.596z"/>
    </symbol>
</svg>