<svg xmlns="http://www.w3.org/2000/svg" fill="currentColor" viewBox="0 0 24 24">
   <path
      d="M16.164 15.589c-.831.177-.914-.176-.277-.606 1.098-.718-1.53-.536-.213-1.113 1.129-.282-.973-.63-1.207-.994-5.755-2.62-6-7.737-.59-9.3C19 1.89 26.014 4.713 22.645 9.878c-1.367 1.768-3.412 2.936-5.478 3.863 1.167.224.644.533-.005.903.5.412 1.265 1.15.053.96-1.191.965.822 2.436.824 3.617-.114 1.21-1.317 2.334-.674 3.591-.207.812-.798.279-.987-.64-.19-.92 1.004-2.136 1.008-3.222-1.151-1.757-1.081-2.185-1.223-3.361zm3.891-4.051c1.682-1.157 3.156-3.244 2.333-5.248-.247-.717-.978-1.437-1.708-1.606 1.807 1.377 1.7 4.017.38 5.66-.014.222-1.703 1.684-1.005 1.194zM7.52 20.427c-.766-1.295.261-2.603.567-3.84-.105-1.293-1.245-2.315-1.283-3.6-.975.118-.777-.284-.156-.756.748-.526-1.478-.5-.405-1.028 1.27-.185-.825-.612-1.191-.998C3.061 9.095.959 7.568.579 5.287.387 3.24 2.292 1.621 4.216 1.034c2.899-.945 6.5-.602 8.754 1.482 1.262.826.207.856-1.056 1.478-3.426 1.81-2.48 5.14-1.6 5.924-.39.308-2.482.87-2.19 1.266 1.3.14.045.684-.322.835.423.323 1.358 1.202.162.933-1.014.108-.149 1.464.136 1.975.482.723.849 1.656.35 2.463-.572.955-.794 2.181-.349 3.114-.159.12-.51.155-.58-.078zM4.294 1.625c-3.035.652-4.285 3.81-1.617 6.488-1.928-4.24-.52-4.996 1.617-6.488z" />
</svg>