<svg xmlns="http://www.w3.org/2000/svg" fill="currentColor" stroke="currentColor" stroke-width="0" viewBox="0 0 24 24">
   <path
      d="M6.95.611C5.6.61 4.254.78 4.09 1.13c-.329.7-.184 2.623.774 2.662a.894.894 0 00-.065.318c-.086 6.011-2.533 5.428-3.542 7.541-1.01 2.114 0 11.012 0 11.012 0 .505.41.912.922.912h9.397a.917.917 0 00.925-.912s.944-9.586.054-11.055c-.89-1.468-3.707-2.626-3.525-7.498a.894.894 0 00-.065-.318c.989-.167 1.239-1.98.872-2.662C9.654.788 8.299.613 6.949.61zm2.86 13.582c.261-.003.484.21.471.467l-.148 2.94a.476.476 0 01-.472.464H3.908a.471.471 0 01-.471-.464l-.074-2.86c-.006-.258.21-.461.472-.465zm9.428 1c-1.458-.001-2.869.026-3.623.09-.1 1.604 1 3.626 2.903 5.002.624.485.69 1.012.733 1.547-.073.266.104.57-.38.826-.59.048-1.961-.03-2.03.352.748.375 6.195.208 5.577-.1-.487-.227-1.568-.076-2.1-.27-.436-.255-.272-.666-.35-.968.099-.422.115-.98.82-1.361 2.526-1.4 2.559-3.18 2.367-5.028-.95-.057-2.458-.088-3.917-.09zm-.056.432c.93-.003 1.92.016 3.045.027.066 1.243-.065 2.882-1.777 4.112a3.485 3.485 0 01-.398.148c-1.755.482-3.417-3.57-3.557-4.193a36.163 36.163 0 012.687-.094z" />
</svg>