<svg xmlns="http://www.w3.org/2000/svg" stroke="currentColor" fill="none" stroke-width="1" viewBox="0 0 24 24">
   <path
      d="M6.692 10.79C8.63 8.976 11.03 7.88 10.811 5.47l-.19-1.95 4.406-.055c-.44 1.778-.705 3.472.12 4.317C19.777 11.871 20 14 20 21.541c-5.42.147-9.579 0-15 .049 0-3.59-.425-8.47 1.692-10.8zm12.095 7C19 13 16.88 13.974 13.181 13.928c-5.306-.067-5.876-.028-6.463.442-.721.576-.714 3.087.01 3.485.588.324 11.285.268 12.06-.063zM11.452 2.76C10.22 1.037 10.428.647 12.625.557c2.365-.097 3.7.303 2.594.777-.396.17-.72.574-.72.899 0 .459-.335.59-1.5.59-.826 0-1.522-.028-1.547-.063z" />
</svg>