<svg xmlns="http://www.w3.org/2000/svg" fill="currentColor" stroke="currentColor" stroke-width="0" viewBox="0 0 24 24">
   <path
      d="M1.736 22.21c-.59-1.994-.353-4.101-.458-6.15-.008-1.811.044-3.627.27-5.427C2.658 9.47.455 8.33 1.238 7.12c.766-1.169 2.217-1.656 3.48-2.139.915-.367 2.163-.05 2.66-1.101.536-.815.978-1.86 2.03-2.126 2.753-1.207 5.87-.502 8.599.406 1.917.66 4.019 1.534 5.05 3.366.475 1.317-.716 2.48-.64 3.796-.973 3.293-1.731 6.511-2.947 9.468-.973.917-1.864 1.868-1.978 3.231-1.054.934-2.658.348-3.954.554-3.844.05-7.7.034-11.53-.294l-.137-.031zm15.063-10.887c-.998-.682-1.677-2.126-.315-2.764.53-1.447-1.276-2.336-2.42-2.718-3.67-.504-9.118-1.013-11.675 1.379-.688 1.226 1.997 2.296.434 3.436-.69 3.46-.6 7.277-.32 10.53 4.61.915 9.967.368 14.3.328.353-3.37.474-7.078-.004-10.191zm2.374 5.324c.77-2.28 1.434-4.595 2.143-6.894-.555-.959-.556-2.355.683-2.724.716-1.242-.808-2.28-1.74-2.877-2.585-1.617-5.758-2.227-8.789-1.967-1.06.142-2.153.551-2.821 1.412.824 1.32 2.658.616 3.925 1.102 1.798.3 3.778.8 4.94 2.292.827 1.18-1.2 2.258-.19 3.3.625 1.483.278 3.119.364 4.676 0 1.127.035 2.262.262 3.37.832.636.904-1.327 1.223-1.69z" />
</svg>