<svg xmlns="http://www.w3.org/2000/svg" stroke="none" fill="currentColor" viewBox="0 0 24 24">
   <path
      d="M12.118 20.974c.169-.238 1.378-.432 2.688-.432h2.38v-6.984c0-6.02-.096-7.017-.692-7.216-1.442-.48-3.204-.192-5.59.913-1.357.629-2.468 1.024-2.468.878 0-.146-.401.108-.892.566-.49.457-1.081.83-1.312.83-.241 0-.42 1.622-.42 3.798 0 2.279-.176 3.798-.438 3.798s-.438-1.479-.438-3.676c0-3.596-.545-5.884-1.64-6.89-.68-.622-.711-2.052-.06-2.618.27-.233.72-.822 1.003-1.31.42-.727.865-.888 2.465-.896 1.073-.005 2.151-.119 2.396-.252.655-.358 5.56.006 6.072.45.241.21.868.381 1.392.381.524 0 1.156.214 1.404.475.715.75 1.114 3.2.57 3.492-.954.511-.495 1.35.738 1.35.669 0 1.653.266 2.188.591.873.53.972.916.972 3.768v3.177l-1.829 1.358c-1.006.748-1.99 1.36-2.187 1.36-.198 0-.359.394-.359.876 0 1.612-.986 2.265-3.716 2.461-1.823.132-2.448.062-2.227-.248zm8.306-5.119l1.55-1.27-.209-2.757c-.115-1.517-.318-2.911-.451-3.098-.43-.602-3.253-.403-3.253.23 0 .348.408.57 1.047.57 1.244 0 1.578.616 1.578 2.913 0 1.427-.218 1.879-1.312 2.712-1.274.97-1.734 1.97-.907 1.97.224 0 1.105-.572 1.957-1.27zm-1.079-1.549c.759-.793.427-4.207-.409-4.207-.5 0-.687.567-.786 2.374-.13 2.356.205 2.87 1.195 1.833zM7 8c.157-.523.476-.703.991-.561.417.115 1.008-.051 1.312-.37.304-.317 1.02-.577 1.593-.577.633 0 1.04-.223 1.04-.57 0-.674 3.477-.81 4.815-.189 1.055.49 1.38.017 1.03-1.501-.235-1.02-.446-1.181-1.42-1.083-.728.073-1.411-.16-1.88-.645-.646-.665-.856-.696-1.693-.253-.685.363-1.089.39-1.429.095-.692-.601-1.656-.503-2.274.232-.51.604-.587.604-1.283 0-.408-.354-1.008-.643-1.335-.643-.78 0-1.968 1.048-1.968 1.736 0 .298-.197.542-.438.542-.699 0-.505 1.9.219 2.141.36.12.656.6.656 1.064C4.936 8.917 6.584 9.381 7 8zM5.823 20.365c-.293-.306-.464-.728-.381-.937.082-.209.378.042.656.557.577 1.068.493 1.183-.275.38zm2.451-2.956c-.436-1.413-.313-5.98.162-5.98.26 0 .438 1.392.438 3.417 0 3.496-.135 4.07-.6 2.563zm2.787-2.563c0-2.025.178-3.418.438-3.418.259 0 .437 1.393.437 3.418 0 2.025-.178 3.418-.437 3.418-.26 0-.438-1.393-.438-3.418zm3.063 0c0-2.025.178-3.418.437-3.418.26 0 .438 1.393.438 3.418 0 2.025-.179 3.418-.438 3.418-.26 0-.437-1.393-.437-3.418z"
      stroke="none" />
</svg>