<svg xmlns="http://www.w3.org/2000/svg" stroke="currentColor" fill="currentColor" stroke-width="0" viewBox="0 0 24 24">
   <path
      d="M16.68 21.3c-.891-.163-2.774-.475-4.185-.693-9.037-1.397-9.68-1.516-10.09-1.87-.418-.36-.795-7.881-.427-8.501.115-.193.979-.604 1.92-.915.942-.311 1.827-.652 1.969-.758.14-.105.478-.191.749-.191.289 0 .609-.265.774-.64.407-.924 1.048-1.457 1.752-1.457.357 0 .665-.17.737-.408.117-.389.125-.389.155 0 .017.224.169.408.338.408.168 0 .588.262.932.582.81.755 1.183.737 1.222-.058.02-.394.08-.484.155-.233.084.278.396.41.981.415 1.205.011 2.094.729 2.265 1.827.138.889.201.935 2.791 2.042 1.737.743 2.702 1.294 2.8 1.6.202.63.191 8.021-.013 8.679-.146.47-.322.521-1.684.497a23.354 23.354 0 01-3.141-.325zm4.102-.296c.222-.122.31-1.021.287-2.91-.034-2.684-.048-2.742-.792-3.315-.416-.32-.875-.582-1.02-.582-.143 0-.393.445-.555.99a27.45 27.45 0 01-.401 1.269c-.069.178.302.312 1.026.37.873.072.762.097-.487.11-2.55.028-3.337-.136-3.177-.662.185-.612-.629-1.611-1.313-1.611-.31 0-1.023.314-1.585.699-.77.527-1.28.691-2.064.667-.624-.019-.798-.072-.433-.133.646-.107.792-.408.32-.66-.157-.084-.397-.404-.533-.712-.192-.437-.441-.559-1.13-.553-.487.004-1.12.162-1.41.35-.744.486-1.037.433-1.927-.35-1.125-.99-2.113-.93-2.782.168-.286.469-.255.527.297.556l.617.031-.623.103c-.965.16-.632.855.491 1.026L4.53 16l-1.012.03c-1.013.03-1.013.031-1.013 1.063 0 1.272.514 1.764 1.844 1.764.547 0 1.419.108 1.938.239.519.131 1.611.333 2.428.447 2.247.314 5.91.885 7.425 1.156 1.245.223 2.418.362 3.78.447.297.019.685-.045.862-.142zm-1.874-3.01a4.45 4.45 0 011.215 0c.334.055.06.1-.608.1-.668 0-.942-.045-.607-.1zm-2.562-.47c.41-.053 1.018-.051 1.35.004.332.055-.003.1-.746.097-.742-.001-1.014-.047-.604-.1zm-2.838-.23a4.45 4.45 0 011.215 0c.334.056.06.102-.608.102-.668 0-.942-.046-.607-.101zm-2.7-.465a4.45 4.45 0 011.215 0c.334.055.06.1-.608.1-.668 0-.942-.045-.607-.1zm-2.7-.233a4.45 4.45 0 011.215 0c.334.055.06.1-.608.1-.668 0-.942-.045-.607-.1zm-2.97-.467a4.45 4.45 0 011.215 0c.334.056.06.101-.608.101-.668 0-.942-.045-.607-.1zm7.968-.002c.41-.054 1.018-.052 1.35.003.332.055-.003.099-.746.097-.742-.001-1.014-.047-.604-.1zm-5.67-.7c.41-.053 1.018-.051 1.35.004.332.055-.003.099-.746.097-.742-.001-1.014-.047-.604-.1zm-2.7-.232c.41-.054 1.018-.052 1.35.003.332.055-.003.099-.746.097-.742-.001-1.014-.047-.604-.1zm13.429-.075c0-.706.607-1.39 1.234-1.39.212 0 .619.202.904.447.646.559.832.407.832-.682 0-1.018-.314-1.28-2.7-2.251-2.461-1.002-2.847-1.081-3.314-.678-.688.594-1.71.682-2.61.224-.454-.232-.826-.556-.826-.721 0-.355-.59-.396-.97-.068-.694.598-2.791.055-3.182-.824-.2-.451-1.46-.224-3.645.658l-1.721.695.152 1.276c.172 1.431.292 1.63.787 1.288.866-.599 1.509-.555 2.357.16.921.778 1.72.9 2.346.36.222-.192.695-.35 1.05-.35.666 0 2.016 1.052 2.016 1.571 0 .162.05.294.113.294.062 0 .29.058.505.13.216.071.562-.007.77-.175.207-.168.782-.5 1.276-.74.76-.366.999-.388 1.535-.14.35.16.708.578.796.927.09.349.42.873.735 1.165l.574.531.493-.525c.271-.29.493-.821.493-1.182zm-.742-2.795c-.335-.115-.608-.266-.608-.334 0-.277 2.094-.1 2.58.218.494.321.468.342-.42.335-.52-.004-1.218-.103-1.552-.219zm-7.088-.7c-.52-.105-1.856-.257-2.97-.336-3-.213-4.05-.37-4.05-.608 0-.274 1.98-.264 3.393.018.605.12 2.475.331 4.158.468 3.565.29 4.877.695 2.169.669-.965-.01-2.18-.104-2.7-.21zM15 10c.896-.903.4-2.157-.97-2.454-.765-.166-.944.078-.401.546.252.217.222.28-.135.28-.252 0-.459-.158-.459-.35 0-.775-.951-.163-1.121.722-.052.269.078.767.29 1.107.305.493.579.618 1.357.618.642 0 1.133-.16 1.439-.469zm-3.932-.954c.527-.753.292-1.724-.506-2.092-.515-.238-.56-.214-.427.226.117.386.027.493-.42.493-.442 0-.496-.063-.244-.28.441-.38.407-.652-.081-.652-.63 0-1.485.87-1.485 1.511 0 1.496 2.273 2.066 3.163.794zm1.47-3.937c0-.32.06-.451.136-.29a.783.783 0 010 .582c-.075.16-.136.029-.136-.292zm-2.452-.135c.013-.272.077-.327.163-.141.078.168.069.369-.02.446-.09.078-.154-.06-.143-.305zm.523-.44c-.005-.275 1.327-1.289 1.694-1.289.146 0-.086.233-.514.517-.428.284-.868.624-.977.757-.116.14-.2.147-.203.015zm2.464-.357c0-.192.104-.559.232-.815.146-.294.232-.337.232-.117 0 .193-.104.56-.232.816-.146.294-.232.337-.232.116zm.61-1.343c-.43-.249-.37-1.686.072-1.686.24 0 .36.311.36.932 0 1.011.004 1.005-.432.754z" />
</svg>