<svg xmlns="http://www.w3.org/2000/svg" fill="currentColor" stroke="currentColor" stroke-width="0" viewBox="0 0 24 24">
   <path
      d="M10.242 1.215a.22.22 5.025 00-.144.05l-6.782 5.7a.22.22 5.025 00-.027.31l.451.54a.22.22 5.025 00.31.027l6.782-5.7a.22.22 5.025 00.025-.312l-.45-.537a.22.22 5.025 00-.165-.078zm3.21 1.451a.22.22 75.825 00-.2.107l-.36.604h-.001a.22.22 75.825 00.078.303l7.611 4.527a.22.22 75.825 00.303-.076l.361-.604a.22.22 75.825 00-.076-.3l-7.615-4.53a.22.22 75.825 00-.102-.031zM.638 9a.26.26 0 00-.237.26v1.152a.26.26 0 00.26.262h22.59a.26.26 0 00.26-.262v-1.15a.26.26 0 00-.26-.262H.66A.26.26 0 00.64 9zm.548 2.607c-.306 0-.653.27-.562.563l3.293 10.275c.09.292.256.565.56.565l15.061-.031c.306 0 .489-.265.563-.561l3.125-10.248c.074-.297-.257-.563-.563-.563H1.187z" />
</svg>