<svg xmlns="http://www.w3.org/2000/svg" stroke="currentColor" fill="currentColor" stroke-width="0" viewBox="0 0 24 24">
   <path
      d="M9.616 20.85c-1.139-.445-1.77-.874-1.77-1.202 0-.143-.332-.41-.738-.593-1.732-.78-2.129-1.02-2.648-1.596-.543-.601-.863-1.276-.691-1.455.049-.05.322.226.607.614s.939.906 1.453 1.152c.514.246 1.098.534 1.296.64.688.367 3.581.78 5.44.776 3.863-.008 7.138-.978 8.349-2.472.61-.753.625-1.335.051-2.04-.415-.511-1.288-1.105-1.412-.962-.203.234-.292 1.376-.116 1.49.368.236.226 1.07-.235 1.373-1.378.906-2.298 1.07-6.047 1.077-3.093.006-3.785-.05-4.621-.377-1.235-.483-1.405-.641-1.098-1.025.205-.256.084-.35-.793-.621-.569-.175-1.234-.514-1.479-.753-.252-.245-.577-.38-.75-.312-.368.147-.391-.144-.059-.747.135-.245.246-.756.246-1.135 0-.526.104-.73.441-.86.37-.144.49-.074.742.433.386.774.515.761.957-.09.902-1.74 3.125-3.091 5.457-3.316 1.278-.123 1.512-.215 2.12-.828.787-.794 2.178-1.49 2.978-1.49.396 0 .723-.215 1.165-.765L19.076 5l.373.47c.379.477.33 1.147-.074.995-.498-.186-.91.285-.911 1.043-.001.417-.134 1.022-.295 1.344-.397.79-.37.96.252 1.594.295.3.692 1.007.883 1.57.206.605.498 1.073.714 1.144.846.28 1.983 1.706 1.985 2.492.003.8-.669 1.71-1.768 2.399-.595.372-1.328.737-1.628.811-.3.074-.847.48-1.215.904-.943 1.083-2.239 1.47-4.844 1.448-1.41-.012-2.323-.126-2.932-.364zm6.178-.632c1.22-.543 1.202-.927-.033-.694-1.195.226-4.756.228-6.097.004-.877-.146-1.017-.126-.922.13.227.614 1.484.92 3.856.941 1.873.017 2.46-.053 3.196-.38zM11.189 8.095c0-.739 1.74-2.045 3.048-2.288 1-.187 1.868-.64 1.868-.976 0-.625.438-.72.906-.196l.466.521-.637.366c-.35.201-1.057.574-1.57.828-.514.254-.935.537-.935.628 0 .091-.098.166-.217.166-.12 0-.387.223-.593.496-.27.355-.555.488-1.012.471-.35-.013-.79.05-.98.14-.247.116-.344.072-.344-.156z" />
</svg>