<svg xmlns="http://www.w3.org/2000/svg" fill="currentColor" stroke="currentColor" stroke-width="0" viewBox="0 0 24 24">
   <path
      d="M.753 21.952c-.19-1.495.394-2.968.876-4.36.594-1.592 1.558-3.314 1-5.051-.371-.994-1.126-2.087-.701-3.172.673-.893 1.957-.788 2.96-.893 1.84-.01 3.714-.151 5.528.213 1.28.35.788 1.985.403 2.857-.255.495-1.476 1.892-.474 1.942 2.491-1.469 4.427-3.675 6.615-5.534 1.402-1.157 2.75-2.512 4.495-3.129 1.023-.369 1.76.76 1.719 1.668.044 1.142-1.159 1.714-1.877 2.396-2.47 1.858-5.045 3.634-7.868 4.915-1.34.071-1.915 1.304-1.714 2.517.015 1.81.31 3.605.378 5.41-.224 1.273-1.875.996-2.85 1.153-2.368.077-4.754.34-7.118.065-.586-.085-1.213-.368-1.372-.997zm10.481-1.067c-.44-2.147-1.922-3.913-2.421-6.038-.292-1.602.823-2.978 1.083-4.502-.985-.394-2.13-.275-3.187-.346-1.442-.009-2.885-.002-4.327-.004.594 1.154 1.413 2.217 1.763 3.478.156 1.46-.701 2.776-1.199 4.095l-1.771 4.047c2.86-.043 5.735.132 8.582-.215.474-.124 1.177-.08 1.477-.515zm11.33-13.729c.268-1.367-1.314-1.197-2.037-.542-2.462 1.437-4.833 3.107-6.806 5.176-.365.295-.73 1.181.07.678C16.63 11.1 19.34 9.46 21.933 7.67c.218-.162.436-.325.632-.514zm-18.883-.77c-.304-1.272.2-2.587.62-3.782.126-.577.929-1.992.814-.616-.108 1.517-.21 3.142-1.008 4.471-.114.183-.368.124-.426-.072zm2.345-.652c.03-1.503.123-3.093.85-4.438 1.005-.617.967 1.708.335 2.173-.677 1.17-.897 2.512-1.174 3.814l-.011-1.55zm1.863-.3c.312-1.547 1.089-2.962 1.8-4.358.304.11-.316 1.63-.333 2.21-.373.847.113 3.02-1.293 2.71-.14-.15-.173-.365-.174-.561z" />
</svg>