<svg xmlns="http://www.w3.org/2000/svg" stroke="currentColor" fill="currentColor" stroke-width="0" viewBox="0 0 24 24">
   <path
      d="M9.426 22.639c-1.451-.33-1.704-.457-2.564-1.295-.497-.484-1.44-1.058-2.096-1.274-3.262-1.077-4.246-3.842-1.993-5.598.904-.704 1.114-1.08 1.52-2.727.75-3.042 2.638-5.54 5.03-6.655.655-.306 1.349-.105 1.349.39 0 .471.8 1.127 1.387 1.138.284.005.884-.394 1.335-.887.637-.698.938-.841 1.36-.644 2.524 1.177 4.604 3.875 5.155 6.688.229 1.168.502 1.774.96 2.127 2.044 1.575 2.404 3.26 1.003 4.695-.46.47-1.458 1.075-2.219 1.344-.76.269-1.608.736-1.882 1.038-1.135 1.251-2.12 1.589-4.95 1.696-1.524.058-3.052.042-3.395-.036zm5.9-.919c.299-.1.489-.353.423-.565-.092-.293-.426-.314-1.416-.088-.712.163-2.332.215-3.599.117-2.306-.18-3.208.202-1.37.58.514.105 1.046.247 1.183.315.32.16 4.065-.122 4.778-.359zm1.2-1.772c2.171-.455 3.711-1.07 4.728-1.887.867-.696.8-2.223-.12-2.788-.549-.336-.632-.314-.699.189-.09.68-1.632 2.47-2.128 2.47-.191 0-.839.217-1.439.48-1.594.702-7.564.679-9.709-.038-1.972-.659-3.213-1.72-3.213-2.748 0-.414-.146-.749-.327-.749-.443 0-1.417 1.146-1.417 1.668 0 .757.296 1.388.65 1.388.19 0 .347.121.347.27 0 .404 2.127 1.261 4.234 1.706 2.514.531 6.657.549 9.093.039zM11.56 5c-.701-.629-.305-1.734.622-1.734.64 0 .73.11.73.884 0 .525-.16.96-.393 1.07-.502.236-.433.252-.96-.22z" />
</svg>