<svg xmlns="http://www.w3.org/2000/svg" stroke="currentColor" fill="currentColor" stroke-width="0" viewBox="0 0 24 24">
   <path
      d="M14.899 23.121c-.226-.185-.486-1.057-.59-1.973-.41-2.249-.628-2.78-2.583-4.729-.586 1.788-1.222 3.622-2.128 5.236-.867 1.525-.945 1.59-1.82 1.52-1.254-.1-1.288-.649-.164-2.65l.916-1.631c1.667-5.08-.191-7.458.326-11.224l2.278-.127c1.253-.07 2.44-.085 2.636-.033 1.017 1.6.856 2.159 1.35 4.369l1.994.117c1.898.111 1.993.145 1.993.701 0 .571-.055.586-2.35.653-2.834.082-2.835.086-1.366 3.159 1.1 2.303 1.814 6.08 1.252 6.636-.408.404-1.237.392-1.744-.024zm1.287-12.345c-.165-.165-.344-1.194-.398-2.288l-.098-1.987 3.188-.066c3.823-.08 3.856-.056 3.73 2.7l-.084 1.809-3.019.066c-2.19.047-3.1-.017-3.319-.234zM9.71 6.396c-2.73-.917-1.997-4.36.91-4.267.596.02 1.948.036 3.006.037 1.56.002 1.922.072 1.922.372 0 .645-.531 1.215-1.274 1.368-.396.082-.72.3-.72.484 0 1.499-2.097 2.594-3.844 2.007z" />
</svg>