<svg xmlns="http://www.w3.org/2000/svg" stroke="currentColor" fill="currentColor" stroke-width="0" viewBox="0 0 24 24">
   <path
      d="M6.883 20.118c-.132-.079-.434-.844-.67-1.701-.754-2.728-1.024-3.286-1.754-3.632-.853-.404-1.933-1.92-1.96-2.75-.036-1.163 1.496-3.247 2.812-3.824.306-.134.526-.412.526-.665 0-.603 1-1.771 1.92-2.243.422-.216 1.503-.54 2.403-.72.9-.18 2.018-.491 2.486-.692l.85-.365.14.432c.22.683.168 1.171-.184 1.734-.18.287-.267.572-.194.633.298.248 1.882.097 2.185-.208.174-.175.717-.529 1.206-.786.797-.42 1.107-.462 3.022-.412 1.507.04 2.163.131 2.235.312.08.2-.097.221-.799.097-1.573-.277-2.947-.174-4.132.309-1.237.503-1.593.933-1.048 1.265.428.262 1.125 1.351 1.125 1.759 0 .163.316.49.702.728.944.582 1.64 1.836 1.611 2.904-.039 1.447-.355 1.952-1.903 3.039-.421.295-.685.762-.882 1.558-.406 1.642-.959 3.063-1.256 3.228-.142.079-2.045.143-4.23.143-2.184 0-4.08-.064-4.211-.143zm8.51-.97c.656-2.093.958-3.107.958-3.215 0-.066-.306-.113-.68-.104-.785.019-1.004.323-1.412 1.96-.287 1.154-.712 1.672-.712.869 0-.255.166-.869.368-1.363.202-.495.333-1.135.292-1.423l-.075-.523-.579.393c-.504.342-.59.581-.668 1.874-.07 1.157-.167 1.482-.441 1.482-.294 0-.322-.186-.173-1.12.289-1.81.276-1.893-.3-1.961-.51-.06-.526-.013-.526 1.6 0 1.4-.056 1.646-.35 1.552-.274-.087-.351-.473-.351-1.74 0-1.451-.053-1.652-.488-1.846-.702-.314-.78-.135-.48 1.108.147.61.267 1.462.267 1.894 0 1.257-.489.564-.618-.876-.167-1.857-.265-2.117-.796-2.117-.66 0-.763.383-.374 1.38.512 1.315.649 1.932.428 1.932-.255 0-.743-.882-.743-1.344 0-.736-.538-1.61-1.1-1.789-.807-.256-1.006-.078-.729.651.132.347.338 1.103.458 1.679.39 1.872.141 1.777 4.64 1.777h3.955zm-1.685-3.987c.172-.112.454-.102.744.028 1.648.735 4.074-.574 4.572-2.467.387-1.468-2.037-4.142-2.545-2.808-.432 1.136-3.45 1.333-4.471.293-.848-.864-.784-2.314.138-3.155.385-.352.7-.849.7-1.104 0-.254.106-.517.234-.583.239-.123.335-1.072.11-1.072-.069 0-.502.132-.964.292-.461.161-1.139.293-1.506.293-.999 0-2.56.58-3.466 1.287-.76.593-.803.697-.79 1.887.015 1.253.47 2.295 1.216 2.784.178.116.276.333.217.48-.173.433-1.177-.67-1.735-1.905L5.67 8.32l-.863.74c-2.427 2.084-2.349 4.003.226 5.545 1.352.81 2.714.98 3.947.491.628-.248.919-.283 1.037-.123.091.122.58.343 1.088.49.92.266 1.903.152 2.603-.302zM9.49 12.18c-.112-.244.032-.272.852-.17 1.417.178 1.637.464.357.464-.741 0-1.115-.091-1.209-.294zM15.7 10c.769-.614.902-1.84.265-2.429-.468-.43-1.016-.465-1.016-.064 0 .161-.161.293-.358.293-.288 0-.309-.078-.106-.394.525-.818-.293-1.019-1.538-.377-1.517.781-1.498 2.462.038 3.325.857.482 1.827.355 2.715-.354zm-1.86-1.55a.458.458 0 01-.293-.405c0-.26.073-.251.48.057.408.307.554.324.958.114.262-.137.543-.194.623-.127.38.317-1.04.606-1.768.36z" />
</svg>