<svg xmlns="http://www.w3.org/2000/svg" fill="currentColor" stroke="currentColor" stroke-width="0" viewBox="0 0 24 24">
   <path
      d="M4.787 22.206c-.69-3.216-1.462-7.712-2.054-10.948-.681-.045-1.413.128-2.049-.153-.236-.877-.551-2.901.93-2.606.31-.121 1.1.259 1.015-.261.752-4.818 6.323-4.771 9.812-4.9.178-.898.288-2.196 1.404-2.33 2.042-.204 4.01-.321 6.093-.168.012.393.281 1.014-.417.996-1.76.064-2.976.198-4.81.217-.718.202-.642.59-.793 1.407 3.161.315 6.313.452 7.485 5.036.636.048.947-.05 1.52.29.428 1.03.52 2.862-1.818 2.738-.606 1.53-1.18 7.27-1.727 9.64-.126.998-.934 1.585-1.824 1.824-2.53.259-10.779 1.044-12.767-.782zm13.293-.205c1.286-2.565 1.52-7.52 1.917-10.601-4.893-.017-10.754-.142-15.964-.142.57 3.667 1.082 6.823 1.794 10.417 4.042 1.046 8.736.901 12.253.326zM7.85 21.51c-.893-.47-1.476-1.998-1.09-2.896.994-.348 1.141.974 1.386 1.658.052.477.268.73.754.616.756.058 1.57-.08 2.272.222-.16.903-1.687.306-2.41.474-.304-.012-.612-.013-.913-.074zM22.26 9.188L1.752 9.187c-.474.634-.345 1.047 0 1.38h20.529c.34-.444.124-1.22-.02-1.38zm-9.98-5.033c-2.54-.036-8.489.435-8.642 4.38 1.816.109 5.487-.072 7.851-.088.306-1.41.636-2.918.79-4.292zm7.852 3.512c-1.049-2.777-3.955-3.537-6.496-3.49-.312 1.355-.67 2.954-.939 4.32h7.527z" />
</svg>