<svg xmlns="http://www.w3.org/2000/svg" viewBox="0 0 24 24" fill="currentColor" stroke="currentColor" stroke-width="0">
   <path
      d="M21.63.95l-.84.84L22 3l.84-.84L21.63.95zM2 1c-.554 0-1 .446-1 1v20c0 .554.446 1 1 1h20c.554 0 1-.446 1-1V10.988h-1v10.104a.906.906 0 01-.908.908H2.908A.906.906 0 012 21.092V2.908C2 2.405 2.405 2 2.908 2H13.93V1H2zm18.273 1.338l-8.304 8.305-.57 1.76 1.763-.565L21.47 3.53l-1.196-1.193zM4 14v1h7v-1H4zm.035 3.086v1h15.201v-1h-15.2zm-.008 2.652v1h15.2v-1h-15.2z" />
</svg>