<svg xmlns="http://www.w3.org/2000/svg" fill="none" stroke="currentColor" stroke-width="0.8" viewBox="0 0 24 24">

   <path
      d="M1 21.488C4.415 14.22 6.607 10.306 11.226 2c.426-.428 1.248-.427 1.663.002.125.13 2.474 4.483 5.22 9.674 5.45 10.305 5.232 9.83 4.82 10.499-.359.584.367.548-10.896.546l-10.2-.001c-.504-.274-.827-.784-.833-1.232zm11.4-1.592c.498-.255.649-.69.403-1.162-.301-.577-1.143-.585-1.483-.013-.206.345-.182.64.076.945.337.326.625.423 1.004.23zm-.092-3.501c.176-.142.214-.389.524-3.393.184-1.783.315-3.34.292-3.462-.024-.122-.156-.334-.295-.471-.451-.448-1.105-.448-1.557 0-.138.137-.271.349-.294.47-.024.122.107 1.68.291 3.463.31 3.004.348 3.251.524 3.393.207.187.332.145.515 0z" />
</svg>