<svg xmlns="http://www.w3.org/2000/svg" stroke="none" fill="currentColor" stroke-width="0" viewBox="0 0 24 24">
   <path
      d="M17.528 20.492c-.45-.576-.683-1.376-.7-2.412-.012-.661-.1-.81-.554-.932a113.6 113.6 0 01-4.235-1.277c-.51-.17-1.333-.26-1.945-.214-1.395.108-2.618-.205-2.791-.712-.765-1.135-.922-2.591-1.534-3.758C4.38 9.044 3.828 6.32 4.414 4.501c.241-.75.255-.757 1.633-.894 1.669-.166 3.339 0 4.456.444.715.283 1 .292 2.202.07 1.513-.28 2.77-.062 3.294.569.474.571 2.378 4.318 2.534 4.986.083.358.241.702.351.765.32.184.23 1.424-.124 1.697-.424.327-.41.896.054 2.117l.378.996.972-.052c.695-.037 1.22.08 1.836.407 1.09.58 1.199 1.016.336 1.348-.362.14-.659.333-.659.43 0 .097-.108.176-.24.176-.352 0-2.192 1.847-2.68 2.691-.488.84-.724.887-1.23.241zm.907-.605c0-.355 2.61-2.788 3.3-3.075.696-.29.751-.564.173-.851-.542-.27-2.3-.268-2.844.002-.379.189-.388.243-.093.517.18.168.329.407.329.53 0 .124-.198.027-.44-.215-.243-.242-.518-.44-.61-.44-.224 0-1.112 1.66-1.112 2.077 0 .678.68 1.916.991 1.805.169-.06.306-.218.306-.35zm1.405-3.531c-.285-.114-.322-.177-.108-.184.178-.006.47.076.649.184.395.237.053.237-.54 0zm-1.994-.177c.687-.707.742-.85.596-1.556-.733-3.538-3.414-7.689-5.95-9.216-.853-.513-1.676-.92-1.726-.853-.021.03-.268.632-.547 1.34-.668 1.694-1.923 2.878-3.556 3.357-.658.192-1.196.426-1.196.518 0 .093.263.55.585 1.018.436.632.606.76.664.498.044-.193.182-.352.307-.352.368 2.018 1.085 2.387 2.967 3.44.365.15.664.342.664.425 0 .083.111.152.247.152.135 0 .646.17 1.134.38 1.393.595 4.34 1.563 4.916 1.616.076.006.478-.339.895-.767zm-8.178-2.977c-.287-.267-.305-.363-.08-.432.158-.05.325.014.371.142.118.329.81.285 1.128-.071.157-.177.217-.547.143-.89-.123-.569-.103-.585.577-.482.96.145 1.416-.33 1.005-1.044-.316-.548-.24-.76.186-.515.697.4.077 2.228-.756 2.228-.16 0-.29.095-.29.21 0 .36-1.04 1.196-1.489 1.196-.234 0-.592-.154-.795-.342zm-1.406-1.984c-.252-.281-.2-.303.46-.196 1 .163 1.364-.093 1.24-.872-.095-.607-.076-.624.576-.51.568.099.721.037.968-.392.241-.418.244-.566.015-.823-.38-.424-.115-.616.493-.359.755.32 1.33-.146 1.16-.94-.154-.714.213-.834.488-.159.251.616-.344 1.557-.984 1.557-.352 0-.513.155-.616.591-.093.393-.353.68-.774.853-.349.143-.637.351-.641.462-.004.111-.19.406-.413.654-.479.533-1.55.606-1.972.134zM10 15c-.003-.083-.385-.368-.849-.634-.464-.265-1.083-.69-1.376-.942-.293-.252-.584-.41-.647-.352-.108.1.34 1.474.616 1.889.148.223 2.265.26 2.256.039zm8.503-3.34c.237-.573-.178-1.693-1.768-4.776-1.081-2.096-1.62-2.577-2.885-2.577-.642 0-1.948.579-1.344.596.316.008 2.464 1.933 3.257 2.918.585.726 1.786 2.878 2.101 3.765.15.42.48.46.64.075zM7.031 8.7c1.141-.54 1.934-1.278 2.516-2.337.62-1.128.608-1.968-.028-2.146-.927-.26-3.514-.343-4.106-.132-.593.211-.595.217-.592 2.175.002 1.08.062 2.166.134 2.414.168.583.882.592 2.076.026zm.392-2.777c-.511-.475-.545-.772-.142-1.265.374-.458 1.265-.45 1.719.016.421.433.436.625.08 1.06-.463.564-1.167.644-1.657.19zm.944-.132c.38-.136.463-.789.124-.984-.315-.18-1.079.086-1.079.377 0 .136.117.356.26.488.303.282.26.274.695.12zm-.385-.58c.069-.166.153-.302.187-.302s.117.136.186.301c.075.182 0 .301-.186.301-.188 0-.262-.12-.187-.3z" />
</svg>