<svg xmlns="http://www.w3.org/2000/svg" stroke="currentColor" fill="currentColor" stroke-width="0" viewBox="0 0 24 24">
   <path
      d="M9.403 21.32c-2.788-.911-5.056-2.808-6.184-5.135-1.03-1.909-1.31-4.15-.575-6.166.46-1.024 1.398-1.86 2.59-2.302 1.568-.681 3.464-.806 5.171-.48.692.432 1.528.676 1.43-.34.036-1.144-.571-2.394-1.814-2.954-.44-.855 1.02-.342 1.205.164.416.304 1.484 1.79 1.469.618-.118-.893.316-1.931 1.474-2.137 1.224-.268 2.536-.404 3.792-.271.199.736-.652 1.415-1.104 2.006-.634.71-1.496 1.44-2.647 1.344-.953-.105-2.144.359-1.695 1.311.523.807 1.99-.048 2.913.153 1.553-.138 3.217.174 4.322 1.157 1.392 1.05 2.206 2.611 2.315 4.17-.196 1.665-.887 3.27-1.685 4.793-.66.68-1.008 1.458-1.805 2.092-2.333 1.956-5.992 3.084-9.172 1.977zm6.22-.83c2.935-1.21 4.818-3.754 5.483-6.385.417-1.764.228-3.792-1.337-5.14-1.345-1.32-3.586-1.306-5.478-1.199-1.095-.245-1.945 1.11-2.884.465-1.025-.666-2.423-.448-3.631-.49-1.193-.033-2.466.182-3.285.975C3.268 9.75 2.59 11.24 2.885 12.699c.139 1.492.49 3.016 1.528 4.266.694.878 1.35 1.839 2.371 2.476.803.395 1.52 1.082 2.524 1.267 2.039.464 4.352.494 6.316-.218zM5.249 16.537c-1.151-1.571-1.713-3.487-1.467-5.326-.197-.535 1.3-1.888 1.048-.774-.47.662-.746 1.427-.586 2.204.261 1.273.734 2.547 1.526 3.658.532.422-.199.918-.52.238zM15.96 4.347c.675-.349 1.847-1.85.228-1.636-1.039.184-2.174.42-2.948 1.069-.435.65.699.737.904.196.857-.428.883.35.214.58-1.137.46.031 1.058.642.444.342-.193.661-.414.96-.652z" />
</svg>