<svg xmlns="http://www.w3.org/2000/svg" stroke="currentColor" fill="currentColor" stroke-width="0" viewBox="0 0 26 26">
   <path
      d="M24.886 11.419c.359-2.06-1.149-3.763-2.71-4.629C14.702 3.6 9.68 4.608 3.425 6.768c-4.589 2.768-2.917 6.106 1.437 9.087 3.39 3.36 7.064 4.218 11.272 3.32 2.693-1.085 8.318-4.931 8.753-7.756zM8.245 16.777c7.016 1.372 9.048-.554 9.792.204.14.956-2.648 1.368-4.039 1.551-4.348.131-6.321-.696-5.753-1.755zm.241-.842C1.354 14.35-.652 8.723 5.11 7.32c1.488 1.189-1.345 1.656-1.412 2.971-.462 1.649 1.033 2.916 2.258 3.511 4.242 1.677 8.86 1.47 12.868.318 4.184-1.273 4.19-4.467 1.2-5.733C16.355 6.74 12.06 6.622 8.467 7.263c-.736.367-2.218-.498-.873-.982 2.449-.791 5.061-.898 7.594-.681 5.167.4 12.923 4.39 5.643 9.067-3.913 1.875-8.509 2.17-12.345 1.268zm10.508-3.605c-.206-1.597-.235-2.493-1.395-3.009-1.36-.708-2.816-1.156-4.242-1.678 2.726-.117 6.251.25 7.816 2.588.589 2.24-1.9 3.182-2.179 2.098z" />
</svg>