<svg xmlns="http://www.w3.org/2000/svg" stroke="currentColor" fill="none" stroke-width=".6" viewBox="0 0 24 24">
   <path
      d="M3.23.742C2.6.78 2.295.51 2.412 2.187.426 2.222.58 4.19 2.42 4.256V5.69C.382 5.703.275 7.79 2.424 7.75c-.01.475-.019.95-.03 1.424-2.044.025-1.997 2.155.026 2.08 0 2.626-.01 2.152.004 4.905-1.963.074-2.127 2.08-.004 2.058v1.436c-1.728.031-2.29 2.063-.009 2.068a7.87 7.518 0 00.017 1.157c.03.33.382.289.803.289 6.499-.007 13.086-.032 19.577-.155a1.167 1.115 0 00.332-.307l.11-.175V1.378c.005-.346-.26-.605-.666-.612zm9.5 1.31c.945.022 1.158.46 1.193 1.384 2.502.043 4.625 2.046 4.74 4.594 1.752-.073 1.415 1.603.68 1.68-4.774.035-7.833-.04-13.322-.019-.94-.011-.905-1.556.71-1.651.045-2.992 1.85-4.575 4.767-4.598.011-.862.287-1.413 1.233-1.39zM5.439 14.874h14.545a.373.356 0 01.373.358v.53a.364.364 0 01-.373.358H5.438a.366.366 0 01-.375-.357v-.531a.375.358 0 01.375-.358zm-.021 2.668H19.96a.375.358 0 01.374.358v.53a.366.366 0 01-.374.359H5.417a.366.366 0 01-.375-.358V17.9a.375.358 0 01.375-.358zm-.002 2.627h14.542a.373.356 0 01.375.356v.533a.365.365 0 01-.375.356H5.415a.363.363 0 01-.373-.356v-.533a.37.354 0 01.373-.356z" />
</svg>