<svg xmlns="http://www.w3.org/2000/svg" stroke="currentColor" fill="none" stroke-width="0.7" viewBox="0 0 24 24">
   <path
      d="M11.928 21.697c-.2-.586.125-.987.809-.997.375-.006.258.77-.183 1.211-.386.386-.424.373-.626-.214zM11 19.598c-.281-.332.081-.68.709-.68.292 0 .797-.146 1.122-.326 1.199-.663 1.937-.121.818.6-.7.452-2.391.71-2.649.406zm-.774-1.905c-.419-.368-.138-.503 2.411-1.16 2.297-.592 2.455-.604 2.455-.183 0 .404-.162.474-2.565 1.111-1.603.425-2.033.469-2.301.232zm-.765-1.895c-.29-.342.366-.815 1.31-.945 1-.139 3.362-.743 4.09-1.047.784-.328 1.143-.27 1.143.186 0 .224-.307.509-.684.633-1.173.39-2.776.784-3.65.9-.463.061-.915.2-1.007.308-.227.27-.963.248-1.202-.035zM8.664 14a4.902 4.902 0 01-.076-.448c-.028-.234 2.257-.929 4.073-1.237 1.08-.184 1.271-.531.547-.99-.654-.415-.741-.401-2.213.352-1.493.764-3.015 1.012-4.392.715-3.834-.828-3.85-4.81-.021-5.733 1.164-.281 1.38-.427 1.456-.98.377-2.775 3.638-4.046 6.679-2.605 1.283.608 1.67 1.194 1.72 2.598.02.562.19.677 1.367.932.74.16 1.66.559 2.045.887 1.395 1.187 1.308 3.151-.187 4.198-.727.51-1.279.656-2.96.786-1.136.088-3.4.51-5.03.939-1.63.428-2.983.692-3.008.586z" />
</svg>