<svg xmlns="http://www.w3.org/2000/svg" stroke="currentColor" fill="currentColor" stroke-width="0" viewBox="0 0 24 24">
   <path
      d="M12.839 22.203c-1.875-.26-4.411-1.352-5.344-2.303-.196-.2-.472-.363-.614-.363-.728 0-4.481-2.994-4.31-3.438.047-.122.406-.254.797-.293.58-.058.682-.154.546-.515-.091-.244-.094-.688-.005-.987.142-.48.229-.514.745-.29.32.139 1.232.834 2.025 1.544 1.055.944 1.793 1.39 2.752 1.66.721.203 1.497.508 1.725.679 1.254.938 3.143-.53 1.964-1.528-.205-.174-.596-.627-.869-1.005-.826-1.15-1.781-1.655-2.895-1.53-.535.059-1.239.18-1.563.27-.448.122-.59.075-.59-.197 0-.223.223-.36.59-.362.91-.004 1.77-.246 1.77-.497 0-.143-.584-.182-1.574-.106-1.97.151-2.041-.121-.127-.484.853-.162 1.377-.366 1.28-.5-.16-.218-.998-.165-2.533.16-.6.126-.696.09-.561-.207.119-.263.505-.359 1.445-.359 1.016 0 1.283-.076 1.283-.365 0-.316-.235-.346-1.751-.226-2.03.16-2.008-.267.024-.461.661-.063 1.203-.184 1.203-.268 0-.085-.657-.723-1.46-1.419-.805-.697-1.76-1.822-2.132-2.508L3.987 5.06l.559-.974C5.164 3.01 5.716 2.75 7.809 2.55c.975-.093 1.657-.023 2.409.246 1.863.669 7.249 5.722 6.781 6.362-.084.115-.456-.173-.827-.64-.371-.467-.771-.882-.89-.922a.344.344 0 01-.215-.305c0-.38-3.99-3.591-5.036-4.053-1.325-.584-1.492-.317-.28.446 1.34.841 4.174 3.32 4.987 4.36.364.465.763.845.888.845a.23.23 0 01.228.232c0 .127.206.419.458.649.682.622 1.442 1.781 1.167 1.781-.132 0-1.075-.929-2.097-2.064-3.825-4.25-7.34-6.798-8.405-6.094-1.134.75-1.37 1.611-.757 2.766.375.706 1.122 1.4 1.507 1.4.399 0 .314-.727-.15-1.288-.552-.666-.388-.985.332-.647.317.15 1.074.503 1.683.786 2.548 1.185 5.588 3.542 6.635 5.145.277.425 1.014 1.257 1.638 1.85C18.49 13.999 19 14.64 19 14.83c0 .19.16.505.357.697.651.64.969 2.273.608 3.129-.634 1.503-1.871 2.844-2.648 2.87-.133.004-.43.152-.662.33-.554.423-2.185.572-3.815.347zm3.074-.503c.316-.153.736-.402.932-.555.196-.152.503-.277.682-.277.394 0 1.198-.91 1.85-2.095.466-.847.467-.915.008-2.056-.261-.649-.632-1.29-.824-1.425-.192-.135-.349-.402-.349-.594 0-.192-.297-.612-.66-.933l-.661-.583-1.054.849c-.858.69-1.248.848-2.092.848-1.258 0-1.304.263-.194 1.12.85.657 2.231 1.032 2.947.8.213-.07.454-.034.537.08.247.338-1.171.517-2.127.269-1.227-.319-1.191.15.079 1.036 1.124.784.972 1.223-.175.506-1.52-.952-2.574-.336-2.26 1.32.128.678.079.858-.235.858-.293 0-.396-.252-.396-.964 0-1.02-.217-1.265-1.744-1.977-1.187-.554-1.637-.482-2.078.335l-.39.72.087-.83c.08-.757-.06-.965-1.556-2.307-1.267-1.138-1.682-1.395-1.806-1.12-.089.196.16.855.56 1.475.864 1.343.7 1.656-.347.665-.417-.395-.911-.675-1.098-.622-.465.13 1.355 1.732 2.868 2.524.648.34 1.651.926 2.228 1.304 1.545 1.01 2.2 1.284 3.8 1.58 1.962.365 2.787.376 3.468.049zm-.573-7.827c1.234-.945.369-2.826-2.184-4.746-.822-.62-1.057-.703-1.25-.444-.2.266-.24.258-.243-.046-.006-.596-.779-.693-1.046-.131l-.235.495-.017-.48c-.01-.265.131-.529.311-.587.339-.11-.4-.669-1.584-1.198-.485-.217-.628-.211-.738.03-.16.351.561 3.535.983 4.342.95 1.822 1.783 2.78 2.716 3.128.789.294 2.705.082 3.287-.363zm-7.35-5.12c0-.075-.472-.535-1.047-1.022-1.285-1.087-1.777-2.296-1.38-3.391.308-.848.183-.984-.354-.385-.552.615-.441 1.98.225 2.772 1.3 1.548 2.555 2.544 2.555 2.026z" />
</svg>