<svg xmlns="http://www.w3.org/2000/svg" viewBox="0 0 24 24" fill="none" stroke="currentColor">
   <path
      d="M3.021 1.26c-.985 0-1.779.792-1.779 1.777v17.858c0 .985.794 1.777 1.78 1.777h18.011c.986 0 1.778-.792 1.778-1.777V3.037c0-.985-.792-1.777-1.778-1.777z" />
   <path
      d="M3.236 3.44c-.13 0-.236.235-.236.527v.168c0 .292.106.527.236.527h17.842c.13 0 .235-.235.235-.527v-.168c0-.292-.104-.528-.235-.528H3.236zm.297 3.337c-.122 0-.222.235-.222.528v.168c0 .292.1.527.222.527h16.76c.123 0 .22-.235.22-.527v-.168c0-.293-.097-.528-.22-.528H3.533zM3.531 10c-.121 0-.219.235-.219.527v.168c0 .293.098.528.22.528h16.593c.121 0 .219-.235.219-.528v-.168c0-.292-.098-.527-.219-.527H3.531zm-.011 3c-.122 0-.221.235-.221.527v.168c0 .293.099.528.22.528h16.643c.122 0 .22-.235.22-.528v-.168c0-.292-.098-.527-.22-.527H3.52zm-.016 3.3c-.122 0-.219.236-.219.528v.168c0 .292.097.53.219.53h16.642c.122 0 .221-.238.221-.53v-.168c0-.292-.099-.527-.22-.527H3.503zm-.582 3.079c-.13 0-.235.235-.235.527v.168c0 .292.104.528.235.528h17.842c.13 0 .236-.236.236-.528v-.168c0-.292-.106-.527-.236-.527H2.922z"
      fill="currentColor" stroke="none" />
</svg>