<svg xmlns="http://www.w3.org/2000/svg" xmlns:xlink="http://www.w3.org/1999/xlink" viewBox="0 0 128 128">

   <path fill="currentColor" stroke="currentColor" stroke-width="0"
      d="M12.98 112.508c14.769-16.479 20.273-22.375 41.8-45.882-3.501-4.64-8.027-8.92-12.278-10.822-10.02-.371-14.368-1.887-18.995-5.927-7.452-9.96-14.794-20.043-22.135-30.127.812-1.02 1.725-1.836 2.588-2.703C13.427 27.81 21.534 37.351 29.976 46.94c1.014-1.122 1.826-2.091 2.84-3.162-8.918-9.737-17.543-19.85-26.188-29.944l2.182-2.448c5.616 5.83 18.903 21.431 26.767 30.005.862-.918 1.674-1.836 2.536-2.754-9.015-9.839-18.035-19.677-27.05-29.52.862-.919 1.674-1.837 2.536-2.755 9.02 9.839 18.04 19.682 27.061 29.52 1.015-1.122 1.979-2.193 2.993-3.315C34.35 23.045 25.044 13.528 15.74 4.011c.761-.867 1.573-1.683 2.334-2.55 9.182 7.62 18.167 15.581 27.172 23.507 2.994 3.366 4.414 7.502 4.414 13.056.01 8.625 3.907 16.454 10.867 21.824l1.624 1.224c6.042-2.958 12.759-8.68 15.067-15.57-3.55-17.183.914-26.267 8.143-34.182C95.563.89 111.098-.008 117.916 8.464c6.56 8.828 5.667 23.313-2.84 35.263-8.463 10.205-16.854 12.954-30.273 8.583-5.733 3.06-10.913 9.145-14.292 15.061 13.83 14.934 28.086 29.357 41.728 44.55 3.602 8.395-4.566 11.751-8.827 9.604-13.581-14.122-26.863-28.658-40.155-43.183-13.298 14.663-26.798 29.04-40.282 43.433-5.79 1.887-11.755-3.06-9.985-9.323zM99.452 8.604C86.434 11.206 80.706 23.767 82 37.727c3.551-12.103 11.07-21.89 17.452-29.123z" />
</svg>