<svg xmlns="http://www.w3.org/2000/svg" stroke="currentColor" fill="currentColor" stroke-width="0" viewBox="0 0 24 24">
   <path
      d="M12.859 20.38c-.451-.11-1.288-.516-1.86-.903-1.07-.723-2.895-2.95-2.897-3.533-.001-.18-.083-.329-.182-.329-.099 0-.472-.667-.83-1.482-.357-.815-1.164-2.054-1.792-2.753C3.71 9.612 3.322 8.848 3.32 7.483c-.001-1.004.112-1.285.824-2.038.713-.753.987-.873 2.004-.873.648 0 1.307.148 1.463.329.206.237 1.376.328 4.218.328 4.424 0 4.843.13 6.678 2.073 1.632 1.728 1.987 2.767 1.987 5.815 0 2.323-.064 2.752-.553 3.681-.713 1.353-1.672 2.472-2.627 3.063-.867.537-3.245.814-4.455.52zm4.525-1.534c1.911-1.293 3.063-4.525 2.553-7.163-.291-1.508-1.006-3.026-1.852-3.937-1.407-1.514-4.476-2.402-6.535-1.892-1.63.403-3.245.358-3.778-.107-.25-.218-.93-.386-1.562-.386-1.516 0-2.199.723-2.204 2.334-.004 1.066.097 1.263 1.362 2.662.751.83 1.366 1.643 1.366 1.807 0 .163.096.296.213.296.116 0 .277.236.356.524.08.289.265.675.414.859.148.184.474.806.725 1.382.492 1.132 2.154 3.182 3.074 3.79 1.496.992 4.272.911 5.868-.169zm-5.315-.695c-1.296-.787-1.742-1.215-2.373-2.273-.302-.506-.617-.98-.7-1.052-.083-.072-.23-.427-.326-.788-.097-.362-.239-.717-.316-.79-.077-.072-.324-.55-.548-1.062-.225-.512-.857-1.34-1.403-1.84-.547-.5-1.153-1.286-1.345-1.746-.326-.777-.32-.881.1-1.496.646-.949 1.099-1.025 2.58-.437 1.166.464 1.511.49 3.059.24 4.195-.683 6.793.558 7.848 3.748 1.627 4.92-2.7 9.852-6.576 7.496zm2.544-4.315c.138-.106.369-.452.513-.77.865-1.895-2.565-4.033-3.934-2.452-.456.526-.456.545-.033 1.453.71 1.524 2.55 2.466 3.454 1.77zM12.7 12.66c-.38-.211-.505-.476-.455-.966.093-.924.727-.994 1.449-.16.481.556.542.76.319 1.07-.32.446-.591.457-1.313.056z" />
</svg>