<svg xmlns="http://www.w3.org/2000/svg" fill="currentColor" viewBox="0 0 24 24">
   <path
      d="M8.037 1.23c-4.176.098-4.202 2.831-4.203 6.319.001 2.868 1.287 4.475 3.133 5.205l.146.826c-2.598.034-4.406.676-5.703 1.645v8.03h17.703v-.001h3.87V15.72c-1.121-.823-2.547-1.327-4.434-1.362l.017-.625c1.833-.762 2.538-2.276 2.63-4.222 0-2.8-.393-5.12-3.678-5.07-3.656.077-3.677 2.27-3.678 5.07 0 2.301 1.125 3.592 2.74 4.177l.129.663a9.718 9.718 0 00-2.648.38c-1.266-.705-2.84-1.102-4.844-1.142l.02-.777c2.094-.95 2.9-2.84 3.003-5.264 0-3.489-.448-6.38-4.2-6.319h-.003z" />
</svg>