<svg xmlns="http://www.w3.org/2000/svg" stroke="currentColor" fill="currentColor" stroke-width="0" viewBox="0 0 24 24">
   <path
      d="M10.411 22.816c-1.484-.205-4.31-1.47-4.512-2.02-.061-.169-.208-.306-.326-.306-.41 0-1.712-1.72-2.406-3.178-.947-1.989-1.278-4.205-.94-6.287.144-.884.339-1.714.433-1.845.094-.131.248-.506.343-.833.222-.771 1.313-2.27 2.455-3.373 1.896-1.831 4.789-2.767 7.596-2.458 1.652.182 1.878.47 1.322 1.694-.205.45-.373 1.008-.373 1.239 0 .23-.46 1.892-1.02 3.692-.562 1.8-1.022 3.322-1.022 3.382 0 .207.829.109 1.832-.217.552-.18 1.821-.509 2.82-.732.997-.223 2.457-.572 3.242-.775.785-.202 1.48-.313 1.545-.245.065.068.173.697.241 1.399.262 2.702-.755 5.714-2.626 7.777-1.379 1.52-2.15 2.056-3.773 2.617-1.712.592-3.016.718-4.83.469zm3.365-.754c.687-.166 1.605-.478 2.042-.693 1.923-.948 3.85-3.088 4.614-5.121.454-1.21.723-4.306.416-4.777-.4-.612-.72-.007-.72 1.363 0 2.352-.983 4.652-2.648 6.195-1.362 1.262-1.377 1.272-2.342 1.662-2.445.986-4.923.896-6.979-.254-1.661-.929-2.75-2.078-3.675-3.876-.686-1.335-.734-1.584-.74-3.81-.004-1.748.092-2.57.361-3.095.202-.393.368-.793.368-.89.001-.097.148-.365.326-.595l.946-1.216c1.413-1.811 3.842-2.894 6.491-2.894 1.367 0 1.767-.076 1.767-.335 0-.221-.385-.39-1.134-.498C9.21 2.7 5.66 4.73 3.636 8.508c-.4.744-.976 3.23-.976 4.207 0 .967.467 2.942 1.012 4.284.32.788 2.326 3.116 3.315 3.85.983.728 3.371 1.485 4.748 1.504.436.006 1.355-.125 2.041-.291zM15 20c1.136-.528 3.087-2.262 3.087-2.745 0-.185.088-.337.195-.337.382 0 1.166-2.662 1.166-3.96v-1.3l-.85.15c-.469.082-1.31.29-1.872.46-.562.17-1.863.5-2.893.733-1.21.274-1.872.536-1.872.742 0 .487-.86.378-1.126-.143-.314-.615-.296-.967.049-.969.32 0 .835-1.294 1.418-3.57.219-.851.537-1.885.709-2.298.171-.413.312-1.029.312-1.369 0-.606-.032-.619-1.532-.61-1.036.005-1.825.156-2.439.467-.499.253-1.035.464-1.19.469-.157.004-.284.115-.284.246a.243.243 0 01-.247.238c-.45 0-2.215 2.115-2.73 3.27-.73 1.642-.722 4.931.018 6.597.612 1.377 2.419 3.314 3.604 3.863 1.881.872 4.68.9 6.477.066zm-6.323-1.205c-1.252-.367-1.873-1.908-1.164-2.889.428-.591.665-.516.503.16-.189.789.033 1.286.747 1.673.649.352 1.24.173 1.78-.539.25-.328.284-.312.284.132 0 .983-1.14 1.76-2.15 1.463zm3.437-.069c-.146-.4.523-1.094 1.056-1.094.44 0 .508.722.107 1.143-.37.388-1.013.36-1.163-.049zm1.835-1.562c-.21-.257-.29-.527-.18-.599.112-.072.267-.022.345.111.231.392 1.15.278 1.556-.193.467-.543.485-1.558.035-2.03-.452-.475-.43-.649.056-.467 1.237.46 1.576 1.879.721 3.019-.594.793-1.946.878-2.533.16zm-8.09-2.368c-.414-.276-.15-.974.367-.97.628.006 1.052.386.898.806-.152.416-.765.496-1.264.164zm11.717-.754c-.88-.538-.257-1.428.646-.921.625.351.71.823.187 1.034-.43.172-.348.183-.833-.113zM7.061 11.736c-.829-.581-.906-2.094-.151-2.973.503-.586 1.973-.552 2.556.06.648.68.578 1.092-.106.622-.307-.211-.75-.384-.985-.384-1 0-1.564 1.704-.821 2.483.266.28.28.373.056.37a1.152 1.152 0 01-.549-.178zm3.13-3.675c-.434-.456-.33-1.143.174-1.143.425 0 .916.63.916 1.175 0 .344-.752.322-1.09-.032z" />
</svg>