<svg xmlns="http://www.w3.org/2000/svg" stroke="currentColor" fill="currentColor" stroke-width="0" viewBox="0 0 24 24"
   height="1em" width="1em">
   <path
      d="M5.589 19.069c-.152-1.715-.926-3.292-1.32-4.955-.887-3.174-1.796-6.343-2.62-9.534-.292-1.246 1.544-.447 2.198-.493 3.71.568 7.403 1.242 11.107 1.852 2.194.3 4.355.804 6.546 1.118 1.168-.267 1.222.977.736 1.703-.946 2.228-2.37 4.27-4.289 5.767-2.907 2.43-6.376 4.206-10.06 5.102-.704.05-1.822.546-2.27-.172a2.04 2.04 0 01-.028-.388zm3.618-.356c2.045-.74 4.105-1.503 5.907-2.747 2.209-1.442 4.217-3.26 5.568-5.547.529-.756 1.199-1.688.844-2.648-.683-.483-1.779-.665-2.542-.58-.677 1.117-1.085 2.394-1.96 3.392-2.577 3.206-6.351 5.36-10.349 6.235l-.997.246c.222.692.375 1.413.708 2.062.803.184 1.65-.101 2.437-.284l.2-.063zM9 15.68c.813-.16 1.33-.796 2.109-.939 2.566-1.432 4.893-3.442 6.367-6.01.482-.677.66-1.982-.514-1.961-3.022-.586-6.085-.943-9.095-1.6-1.396-.257-2.832-.225-4.208-.617l-1.258-.287c.2 1.203.326 2.441.881 3.544.482 1.696.741 3.453 1.336 5.12.36 1.172.705 2.348 1.055 3.524 1.128-.172 2.243-.41 3.327-.774zm-.974-1.54c-.755-.45-.593-1.538-.413-2.27.297-1.04 1.581-1.494 2.532-1.133.128.668.402 1.323 1.263 1.248 1.062-.004 1.21 1.484.153 1.643-.799-.016-1.72-.276-2.181.6-.417.284-.939.087-1.354-.088zm1.418-1.226c.665-.26 1.813.797 2.29-.088-.473-.871-1.816-.214-2.322-.82.45-.653-.152-1.08-.69-.564-.614.491-.868 2.228-.043 2.368.289-.265.567-.555.765-.896zm-3.462-1.27c-.904-.448-.05-1.79.796-1.596.868.101 1.347 1.156.34 1.51-.33.288-.758.22-1.136.086zm.978-.669c.057-.992-1.418.337-.338.326a.726.726 0 00.338-.326zm5.075-.049c-.911-.292-1.848-1-1.71-2.073-.132-1.153.927-1.928 1.945-2.122 1.306-.294 3.006-.008 3.709 1.253.589 1.3-.48 2.74-1.76 3.048a3.313 3.313 0 01-2.184-.106zM15 10c.908-.628.72-1.966-.244-2.425-1.268-.917-3.451-.567-3.976 1.032-.119.92.765 1.893 1.696 1.947.868.088 1.874.154 2.524-.554zm-2.607-.44c.412-1.023 1.494.639.287.349-.188.005-.445-.126-.287-.349zm1.42-.814c.941-.948.543.805 0 0zm-1.62-.719c.028-.89 1.651.173.471.321-.23.102-.524-.028-.471-.32zM6.296 9.286c-.433-.393-.655-.972-1.404-.855-.727-.074-1.696-1.06-.84-1.644.712-.667 1.942.238 2.263-.905.853-.628 2.144.155 2.081 1.2.148.868-.05 1.923-1.03 2.173-.336.21-.715.162-1.07.031zm1.377-1.105c.583-.577.233-1.3-.217-1.819-.197-.507-.368-.178-.538.156-.406 1.004-1.563.471-2.36.614-.742.732.994.69 1.452.679.841-.12.284 1.743 1.235.911.167-.159.304-.347.428-.54z" />
</svg>