<svg xmlns="http://www.w3.org/2000/svg" stroke="currentColor" fill="currentColor" stroke-width="0" viewBox="0 0 24 24">
   <path
      d="M8.176 20.19c-.997-.33-3.247-1.706-3.247-1.985 0-.097-.24-.291-.533-.43-.677-.324-1.362-1.853-1.725-3.847-.338-1.867-.05-3.824.757-5.126a8.25 8.25 0 00.776-1.77c.307-1.1 1.206-2.176 2.315-2.77.683-.367 1.255-.412 4.255-.34 3.696.09 4.646.314 5.8 1.373.338.31.997.775 1.464 1.033.468.258.9.602.962.763.061.162.227.294.368.294.14 0 .584.505.985 1.12.768 1.18.99 2.674.449 3.028-.154.101-1.214.152-2.356.113-1.141-.04-2.075.022-2.075.135 0 .271-1.912 1.24-2.447 1.24a.959.959 0 00-.664.314c-.137.173-.653.441-1.148.596-.494.155-1.147.542-1.45.86-.304.318-.658.578-.787.578-.53 0-.182 1.028.584 1.723 1.364 1.237 2.098 2.009 2.094 2.203-.02 1.049-2.426 1.54-4.377.895zm3.592-.59c.325-.282.29-.381-.336-.98-.384-.367-.748-.667-.809-.667-.304 0-1.473-1.61-1.586-2.183-.154-.779-1.217-1.443-1.987-1.241-.643.17-2.121 2.011-2.121 2.645 0 .566 1.692 1.904 3.13 2.476 1.164.462 3.15.435 3.71-.05zm-6.84-3.656c0-.16.358-.62.794-1.02.915-.841 1.938-.954 3.155-.35.704.35.807.35 1.322-.004.378-.26.605-.685.702-1.318.167-1.095.534-1.254.534-.231 0 .387.078.704.172.704.416 0 1.843-1.228 2.273-1.957.639-1.082.65-3.308.022-4.568-.891-1.789-1.738-2.441-3.709-2.859-2.28-.483-4.448.46-5.376 2.338l-.294.595 1.862-.003c1.46-.003 1.955.085 2.295.407.24.226.502.411.585.411.341 0 1.31 1.302 1.728 2.323.384.935.062.834-.545-.171C9.355 8.428 8.108 7.62 6.404 7.62c-1.063 0-2.144.443-2.147.88 0 .162-.084.294-.184.294-.1 0-.403.53-.673 1.176-.755 1.811-.639 3.469.45 6.405.23.62.263.634.66.257.23-.218.419-.527.419-.688zm10.582-4.039c1.158-.712 1.646-1.824 1.646-3.744 0-1.389-.08-1.765-.449-2.12a6.006 6.006 0 00-3.403-1.594l-1.308-.158.692.533c.917.708 1.529 1.722 2.017 3.343.38 1.26.381 1.402.024 2.587-.207.69-.377 1.323-.377 1.409 0 .272.47.168 1.158-.256zM20.5 11c.173-.473-.257-2.206-.548-2.206-.119 0-.22-.132-.224-.294-.006-.161-.46-.64-1.01-1.064l-1-.77v1.637c0 .9-.102 1.703-.225 1.782-.509.33-.212.823.505.839.4.009.93.107 1.177.218.706.318 1.175.267 1.325-.142z" />
</svg>