<svg xmlns="http://www.w3.org/2000/svg" stroke="currentColor" fill="currentColor" stroke-width="0" viewBox="0 0 24 24"
   height="1em" width="1em">
   <path
      d="M8.717 19.875c-.058-.078-.07-.214-.07-.732v-.636l-.355-.117c-.946-.313-2.177-.957-2.869-1.501C4.11 15.856 3.3 14.61 3.044 13.236c-.099-.533-.094-1.358.01-1.594.062-.143.33-.382.511-.455a2.65 2.65 0 00-.198-.283c-.437-.582-.645-1.148-.799-2.171-.164-1.084-.387-1.789-.593-1.87-.31-.122-.243-.602.085-.602.25 0 1.136.312 1.636.576.276.145.515.247.531.226.017-.02.072-.238.122-.484.116-.56.126-1.031.027-1.287-.081-.21-.05-.356.1-.454.107-.07.234-.01.566.267a4.502 4.502 0 011.352 1.96c.168.501.235.473.203-.084-.082-1.42.7-2.506 1.942-2.697.193-.03.693.034.852.109.038.018.095-.038.151-.15.1-.197.249-.302.428-.302.077 0 .526.323 1.353.977.68.537 1.255.963 1.278.946.023-.017.041-.073.041-.125 0-.19.277-.764.526-1.092.633-.83 1.58-1.034 2.424-.523.546.331.922.903 1.053 1.604l.05.263.176-.173c.82-.805 1.806-.814 2.54-.024l.147.16.255-.109c.78-.331 1.461-.238 2.334.32.75.478 1.194 1.329 1.194 2.284 0 1.077-.793 2.48-1.701 3.007-.187.108-.233.158-.21.227.066.203.07.898.01 1.328-.272 1.895-1.605 3.591-3.695 4.7-.448.236-1.309.599-1.74.732l-.183.056v.631c0 .56-.01.643-.086.736-.085.104-.143.106-3.517.106-3.269 0-3.434-.005-3.502-.097zm6.59-.885v-.35l-.14.036c-1.027.263-2.633.392-3.785.304-.708-.054-1.705-.198-2.102-.303l-.118-.032v.694h6.144zm-1.29-.73c2.757-.429 5.038-1.694 6.17-3.424.251-.383.569-1.073.641-1.39l.027-.119h-6.456c-5.946 0-6.461-.007-6.534-.087a.31.31 0 010-.405c.072-.08.605-.088 6.585-.1l6.507-.014v-.394c0-.367-.008-.399-.108-.46-.15-.094-17.083-.1-17.25-.008-.103.058-.11.083-.11.475v.413h1.426c1.266 0 1.434.01 1.504.087.098.109.1.27.008.397-.067.09-.169.096-1.44.096-1.287 0-1.368.006-1.368.095 0 .155.35.962.566 1.307.295.47.845 1.083 1.32 1.471 1.477 1.207 3.383 1.923 5.74 2.157.46.046 2.258-.018 2.772-.098zm-4.386-1.006a6.55 6.55 0 01-1.987-.736c-.285-.163-.372-.319-.295-.526.077-.21.21-.211.571-.01.694.388 1.49.637 2.282.712.26.025.489.073.526.112.086.087.085.34-.001.446-.084.104-.561.105-1.096.002zM6.356 15.57c-.283-.266-.32-.524-.094-.65.131-.074.208-.041.44.187.206.203.236.37.096.542-.121.149-.217.132-.442-.08zM4.78 11.092c0-.133-.18-.792-.29-1.06-.16-.394-.392-.747-.645-.981-.165-.153-.225-.244-.225-.34 0-.147.137-.34.242-.34.124 0 .349.207.633.583.328.435.581 1.032.73 1.718.084.39.115.47.193.484.09.016.092 0 .092-.503 0-.895-.19-1.499-.672-2.125A3.928 3.928 0 003.611 7.48c-.379-.213-.803-.399-.831-.364-.01.011.03.204.088.428.058.225.146.686.196 1.026.106.73.173.993.352 1.383.183.398.617.92.897 1.081.257.147.466.173.466.059zm4.33-1.496l.011-1.542H6.596l-.025.409a4.752 4.752 0 01-.378 1.544c-.15.354-.168.439-.168.778v.382l1.536-.014 1.536-.014zm1.857 1.52c0-.028-.038-.083-.085-.124-.261-.224-1.01-1.436-1.157-1.873-.031-.093-.074-.169-.095-.169-.043 0-.052 2.127-.009 2.18.045.056 1.346.042 1.346-.015zM12 11a1.6 1.6 0 01.165-.324l.109-.16-.105-.084c-.997-.798-1.671-1.828-1.893-2.893-.187-.9-.03-1.594.36-1.594.115 0 .391.194 1.342.946l1.197.946.116-.248c.064-.136.104-.264.088-.284-.052-.068-3.37-2.679-3.404-2.679-.055 0-.215.576-.285 1.028-.227 1.455.332 3.362 1.368 4.672.347.438.744.84.83.84.031 0 .081-.075.112-.166zm3.306.148c0-.01-.135-.13-.301-.27l-.301-.252-.515.19c-.926.342-.927.34.161.345.526.002.956-.003.956-.013zm5.668-.064c.406-.117.757-.37 1.099-.792.529-.652.78-1.32.743-1.971-.038-.653-.313-1.176-.807-1.537-.788-.574-1.556-.655-2.233-.234-.117.073-.24.133-.274.133-.033 0-.157-.114-.276-.252-.327-.383-.61-.552-.974-.58-.395-.03-.69.104-1.1.497l-.303.292-.442-.037c-1.306-.11-2.35.434-2.714 1.415-.056.15-.16.557-.233.904-.143.691-.31 1.174-.54 1.566-.082.14-.134.255-.117.255.018 0 .187-.074.376-.164.19-.09.575-.251.858-.358l.514-.194.095-.325c.263-.901.677-1.549 1.19-1.859.31-.187.463-.186.547.005.09.206.015.352-.272.528-.342.21-.638.592-.825 1.068-.08.205-.143.378-.138.384.005.007.258-.057.563-.14.305-.084.897-.23 1.316-.323l.761-.171.129-.32c.333-.83.946-1.433 1.61-1.586.123-.028.172-.013.244.075.18.222.082.484-.21.56-.218.055-.537.265-.727.475-.187.208-.416.592-.379.638.014.017.389-.031.834-.106 1.024-.174 1.528-.242 1.785-.243.172 0 .214.02.277.138.066.123.067.152.01.276-.077.168-.064.165-1.493.377-.598.09-1.144.176-1.213.193l-.125.03.16.158c.261.255.568.42.867.465.29.044.39.129.39.333 0 .195-.125.297-.364.297-.436 0-.982-.321-1.475-.868-.225-.25-.228-.252-.45-.217-.34.054-2.141.503-2.21.55-.073.05.287.298.823.57l.346.174h2.04c1.671 0 2.092-.014 2.317-.079zm-8.33-1.456c-.264-.267-.166-.692.18-.778.112-.029.143-.067.166-.206.024-.145.011-.185-.085-.268-.232-.2-2.09-1.655-2.15-1.682-.09-.043-.035.625.083.992.227.71.822 1.564 1.447 2.079l.288.237.078-.143c.076-.14.075-.146-.008-.231zm-1.03-1.08c-.12-.188-.113-.395.018-.546.15-.173.35-.165.48.02.124.177.128.344.011.526-.068.107-.127.139-.254.139-.128 0-.186-.032-.255-.14zm-5.603.297a3.127 3.127 0 00-.23-1.891c-.144-.317-.712-1.115-.793-1.115-.02 0-.037.08-.037.178 0 .17-.164 1.027-.247 1.293-.035.113.004.179.397.659.34.416.472.623.604.94.189.454.207.45.306-.064zm1.475-1.833c0-.484.11-.823.366-1.133.278-.336.497-.436.953-.433l.395.003.029-.207c.034-.25.005-.279-.33-.326-.719-.103-1.472.436-1.715 1.226-.075.246-.09.385-.076.727.01.233.032.453.05.488.018.035.099.064.18.064h.148v-.409zm1.701.238a9.046 9.046 0 01-.055-.636c-.031-.543-.066-.59-.425-.553-.514.053-.824.596-.692 1.215l.031.145h1.169zm4.525-1.348c.101-.243.346-.52.56-.631.195-.103.623-.099.825.007.202.107.397.31.507.53.085.168.096.173.314.148a1.45 1.45 0 00.238-.038 1.766 1.766 0 00-.078-.31c-.116-.381-.43-.781-.76-.97-.215-.124-.302-.142-.656-.142-.356.001-.44.02-.648.144-.448.268-.837.888-.922 1.469-.027.187-.022.195.223.384l.251.192.03-.289c.017-.159.07-.381.116-.494zm.693.468c.147-.086.362-.185.477-.221.234-.074.254-.114.113-.226-.27-.213-.608-.116-.794.227-.085.156-.132.375-.08.375.01 0 .138-.07.284-.155z" />
</svg>