<svg xmlns="http://www.w3.org/2000/svg" fill="currentColor" stroke="currentColor" stroke-width="0" viewBox="0 0 24 24">
   <path
      d="M7.508 20.286c-.523-.993.346-2.036.83-2.839-1.45-1.459-2.55-3.28-3.21-5.235-.772-1.882-1.116-3.97-2.275-5.673-.42-.769-1.629-1.1-1.718-1.969.887-.536 2.085-.28 2.957.19 2.242 1.224 4.205 2.927 6.53 4.005 2.33.692 4.957.573 7.14-.541.815-.242.229 1.32.226 1.791-.234.385-.099 1.586.328.708.37-1.308 1.084-2.799 2.546-3.114 1.256-.257 2.144 1.007 2.287 2.117.415 2.877-2.065 5.797-4.95 5.95-1.031-.045-2.26.615-2.398 1.711.064.393.026 2.134-.448 1.123-.322-.547.36-1.97-.317-1.98-.204.298-.822.61-.788.954.562.806 1.247 1.918.635 2.866-.852.495-1.954.205-2.904.304-1.356-.026-2.721.071-4.069-.096a.56.56 0 01-.402-.272zm7.088-.845c.022-.907-1.283-1.474-.809-2.423.596-.856 1.4-1.563 1.93-2.475 1.082-1.55 1.518-3.425 1.895-5.247-.478-.364-1.665.665-2.48.488-1.959.069-4.073.207-5.803-.891-2.012-1.116-3.74-2.697-5.811-3.703-.439-.19-1.725-.38-.785.271 1.463 1.477 1.797 3.627 2.506 5.502.764 2.074 1.549 4.31 3.312 5.76.74.629.102 1.482-.361 2.038-.679.752-.194 1.304.698 1.12 1.902.062 3.805.028 5.708.037v-.477zm-8.527-8.553c-.105-.702-.911-1.9-.235-2.34.403.744.453 1.653.805 2.435.278.39.499 1.961-.143 1.018a9.193 9.193 0 01-.427-1.113zm12.22 4.054c1.355-.112 2.666-.768 3.433-1.913.937-1.237 1.427-3.21.298-4.482-.884-.861-2.136.11-2.628.94-.756 1.05-.57 2.394-.826 3.588-.83.657.078-1.91-.865-1.322-.516.974-.81 2.063-1.405 3.004-.22.42-1.04 1.583-.138.886.613-.464 1.39-.598 2.132-.701z" />
</svg>