<svg xmlns="http://www.w3.org/2000/svg" stroke="currentColor" fill="currentColor" stroke-width="0" viewBox="0 0 24 24">
   <path
      d="M4.656 21.057c.012-.084.621-.833 1.353-1.665.972-1.104 1.278-1.621 1.133-1.916-.11-.222-.118-.703-.02-1.07.152-.567.314-.641 1.089-.499 1.033.19 1.19-.068.51-.837-.257-.291-.38-.609-.271-.706.108-.097.365.073.572.377.556.818.727.722.717-.401-.012-1.233.676-1.979 1.577-1.71.827.245 1.058-.43.312-.914-.671-.435-.596-1.173.162-1.591.338-.187.658-.136 1.155.185.76.49 1.173.244.687-.408-.516-.694-.262-1.041.315-.43.566.6.627.551.713-.56.07-.897.625-1.47 1.326-1.368.348.051.813-.226 1.214-.724.502-.622.837-.779 1.47-.686.614.09.884-.027 1.068-.46.343-.805-.094-1.582-.83-1.472-.659.099-.746-.379-.103-.57.506-.15 1.199.428 1.408 1.176.247.884-.5 1.91-1.383 1.899-1.088-.013-2.044.884-2.01 1.885.036.997-.644 1.684-1.538 1.554l-.635-.093.466.819c.337.592.366.805.106.767-.198-.03-.467-.229-.598-.443-.4-.657-.598-.132-.278.737.338.92.031 2.118-.59 2.303-.242.072-.504-.185-.682-.667-.43-1.167-.762-1.03-.77.316-.006.997-.097 1.225-.624 1.553-.362.225-.841.28-1.158.13-.686-.322-.78.196-.162.895.257.291.38.609.272.706-.108.097-.382-.097-.609-.43-.472-.696-.9-.528-.536.21.143.292.13.79-.032 1.236-.242.662-.369.718-1.124.497-.786-.23-.944-.143-2.087 1.15-1.106 1.25-1.65 1.67-1.585 1.225zm4.454-3.203c.055-.376-.37-1.133-.917-1.634-.137-.126-.406-.06-.598.147-.277.298-.263.519.066 1.058.467.767 1.36 1.031 1.449.429zm2.25-2.755c.907-.269.464-2.018-.49-1.939-.554.046-.854.899-.541 1.534.256.52.423.586 1.032.405zm2.698-2.119c.106-.73-1.052-2.266-1.79-2.373-.839-.123-.803.373.076 1.062.413.323.846.93.962 1.346.234.835.627.817.752-.035zm2.21-4.047c.056-.382-.1-.644-.45-.758-.394-.128-.556-.027-.617.386-.044.307-.018.663.06.79.266.438.922.166 1.007-.418z" />
</svg>