<svg xmlns="http://www.w3.org/2000/svg" stroke="none" fill="currentColor" stroke-width="0" viewBox="0 0 24 24">
   <path
      d="M4.043 19.467c-1.099-.452-1.85-1.363-1.861-2.255l-.008-.727h3.03c2.668 0 3.013-.042 2.888-.354-.11-.272-.185-.289-.326-.07-.147.228-.37.224-1.142-.02C5.89 15.81 5.6 15.8 5.39 16c-.333.319-1.816.35-1.816.038 0-.123-.141-.224-.314-.224-.622 0-1.121-.817-1.044-1.712l.073-.86 5.374-.119 5.374-.118-5.432-.05c-3.431-.03-5.432-.131-5.432-.273 0-.143 2.07-.223 5.743-.223h5.743l1.208.769c.664.423 1.408 1.127 1.653 1.566.245.438.551.796.68.796.275 0 2.963-2.673 2.963-2.946 0-.102.6-.185 1.332-.185 1.5 0 1.466.362-.047.506l-.934.09.977.037c1.188.046 1.343.362 1.009 2.051-.175.884-.167 1.244.032 1.361.384.227.098 1.647-.43 2.145-.24.225-.83.585-1.311.8-.781.349-1.7.39-8.404.373-6.154-.014-7.677-.08-8.345-.355zm17.49-1.005c.857-.803.942-1.693.15-1.567l-1.228.192c-.491.077-.968-.011-1.344-.247-.533-.334-.644-.336-1.295-.013-.664.329-.762.323-1.46-.09-.573-.34-.852-.388-1.185-.21-.24.129-.87.178-1.4.11-.686-.088-1.077-.024-1.364.224-.612.53-2.313.636-3.268.202-.642-.292-1.392-.356-3.596-.306l-2.785.064.048.645c.047.634.577 1.287 1.247 1.54.187.07 4.026.136 8.532.146l8.191.018zm-9.284-2.23c.64-.655.711-.677 1.105-.336.572.496 1.573.462 1.96-.067.34-.465.704-.364.946.265.197.51 1.274.512 1.863.003.426-.37.463-.369.755.013.208.272.625.407 1.286.416 1.032.013 1.483-.272 1.743-1.103.153-.489.11-.504-1.484-.504-1.297 0-1.73.088-2.06.417-.23.23-.657.536-.949.682-.475.237-.572.194-.934-.416l-.405-.68-4.848-.001c-4.154-.001-4.848.046-4.848.334 0 .414 1.406.466 1.823.067.218-.209.28-.182.28.122 0 .74 1.063 1.489 2.115 1.489.784 0 1.099-.134 1.652-.701zm-7.17-.636c1.034-.376.671-.677-.816-.677-1.436 0-1.67.261-.605.673.666.257.724.258 1.42.004zm10.412-1.34c0-.562-1.16-.679-6.746-.679-5.632 0-6.367.083-5.987.671.192.299 12.733.307 12.733.008zm6.853-.101c.153-.382-.31-.578-1.364-.578-.657 0-1.517.453-1.517.8 0 .052.62.095 1.377.095.973 0 1.414-.093 1.504-.317zM2.57 12.05c-.289-.053-.396-.3-.396-.909 0-2.727 3.685-5.763 7.476-6.158l2.362-.244c.72-.074 2.035-.015 2.92.13 4.372.722 8.097 3.91 7.758 6.638l-.073.58-9.825.018c-5.404.01-10.004-.015-10.222-.055zm19.756-.618c.362-.346-.734-2.307-1.95-3.486-1.371-1.333-2.161-1.748-4.65-2.445-5.273-1.477-11.478.875-12.926 4.9-.183.507-.276.976-.207 1.042.172.164 19.562.153 19.733-.011zm-13.622-.999c-.53-.507-.436-1.235.22-1.714.524-.382.826-.353 1.274.121.504.533.494 1.366-.022 1.74-.573.417-.92.382-1.472-.147zM10 10c.187-.565-.024-.897-.572-.897-.535 0-.81.625-.454 1.035.383.442.855.378 1.026-.138zm-5.023.246c0-.489.487-.736.932-.474.434.257.108.897-.457.897-.31 0-.475-.147-.475-.423zM18.516 9.2c-.275-.317-.26-.41.103-.665.561-.393 1.12-.162 1.032.427-.09.594-.713.725-1.135.238zm-5.276-.878c-.081-.202-.035-.475.102-.606.356-.34 1.03-.029.937.433-.103.515-.852.64-1.039.173zM9.808 6.776c-.07-.172.018-.5.194-.727.3-.386.346-.389.717-.039.218.206.333.533.256.727-.176.437-.996.465-1.167.04z" />
</svg>