<svg xmlns="http://www.w3.org/2000/svg" stroke="currentColor" fill="currentColor" stroke-width="0" viewBox="0 0 24 24">
   <path
      d="M4.168 18.436c-.75-1.411-.884-1.494-1.373-.843-.9 1.198-1.117.864-1.118-1.722L1.675 13.4c1.242 1.03 1.782 1.588 1.989.15C4 13 4 12 6.419 12.27 9.921 12.66 15 10 17.457 6.262 18.21 5.113 19 5 20.069 5.22c.89.183.716.561 1.058-.758.405-1.564.712-1.603.968-.126.108.625.393 1.529.633 2.01.385.768.386.906.009 1.16C21 7 21.083 8.123 21.075 9.22c0 1.911-1.646 4.438-4.43 6.803-3.053 2.594-4.865 3.39-8.42 3.698C6.562 19.805 4 19 4.167 18.436zm7.994-.372c2.132-.883 5.33-3.462 7.117-5.74 1.689-2.172 1.986-9.48-1.504-5.41-1.577 1.84-1.634 1.983-1.457 3.644.102.952.066 1.73-.08 1.73-.145 0-.343-.692-.439-1.537-.158-1.384-.235-1.48-.785-.963-.48.452-.575.884-.443 2.041.093.818.043 1.468-.113 1.468-.154 0-.282-.284-.284-.63-.01-1.375-.476-2.019-1.061-1.468-.423.397-.54.948-.469 2.198l.096 1.667-.421-1.597c-.327-1.242-.555-1.537-1.02-1.323-.485.223-.565.54-.423 1.676.096.77.054 1.532-.094 1.693-.148.16-.347-.386-.441-1.214-.137-1.203-.32-1.506-.91-1.506-.694 0-.727.11-.542 1.84.14 1.317.103 1.739-.131 1.484-.18-.195-.327-.782-.327-1.305 0-1.334-.458-1.692-2.359-1.843-1.42-.113-1.703.016-1.973.903-.37 1.217-.597 3.48.474 4.186 1.427.942 5.036 1.064 7.59.006zm-9.19-2.272c0-.261-.13-.475-.288-.475-.158 0-.288.354-.288.787 0 .433.13.647.288.475.158-.172.287-.526.287-.787zm18.965-9.533c0-.261-.13-.615-.288-.787-.158-.171-.287.042-.287.475s.13.787.287.787c.158 0 .288-.213.288-.475z" />
</svg>