<svg xmlns="http://www.w3.org/2000/svg" stroke="currentColor" fill="currentColor" stroke-width="0" viewBox="0 0 26 26">

   <path
      d="M1.087 17.062c-.33-1.646 1.055-3.006 2.489-3.698 4.954-2.5 10.353-2.118 14.585-1.124 1.501 0 2.42-1.318 3.613-1.981.676-.831 1.987-.174 1.218.737-.6.839-2.481 1.157-2.187 2.35 4.216 2.212 2.68 4.879-1.32 7.26-3.114 2.685-6.49 3.37-10.356 2.652-2.475-.866-7.643-3.939-8.042-6.196zm15.289 4.281c-6.446 1.096-8.313-.443-8.997.163-.129.764 2.433 1.093 3.711 1.239 3.995.105 5.808-.556 5.286-1.402zm-.222-.673c6.553-1.266 8.396-5.762 3.103-6.883-1.367.95 1.236 1.323 1.297 2.374.425 1.317-.949 2.33-2.074 2.805-3.898 1.34-8.14 1.174-11.823.254-3.844-1.017-3.849-3.569-1.102-4.58 3.37-1.317 7.315-1.41 10.617-.898.676.293 2.038-.398.802-.785-2.25-.632-4.65-.717-6.977-.544-4.747.32-11.873 3.507-5.185 7.244 3.595 1.498 7.818 1.734 11.342 1.013zM6.5 17.79c.189-1.276.216-1.992 1.282-2.404 1.25-.566 2.587-.924 3.897-1.341-2.504-.093-5.743.2-7.181 2.068-.541 1.79 1.746 2.542 2.002 1.676zM11.943.567c-.94 4.563 4.691 7.218.953 10.11-2.75-2.998-4.41-5.95-.953-10.11z" />
</svg>