<svg xmlns="http://www.w3.org/2000/svg" stroke="currentColor" fill="currentColor" stroke-width="0" viewBox="0 0 24 24">
   <path
      d="M8.23 22.815c.054-.454.96-1.003-.099-1.072-1.744-.291-3.52-.845-4.91-1.964-.507-.6.125-1.095.504-.329 1.793 1.587 4.317 1.656 6.571 1.947 2.828.214 5.726-.082 8.403-1.037 1.301-.65 1.367-1.246 2.137-1.27.491.589-1.347 1.335-2.117 1.811-1.141.535-2.38.873-3.642.88.15.298.834 1.402.048.968-.767-.7-1.91-.566-2.87-.737-1.253-.098-2.544.122-3.637.757-.122.045-.258.092-.388.046zm-.839-6.219C5.99 15.067 5 12.963 5.358 10.857c.347-1.24 1.875-.601 2.809-.812 3.093-.097 6.192-.035 9.284-.003.959.072 1.212 1.29 2.266.814 1.269-.265 2.887.725 2.26 2.16-.387 1.2-1.784 1.311-2.756 1.812-1.356.537-2.38 1.615-3.418 2.597-.828.873-1.502 2.036-1.357 3.279-.406.646-1.783.125-2.582.302-.762-.166-2.079.327-2.478-.41.099-1.688-1.062-2.931-1.995-4zm10.353-2.962c-.66-1.022-2.083-.44-3.092-.626-2.695.008-5.394-.081-8.085.107-1.205.52.312 1.882.716 2.568.964 1.146 2.315 2.147 2.569 3.72-.216 1.445 1.69 1.033 2.57 1.026.711.003 1.52.133 1.55-.762.597-2.677 3.23-4.053 3.772-6.033zm2.537.201c1.244-.094 1.8-2.046.448-2.45-1.302-.62-2.333.772-2.39 1.945.291 1.288 1.092 1.081 1.942.505zM18 12.5c0-.32-3.517-.183-5.275-.244-2.152-.017-4.31-.024-6.456.162.196.449 1.614.169 2.25.29 3.327.013 8.889-.012 9.481-.208zm0-1.25c.255-.777-.34-.813-.916-.75H6.044V12H18zm-6.614-1.985c.957-.873.297-2.256-.357-3.09-.85-.578-1.624-1.617-.872-2.614.015-.602 1.572-1.103.807-.323-.905.953-.205 2.192.628 2.886.685.834 1.239 2.13.511 3.108-.16.2-.7.525-.717.033zm1.526-1.25c.902-.825.36-2.146-.21-2.994-.606-.798-1.528-1.943-.62-2.881.094-.633 1.455-.78.774-.076-1.036.766-.669 1.926.232 2.575.743.969 1.168 2.417.4 3.484-.178.24-.476.133-.576-.108z" />
</svg>