<svg xmlns="http://www.w3.org/2000/svg" fill="none" stroke="currentColor" stroke-width="0.5" viewBox="0 0 24 24">
   <path
      d="M8.252 21.574c-1.13-.582 3.522-5.768 5.019-7.65.619.137 1.546 1.727 1.954 1.002-.433-.573-1.04-1.017-1.567-1.519 1.015-1.284 1.987-2.597 3.055-3.846 2.012.047 4.57 2.236 4.745 3.987-.818.785-1.904 1.318-2.885 1.929-.77.188-1.535-1.848-2.168-1.016.375.729 2.28 1.444.688 1.974-.773.268-1.562 1.527-2.366 1.024-.427-.215-1.452-1.672-1.65-.832.402.675 1.742 1.188.636 1.932-1.581.676-4.85 3.28-5.46 3.015zM3.12 17.441c-.997-.742-1.443-1.906-1.955-2.942-.96-2.106-.8-4.555.393-6.56.58-1.033 1.353-1.97 2.223-2.821.511-.422 1.528-.006.974.8C3.59 7.477 3.499 9.444 3.478 11.26c.103 1.993.44 4.108 1.841 5.731-.574.479-1.452.865-2.199.449zm4.91-.288c-1.927-.742-3.074-2.563-3.41-4.276-.354-2.257-.497-4.376.751-6.427.79-1.266 2.521-1.336 2.843-1.787C7.803 3.51 6.769 2.049 7.157.84c.68-.658 2.427-.482 2.867.35.07 1.077-.177 2.256-.43 3.3-.094.667.653.579 1.247 1.156 1.6 1.897 1.44 4.424 1.186 6.663-.373 2.103-2.121 5.38-3.997 4.843zm4.938-8.403c-.155-1.338-.564-2.666-1.38-3.804.68-.682 2.648-.166 3.202.79a6.783 6.783 0 011.3 3.285c-.976 1.343-1.694 2.562-3.05 3.954-.576.252.06-3.345-.072-4.225zm7.013 2.238c-.387-.731.647-1.715.195-2.58-.11-.349-.98-1.44-.062-1.127.745.617.696 1.567.688 2.4.79-.678 1.52-1.417 2.378-2.027.837.224-.72 1.145-1.032 1.55-.334.353-1.445 1.042-.274.881 1.224-.079 2.792.26 1.711.99-1.158-.68-2.496-.427-3.604-.087zM17.104 8.68c-.16-.903-.477-1.779-.865-2.623 1.337-.06 2.151 1.201 2.468 2.221-.011.256.493 1.335-.344.998a2.861 2.861 0 01-1.259-.596z" />
</svg>