<svg version="1.1" xmlns="http://www.w3.org/2000/svg">
<defs>
<symbol id="action-redo" viewBox="0 0 8 8">
  <path d="M3.5 0c-1.93 0-3.5 1.57-3.5 3.5 0-1.38 1.12-2.5 2.5-2.5s2.5 1.12 2.5 2.5v.5h-1l2 2 2-2h-1v-.5c0-1.93-1.57-3.5-3.5-3.5z" transform="translate(0 1)"></path>
</symbol>
<symbol id="action-undo" viewBox="0 0 8 8">
  <path d="M4.5 0c-1.93 0-3.5 1.57-3.5 3.5v.5h-1l2 2 2-2h-1v-.5c0-1.38 1.12-2.5 2.5-2.5s2.5 1.12 2.5 2.5c0-1.93-1.57-3.5-3.5-3.5z" transform="translate(0 1)"></path>
</symbol>
<symbol id="bell" viewBox="0 0 8 8">
  <path d="M4 0c-1.1 0-2 .9-2 2 0 1.04-.524 1.976-1.344 2.656-.42.34-.656.824-.656 1.344h8c0-.52-.236-1.004-.656-1.344-.82-.68-1.344-1.616-1.344-2.656 0-1.1-.9-2-2-2zm-1 7c0 .55.45 1 1 1s1-.45 1-1h-2z"></path>
</symbol>
<symbol id="bolt" viewBox="0 0 8 8">
  <path d="M3 0l-3 5h2v3l3-5h-2v-3z" transform="translate(1)"></path>
</symbol>
<symbol id="bookmark" viewBox="0 0 8 8">
  <path d="M0 0v8l2-2 2 2v-8h-4z" transform="translate(2)"></path>
</symbol>
<symbol id="cart"   stroke-width="0" viewBox="0 0 512 512"  ><circle cx="176" cy="416" r="16" fill="none" stroke-linecap="round" stroke-linejoin="round" stroke-width="32"></circle><circle cx="400" cy="416" r="16" fill="none" stroke-linecap="round" stroke-linejoin="round" stroke-width="32"></circle><path fill="none" stroke-linecap="round" stroke-linejoin="round" stroke-width="32" d="M48 80h64l48 272h256"></path><path fill="none" stroke-linecap="round" stroke-linejoin="round" stroke-width="32" d="M160 288h249.44a8 8 0 007.85-6.43l28.8-144a8 8 0 00-7.85-9.57H128"></path>
</symbol>
<symbol id="ok1" viewBox="0 0 8 8">
  <path d="M6.406 0l-.719.688-2.781 2.781-.781-.781-.719-.688-1.406 1.406.688.719 1.5 1.5.719.688.719-.688 3.5-3.5.688-.719-1.406-1.406z" transform="translate(0 1)"></path>
</symbol>
<symbol id= "ok"   viewBox="0 0 8 8">
  <path d="M1.5 0l-1.5 1.5 4 4 4-4-1.5-1.5-2.5 2.5-2.5-2.5z" transform="translate(0 1)"></path>
</symbol>
<symbol id="chevron-left" viewBox="0 0 8 8">
  <path d="M4 0l-4 4 4 4 1.5-1.5-2.5-2.5 2.5-2.5-1.5-1.5z" transform="translate(1)"></path>
</symbol>
<symbol id="chevron-right" viewBox="0 0 8 8">
  <path d="M1.5 0l-1.5 1.5 2.5 2.5-2.5 2.5 1.5 1.5 4-4-4-4z" transform="translate(1)"></path>
</symbol>
<symbol id="chevron-top" viewBox="0 0 8 8">
  <path d="M4 0l-4 4 1.5 1.5 2.5-2.5 2.5 2.5 1.5-1.5-4-4z" transform="translate(0 1)"></path>
</symbol>
<symbol id="cog" viewBox="0 0 8 8">
  <path d="M3.5 0l-.5 1.188c-.1.04-.191.085-.281.125l-1.188-.5-.719.719.5 1.188c-.05.1-.095.181-.125.281l-1.188.5v1l1.188.5c.03.1.075.213.125.313l-.5 1.156.719.719 1.188-.5c.1.05.181.085.281.125l.5 1.188h1l.5-1.188c.1-.03.191-.085.281-.125l1.188.5.719-.719-.5-1.188c.04-.09.085-.181.125-.281l1.188-.5v-1l-1.188-.5c-.03-.09-.075-.191-.125-.281l.469-1.188-.688-.719-1.188.5c-.09-.04-.181-.095-.281-.125l-.5-1.188h-1zm.5 2.5c.83 0 1.5.67 1.5 1.5s-.67 1.5-1.5 1.5-1.5-.67-1.5-1.5.67-1.5 1.5-1.5z"></path>
</symbol>
<symbol id="edit" stroke="currentColor" fill="currentColor" stroke-width="0" viewBox="0 0 512 512"  ><path d="M64 368v80h80l235.727-235.729-79.999-79.998L64 368zm377.602-217.602c8.531-8.531 8.531-21.334 0-29.865l-50.135-50.135c-8.531-8.531-21.334-8.531-29.865 0l-39.468 39.469 79.999 79.998 39.469-39.467z"></path></symbol>
<symbol id="data-transfer-download" viewBox="0 0 8 8">
  <path d="M3 0v3h-2l3 3 3-3h-2v-3h-2zm-3 7v1h8v-1h-8z"></path>
</symbol>
<symbol id="task" viewBox="0 0 8 8">
  <path d="M0 0v1h8v-1h-8zm4 2l-3 3h2v3h2v-3h2l-3-3z"></path>
</symbol>
<symbol id="droplet" viewBox="0 0 8 8">
  <path d="M3 0l-.344.344c-.11.11-2.656 2.685-2.656 4.875 0 1.65 1.35 3 3 3s3-1.35 3-3c0-2.19-2.546-4.765-2.656-4.875l-.344-.344zm-1.5 4.719c.28 0 .5.22.5.5 0 .55.45 1 1 1 .28 0 .5.22.5.5s-.22.5-.5.5c-1.1 0-2-.9-2-2 0-.28.22-.5.5-.5z" transform="translate(1)"></path>
</symbol>
<symbol id="elevator" viewBox="0 0 8 8">
  <path d="M3 0l-3 3h6l-3-3zm-3 5l3 3 3-3h-6z" transform="translate(1)"></path>
</symbol>
<symbol id="euro" viewBox="0 0 8 8">
  <path d="M6 0c-1.858 0-3.398 1.278-3.844 3h-1.906l-.25 1h2c0 .345.073.68.156 1h-1.969l-.188 1h2.563c.696 1.185 1.969 2 3.438 2 .734 0 1.407-.215 2-.563v-1.219c-.531.479-1.225.781-2 .781-.888 0-1.671-.392-2.219-1h2.219l.156-1h-2.969c-.113-.317-.188-.643-.188-1h3.344l.156-1h-3.313c.414-1.16 1.507-2 2.813-2 .655 0 1.258.209 1.75.563l.156-1.063c-.57-.313-1.213-.5-1.906-.5z" transform="translate(-1)"></path>
</symbol>
<symbol id="flash" viewBox="0 0 8 8">
  <path d="M1.5 0l-1.5 3h2l-.656 2h-1.344l1 3 3-3h-1.5l1.5-3h-2l1-2h-1.5z" transform="translate(2)"></path>
</symbol>
<symbol id="enter"  stroke="currentColor" fill="currentColor" stroke-width="0" viewBox="0 0 512 512" ><path d="M417 80H137c-25.4 0-46 20.6-46 46 0 7.7 6.3 14 14 14s14-6.3 14-14c0-9.9 8.1-18 18-18h280c9.9 0 18 8.1 18 18v260c0 9.9-8.1 18-18 18H137c-9.9 0-18-8.1-18-18 0-7.7-6.3-14-14-14s-14 6.3-14 14c0 25.4 20.6 46 46 46h280c25.4 0 46-20.6 46-46V126c0-25.4-20.6-46-46-46z"></path><path d="M224 334.2c-5.4 5.4-5.4 14.3 0 19.8l.1.1c2.7 2.5 6.2 3.9 9.8 3.9 3.8 0 7.3-1.4 9.9-4.1l82.6-82.4c4.3-4.3 6.5-9.3 6.5-14.7 0-5.3-2.3-10.3-6.5-14.5l-84.6-84.4c-2.6-2.6-6.1-4.1-9.9-4.1-3.7 0-7.3 1.4-9.9 4.1-5.5 5.5-5.5 14.3 0 19.8l65.2 64.2H63c-7.7 0-14 6.3-14 14s6.3 14 14 14h224.6L224 334.2z"></path>
</symbol>
<symbol id="exit"  stroke="currentColor" fill="currentColor" stroke-width="0" viewBox="0 0 512 512" ><path fill="none" stroke-linecap="round" stroke-linejoin="round" stroke-width="32" d="M320 176v-40a40 40 0 00-40-40H88a40 40 0 00-40 40v240a40 40 0 0040 40h192a40 40 0 0040-40v-40m64-160l80 80-80 80m-193-80h273"></path>
</symbol>
<symbol id="home" viewBox="0 0 8 8">
  <path d="M4 0l-4 3h1v4h2v-2h2v2h2v-4.031l1 .031-4-3z"></path>
</symbol>
<symbol id="location" viewBox="0 0 8 8">
  <path d="M8 0l-8 4 3 1 1 3 4-8z"></path>
</symbol>
  <symbol id="person"    viewBox="0 0 19 19">
    <path  d="M9 11.041v-0.825c1.102-0.621 2-2.168 2-3.716 0-2.485 0-4.5-3-4.5s-3 2.015-3 4.5c0 1.548 0.898 3.095 2 3.716v0.825c-3.392 0.277-6 1.944-6 3.959h14c0-2.015-2.608-3.682-6-3.959z"></path>
  </symbol>
  <symbol id="phone"  viewBox="0 0 16 16">
  <path d="M11 10c-1 1-1 2-2 2s-2-1-3-2-2-2-2-3 1-1 2-2-2-4-3-4-3 3-3 3c0 2 2.055 6.055 4 8s6 4 8 4c0 0 3-2 3-3s-3-4-4-3z"> transform="translate(1)"></path>
</symbol>
<symbol id="order" stroke="currentColor" fill="currentColor" stroke-width="0" viewBox="0 0 24 24" > <path fill="none" d="M0 0h24v24H0z"></path><path d="M19 22H5a3 3 0 0 1-3-3V3a1 1 0 0 1 1-1h14a1 1 0 0 1 1 1v12h4v4a3 3 0 0 1-3 3zm-1-5v2a1 1 0 0 0 2 0v-2h-2zm-2 3V4H4v15a1 1 0 0 0 1 1h11zM6 7h8v2H6V7zm0 4h8v2H6v-2zm0 4h5v2H6v-2z"></path>
</symbol>
<symbol id="reload" viewBox="0 0 8 8">
  <path d="M4 0c-2.201 0-4 1.799-4 4s1.799 4 4 4c1.104 0 2.092-.456 2.813-1.188l-.688-.688c-.54.548-1.289.875-2.125.875-1.659 0-3-1.341-3-3s1.341-3 3-3c.834 0 1.545.354 2.094.906l-1.094 1.094h3v-3l-1.188 1.188c-.731-.72-1.719-1.188-2.813-1.188z"></path>
</symbol>
<symbol id="thumb-down" viewBox="0 0 8 8">
  <path d="M0 0v4h1v-4h-1zm2 0v4.001c.28 0 .529.101.719.281.18.19 1.151 2.115 1.281 2.375.13.26.386.393.656.313.26-.08.393-.355.313-.625-.08-.26-.469-1.594-.469-1.844s.22-.5.5-.5h1.5c.28 0 .5-.22.5-.5s-1.031-3.188-1.031-3.188c-.08-.18-.259-.313-.469-.313h-3.5z"></path>
</symbol>
<symbol id="thumb-up" viewBox="0 0 8 8">
  <path d="M4.438 0c-.19.021-.34.149-.438.344-.13.26-1.101 2.185-1.281 2.375-.19.18-.439.281-.719.281v4.001h3.5c.21 0 .389-.133.469-.313 0 0 1.031-2.908 1.031-3.188 0-.28-.22-.5-.5-.5h-1.5c-.28 0-.5-.25-.5-.5s.389-1.574.469-1.844c.08-.27-.053-.545-.313-.625-.067-.02-.155-.038-.219-.031zm-4.438 3v4h1v-4h-1z"></path>
</symbol>
  <symbol id="back"
  stroke-width="0" viewBox="0 0 512 512"  ><path fill="none" stroke-linejoin="round" stroke-width="32" d="M240 424v-96c116.4 0 159.39 33.76 208 96 0-119.23-39.57-240-208-240V88L64 256z"></path>
</symbol>
  <symbol id="error"
stroke="currentColor" fill="currentColor" stroke-width="0" viewBox="0 0 18 18" ><path d="M8.982 1.566a1.13 1.13 0 0 0-1.96 0L.165 13.233c-.457.778.091 1.767.98 1.767h13.713c.889 0 1.438-.99.98-1.767L8.982 1.566zM8 5c.535 0 .954.462.9.995l-.35 3.507a.552.552 0 0 1-1.1 0L7.1 5.995A.905.905 0 0 1 8 5zm.002 6a1 1 0 1 1 0 2 1 1 0 0 1 0-2z"></path>
  </symbol>
  <symbol id="logo"
  stroke="currentColor" fill="currentColor" stroke-width="0" viewBox="0 0 512 512"   ><path d="M410.66 180.72q-7.67-2.62-15.45-4.88 1.29-5.25 2.38-10.56c11.7-56.9 4.05-102.74-22.06-117.83-25-14.48-66 .61-107.36 36.69q-6.1 5.34-11.95 11-3.9-3.76-8-7.36c-43.35-38.58-86.8-54.83-112.88-39.69-25 14.51-32.43 57.6-21.9 111.53q1.58 8 3.55 15.93a320.85 320.85 0 00-17.77 5.6C48.46 198.9 16 226.73 16 255.59c0 29.82 34.84 59.72 87.77 77.85q6.44 2.19 13 4.07-2.13 8.49-3.77 17.17c-10 53-2.2 95.07 22.75 109.49 25.77 14.89 69-.41 111.14-37.31q5-4.38 10-9.25 6.32 6.11 13 11.86c40.8 35.18 81.09 49.39 106 34.93 25.75-14.94 34.12-60.14 23.25-115.13q-1.25-6.3-2.88-12.86 4.56-1.35 8.93-2.79c55-18.27 90.83-47.81 90.83-78-.02-29-33.52-57.01-85.36-74.9zm-129-81.08c35.43-30.91 68.55-43.11 83.65-34.39 16.07 9.29 22.32 46.75 12.22 95.88q-1 4.8-2.16 9.57a487.83 487.83 0 00-64.18-10.16 481.27 481.27 0 00-40.57-50.75q5.38-5.22 11.02-10.15zM157.73 280.25q6.51 12.6 13.61 24.89 7.23 12.54 15.07 24.71a435.28 435.28 0 01-44.24-7.13c4.24-13.72 9.46-27.97 15.56-42.47zm0-48.33c-6-14.19-11.08-28.15-15.25-41.63 13.7-3.07 28.3-5.58 43.52-7.48q-7.65 11.94-14.72 24.23t-13.58 24.88zm10.9 24.17q9.48-19.77 20.42-38.78 10.93-19 23.27-37.13c14.28-1.08 28.92-1.65 43.71-1.65s29.52.57 43.79 1.66q12.21 18.09 23.13 37t20.69 38.6Q334 275.63 323 294.73q-10.91 19-23 37.24c-14.25 1-29 1.55-44 1.55s-29.47-.47-43.46-1.38q-12.43-18.19-23.46-37.29t-20.48-38.76zM340.75 305q7.25-12.58 13.92-25.49a440.41 440.41 0 0116.12 42.32 434.44 434.44 0 01-44.79 7.65q7.62-12.09 14.75-24.48zm13.72-73.07q-6.64-12.65-13.81-25-7-12.18-14.59-24.06c15.31 1.94 30 4.52 43.77 7.67a439.89 439.89 0 01-15.37 41.39zm-98.24-107.45a439.75 439.75 0 0128.25 34.18q-28.35-1.35-56.74 0c9.33-12.34 18.88-23.79 28.49-34.18zM145.66 65.86c16.06-9.32 51.57 4 89 37.27 2.39 2.13 4.8 4.36 7.2 6.67A491.37 491.37 0 00201 160.51a499.12 499.12 0 00-64.06 10q-1.83-7.36-3.3-14.82c-9.05-46.23-3.06-81.08 12.02-89.83zm-23.41 251.85q-6-1.71-11.85-3.71c-23.4-8-42.73-18.44-56-29.81-11.88-10.19-17.9-20.36-17.9-28.6 0-17.51 26.06-39.85 69.52-55q8.19-2.85 16.52-5.21a493.54 493.54 0 0023.4 60.75 502.46 502.46 0 00-23.69 61.58zm111.13 93.67c-18.63 16.32-37.29 27.89-53.74 33.72-14.78 5.23-26.55 5.38-33.66 1.27-15.14-8.75-21.44-42.54-12.85-87.86q1.53-8 3.5-16a480.85 480.85 0 0064.69 9.39 501.2 501.2 0 0041.2 51c-2.98 2.93-6.03 5.75-9.14 8.48zm23.42-23.22c-9.72-10.51-19.42-22.14-28.88-34.64q13.79.54 28.08.54c9.78 0 19.46-.21 29-.64a439.33 439.33 0 01-28.2 34.74zm124.52 28.59c-2.86 15.44-8.61 25.74-15.72 29.86-15.13 8.78-47.48-2.63-82.36-32.72-4-3.44-8-7.13-12.07-11a484.54 484.54 0 0040.23-51.2 477.84 477.84 0 0065-10.05q1.47 5.94 2.6 11.64c4.81 24.3 5.5 46.28 2.32 63.47zm17.4-102.64c-2.62.87-5.32 1.71-8.06 2.53a483.26 483.26 0 00-24.31-60.94 481.52 481.52 0 0023.36-60.06c4.91 1.43 9.68 2.93 14.27 4.52 44.42 15.32 71.52 38 71.52 55.43 0 18.6-29.27 42.74-76.78 58.52z"></path><path d="M256 298.55a43 43 0 10-42.86-43 42.91 42.91 0 0042.86 43z"></path>
  </symbol>
  <symbol id="profile"
  viewBox="0 0 24 24" ><path fill="none" d="M0 0h24v24H0z"></path><path d="M19 5v14H5V5h14m0-2H5c-1.1 0-2 .9-2 2v14c0 1.1.9 2 2 2h14c1.1 0 2-.9 2-2V5c0-1.1-.9-2-2-2z"></path><path d="M14 17H7v-2h7v2zm3-4H7v-2h10v2zm0-4H7V7h10v2z"></path>
  </symbol>
</defs>
</svg>