<svg version="1.1" xmlns="http://www.w3.org/2000/svg">
    <defs>
        <symbol id="action-redo" viewBox="0 0 8 8">
            <path d="M3.5 0c-1.93 0-3.5 1.57-3.5 3.5 0-1.38 1.12-2.5 2.5-2.5s2.5 1.12 2.5 2.5v.5h-1l2 2 2-2h-1v-.5c0-1.93-1.57-3.5-3.5-3.5z"
                  transform="translate(0 1)"></path>
        </symbol>
        <symbol id="action-undo" viewBox="0 0 8 8">
            <path d="M4.5 0c-1.93 0-3.5 1.57-3.5 3.5v.5h-1l2 2 2-2h-1v-.5c0-1.38 1.12-2.5 2.5-2.5s2.5 1.12 2.5 2.5c0-1.93-1.57-3.5-3.5-3.5z"
                  transform="translate(0 1)"></path>
        </symbol>
        <symbol id="bell" viewBox="0 0 8 8">
            <path d="M4 0c-1.1 0-2 .9-2 2 0 1.04-.524 1.976-1.344 2.656-.42.34-.656.824-.656 1.344h8c0-.52-.236-1.004-.656-1.344-.82-.68-1.344-1.616-1.344-2.656 0-1.1-.9-2-2-2zm-1 7c0 .55.45 1 1 1s1-.45 1-1h-2z"></path>
        </symbol>
        <symbol id="bolt" viewBox="0 0 8 8">
            <path d="M3 0l-3 5h2v3l3-5h-2v-3z" transform="translate(1)"></path>
        </symbol>
        <symbol id="bookmark" viewBox="0 0 8 8">
            <path d="M0 0v8l2-2 2 2v-8h-4z" transform="translate(2)"></path>
        </symbol>
        <symbol id="cart" stroke-width="0" viewBox="0 0 512 512">
            <circle cx="176" cy="416" r="16" fill="none" stroke-linecap="round" stroke-linejoin="round"
                    stroke-width="32"></circle>
            <circle cx="400" cy="416" r="16" fill="none" stroke-linecap="round" stroke-linejoin="round"
                    stroke-width="32"></circle>
            <path fill="none" stroke-linecap="round" stroke-linejoin="round" stroke-width="32"
                  d="M48 80h64l48 272h256"></path>
            <path fill="none" stroke-linecap="round" stroke-linejoin="round" stroke-width="32"
                  d="M160 288h249.44a8 8 0 007.85-6.43l28.8-144a8 8 0 00-7.85-9.57H128"></path>
        </symbol>
        <symbol id="ok" viewBox="0 0 8 8">
            <path d="M6.406 0l-.719.688-2.781 2.781-.781-.781-.719-.688-1.406 1.406.688.719 1.5 1.5.719.688.719-.688 3.5-3.5.688-.719-1.406-1.406z"
                  transform="translate(0 1)"></path>
        </symbol>

        <symbol id="chevron-left" viewBox="0 0 16 16">
            <path d="M11.354 1.646a.5.5 0 0 1 0 .708L5.707 8l5.647 5.646a.5.5 0 0 1-.708.708l-6-6a.5.5 0 0 1 0-.708l6-6a.5.5 0 0 1 .708 0z"/>
        </symbol>

        <symbol id="chevron-right" viewBox="0 0 16 16">
            <path d="M4.646 1.646a.5.5 0 0 1 .708 0l6 6a.5.5 0 0 1 0 .708l-6 6a.5.5 0 0 1-.708-.708L10.293 8 4.646 2.354a.5.5 0 0 1 0-.708z"/>
        </symbol>
        <symbol id="chevron-top" viewBox="0 0 8 8">
            <path d="M4 0l-4 4 1.5 1.5 2.5-2.5 2.5 2.5 1.5-1.5-4-4z" transform="translate(0 1)"></path>
        </symbol>
        <symbol id="cog" viewBox="0 0 8 8">
            <path d="M3.5 0l-.5 1.188c-.1.04-.191.085-.281.125l-1.188-.5-.719.719.5 1.188c-.05.1-.095.181-.125.281l-1.188.5v1l1.188.5c.03.1.075.213.125.313l-.5 1.156.719.719 1.188-.5c.1.05.181.085.281.125l.5 1.188h1l.5-1.188c.1-.03.191-.085.281-.125l1.188.5.719-.719-.5-1.188c.04-.09.085-.181.125-.281l1.188-.5v-1l-1.188-.5c-.03-.09-.075-.191-.125-.281l.469-1.188-.688-.719-1.188.5c-.09-.04-.181-.095-.281-.125l-.5-1.188h-1zm.5 2.5c.83 0 1.5.67 1.5 1.5s-.67 1.5-1.5 1.5-1.5-.67-1.5-1.5.67-1.5 1.5-1.5z"></path>
        </symbol>
        <symbol id="edit" stroke="currentColor" fill="currentColor" stroke-width="0" viewBox="0 0 512 512">
            <path d="M64 368v80h80l235.727-235.729-79.999-79.998L64 368zm377.602-217.602c8.531-8.531 8.531-21.334 0-29.865l-50.135-50.135c-8.531-8.531-21.334-8.531-29.865 0l-39.468 39.469 79.999 79.998 39.469-39.467z"></path>
        </symbol>
        <symbol id="data-transfer-download" viewBox="0 0 8 8">
            <path d="M3 0v3h-2l3 3 3-3h-2v-3h-2zm-3 7v1h8v-1h-8z"></path>
        </symbol>
        <symbol id="task" viewBox="0 0 8 8">
            <path d="M0 0v1h8v-1h-8zm4 2l-3 3h2v3h2v-3h2l-3-3z"></path>
        </symbol>
        <symbol id="droplet" viewBox="0 0 8 8">
            <path d="M3 0l-.344.344c-.11.11-2.656 2.685-2.656 4.875 0 1.65 1.35 3 3 3s3-1.35 3-3c0-2.19-2.546-4.765-2.656-4.875l-.344-.344zm-1.5 4.719c.28 0 .5.22.5.5 0 .55.45 1 1 1 .28 0 .5.22.5.5s-.22.5-.5.5c-1.1 0-2-.9-2-2 0-.28.22-.5.5-.5z"
                  transform="translate(1)"></path>
        </symbol>
        <symbol id="elevator" viewBox="0 0 8 8">
            <path d="M3 0l-3 3h6l-3-3zm-3 5l3 3 3-3h-6z" transform="translate(1)"></path>
        </symbol>
        <symbol id="euro" viewBox="0 0 8 8">
            <path d="M6 0c-1.858 0-3.398 1.278-3.844 3h-1.906l-.25 1h2c0 .345.073.68.156 1h-1.969l-.188 1h2.563c.696 1.185 1.969 2 3.438 2 .734 0 1.407-.215 2-.563v-1.219c-.531.479-1.225.781-2 .781-.888 0-1.671-.392-2.219-1h2.219l.156-1h-2.969c-.113-.317-.188-.643-.188-1h3.344l.156-1h-3.313c.414-1.16 1.507-2 2.813-2 .655 0 1.258.209 1.75.563l.156-1.063c-.57-.313-1.213-.5-1.906-.5z"
                  transform="translate(-1)"></path>
        </symbol>
        <symbol id="flash" viewBox="0 0 8 8">
            <path d="M1.5 0l-1.5 3h2l-.656 2h-1.344l1 3 3-3h-1.5l1.5-3h-2l1-2h-1.5z" transform="translate(2)"></path>
        </symbol>
        <symbol id="enter" stroke="currentColor" fill="currentColor" stroke-width="0" viewBox="0 0 512 512">
            <path d="M417 80H137c-25.4 0-46 20.6-46 46 0 7.7 6.3 14 14 14s14-6.3 14-14c0-9.9 8.1-18 18-18h280c9.9 0 18 8.1 18 18v260c0 9.9-8.1 18-18 18H137c-9.9 0-18-8.1-18-18 0-7.7-6.3-14-14-14s-14 6.3-14 14c0 25.4 20.6 46 46 46h280c25.4 0 46-20.6 46-46V126c0-25.4-20.6-46-46-46z"></path>
            <path d="M224 334.2c-5.4 5.4-5.4 14.3 0 19.8l.1.1c2.7 2.5 6.2 3.9 9.8 3.9 3.8 0 7.3-1.4 9.9-4.1l82.6-82.4c4.3-4.3 6.5-9.3 6.5-14.7 0-5.3-2.3-10.3-6.5-14.5l-84.6-84.4c-2.6-2.6-6.1-4.1-9.9-4.1-3.7 0-7.3 1.4-9.9 4.1-5.5 5.5-5.5 14.3 0 19.8l65.2 64.2H63c-7.7 0-14 6.3-14 14s6.3 14 14 14h224.6L224 334.2z"></path>
        </symbol>
        <symbol id="exit" stroke="currentColor" fill="currentColor" stroke-width="0" viewBox="0 0 512 512">
            <path fill="none" stroke-linecap="round" stroke-linejoin="round" stroke-width="32"
                  d="M320 176v-40a40 40 0 00-40-40H88a40 40 0 00-40 40v240a40 40 0 0040 40h192a40 40 0 0040-40v-40m64-160l80 80-80 80m-193-80h273"></path>
        </symbol>
        <symbol id="home" viewBox="0 0 8 8">
            <path d="M4 0l-4 3h1v4h2v-2h2v2h2v-4.031l1 .031-4-3z"></path>
        </symbol>
        <symbol id="location" viewBox="0 0 8 8">
            <path d="M8 0l-8 4 3 1 1 3 4-8z"></path>
        </symbol>
        <symbol id="person" viewBox="0 0 19 19">
            <path d="M9 11.041v-0.825c1.102-0.621 2-2.168 2-3.716 0-2.485 0-4.5-3-4.5s-3 2.015-3 4.5c0 1.548 0.898 3.095 2 3.716v0.825c-3.392 0.277-6 1.944-6 3.959h14c0-2.015-2.608-3.682-6-3.959z"></path>
        </symbol>
        <symbol id="phone" viewBox="0 0 16 16">
            <path d="M11 10c-1 1-1 2-2 2s-2-1-3-2-2-2-2-3 1-1 2-2-2-4-3-4-3 3-3 3c0 2 2.055 6.055 4 8s6 4 8 4c0 0 3-2 3-3s-3-4-4-3z">
                transform="translate(1)">
            </path>
        </symbol>
        <symbol id="order" stroke="currentColor" fill="currentColor" stroke-width="0" viewBox="0 0 24 24">
            <path fill="none" d="M0 0h24v24H0z"></path>
            <path d="M19 22H5a3 3 0 0 1-3-3V3a1 1 0 0 1 1-1h14a1 1 0 0 1 1 1v12h4v4a3 3 0 0 1-3 3zm-1-5v2a1 1 0 0 0 2 0v-2h-2zm-2 3V4H4v15a1 1 0 0 0 1 1h11zM6 7h8v2H6V7zm0 4h8v2H6v-2zm0 4h5v2H6v-2z"></path>
        </symbol>
        <symbol id="reload" viewBox="0 0 8 8">
            <path d="M4 0c-2.201 0-4 1.799-4 4s1.799 4 4 4c1.104 0 2.092-.456 2.813-1.188l-.688-.688c-.54.548-1.289.875-2.125.875-1.659 0-3-1.341-3-3s1.341-3 3-3c.834 0 1.545.354 2.094.906l-1.094 1.094h3v-3l-1.188 1.188c-.731-.72-1.719-1.188-2.813-1.188z"></path>
        </symbol>
        <symbol id="thumb-down" viewBox="0 0 8 8">
            <path d="M0 0v4h1v-4h-1zm2 0v4.001c.28 0 .529.101.719.281.18.19 1.151 2.115 1.281 2.375.13.26.386.393.656.313.26-.08.393-.355.313-.625-.08-.26-.469-1.594-.469-1.844s.22-.5.5-.5h1.5c.28 0 .5-.22.5-.5s-1.031-3.188-1.031-3.188c-.08-.18-.259-.313-.469-.313h-3.5z"></path>
        </symbol>
        <symbol id="thumb-up" viewBox="0 0 8 8">
            <path d="M4.438 0c-.19.021-.34.149-.438.344-.13.26-1.101 2.185-1.281 2.375-.19.18-.439.281-.719.281v4.001h3.5c.21 0 .389-.133.469-.313 0 0 1.031-2.908 1.031-3.188 0-.28-.22-.5-.5-.5h-1.5c-.28 0-.5-.25-.5-.5s.389-1.574.469-1.844c.08-.27-.053-.545-.313-.625-.067-.02-.155-.038-.219-.031zm-4.438 3v4h1v-4h-1z"></path>
        </symbol>
        <symbol id="back"
                stroke-width="0" viewBox="0 0 512 512">
            <path fill="none" stroke-linejoin="round" stroke-width="32"
                  d="M240 424v-96c116.4 0 159.39 33.76 208 96 0-119.23-39.57-240-208-240V88L64 256z"></path>
        </symbol>
        <symbol id="error"
                stroke="currentColor" fill="currentColor" stroke-width="0" viewBox="0 0 18 18">
            <path d="M8.982 1.566a1.13 1.13 0 0 0-1.96 0L.165 13.233c-.457.778.091 1.767.98 1.767h13.713c.889 0 1.438-.99.98-1.767L8.982 1.566zM8 5c.535 0 .954.462.9.995l-.35 3.507a.552.552 0 0 1-1.1 0L7.1 5.995A.905.905 0 0 1 8 5zm.002 6a1 1 0 1 1 0 2 1 1 0 0 1 0-2z"></path>
        </symbol>
        <symbol id="logo"
                stroke="currentColor" fill="currentColor" stroke-width="0" viewBox="0 0 512 512">
            <path d="M410.66 180.72q-7.67-2.62-15.45-4.88 1.29-5.25 2.38-10.56c11.7-56.9 4.05-102.74-22.06-117.83-25-14.48-66 .61-107.36 36.69q-6.1 5.34-11.95 11-3.9-3.76-8-7.36c-43.35-38.58-86.8-54.83-112.88-39.69-25 14.51-32.43 57.6-21.9 111.53q1.58 8 3.55 15.93a320.85 320.85 0 00-17.77 5.6C48.46 198.9 16 226.73 16 255.59c0 29.82 34.84 59.72 87.77 77.85q6.44 2.19 13 4.07-2.13 8.49-3.77 17.17c-10 53-2.2 95.07 22.75 109.49 25.77 14.89 69-.41 111.14-37.31q5-4.38 10-9.25 6.32 6.11 13 11.86c40.8 35.18 81.09 49.39 106 34.93 25.75-14.94 34.12-60.14 23.25-115.13q-1.25-6.3-2.88-12.86 4.56-1.35 8.93-2.79c55-18.27 90.83-47.81 90.83-78-.02-29-33.52-57.01-85.36-74.9zm-129-81.08c35.43-30.91 68.55-43.11 83.65-34.39 16.07 9.29 22.32 46.75 12.22 95.88q-1 4.8-2.16 9.57a487.83 487.83 0 00-64.18-10.16 481.27 481.27 0 00-40.57-50.75q5.38-5.22 11.02-10.15zM157.73 280.25q6.51 12.6 13.61 24.89 7.23 12.54 15.07 24.71a435.28 435.28 0 01-44.24-7.13c4.24-13.72 9.46-27.97 15.56-42.47zm0-48.33c-6-14.19-11.08-28.15-15.25-41.63 13.7-3.07 28.3-5.58 43.52-7.48q-7.65 11.94-14.72 24.23t-13.58 24.88zm10.9 24.17q9.48-19.77 20.42-38.78 10.93-19 23.27-37.13c14.28-1.08 28.92-1.65 43.71-1.65s29.52.57 43.79 1.66q12.21 18.09 23.13 37t20.69 38.6Q334 275.63 323 294.73q-10.91 19-23 37.24c-14.25 1-29 1.55-44 1.55s-29.47-.47-43.46-1.38q-12.43-18.19-23.46-37.29t-20.48-38.76zM340.75 305q7.25-12.58 13.92-25.49a440.41 440.41 0 0116.12 42.32 434.44 434.44 0 01-44.79 7.65q7.62-12.09 14.75-24.48zm13.72-73.07q-6.64-12.65-13.81-25-7-12.18-14.59-24.06c15.31 1.94 30 4.52 43.77 7.67a439.89 439.89 0 01-15.37 41.39zm-98.24-107.45a439.75 439.75 0 0128.25 34.18q-28.35-1.35-56.74 0c9.33-12.34 18.88-23.79 28.49-34.18zM145.66 65.86c16.06-9.32 51.57 4 89 37.27 2.39 2.13 4.8 4.36 7.2 6.67A491.37 491.37 0 00201 160.51a499.12 499.12 0 00-64.06 10q-1.83-7.36-3.3-14.82c-9.05-46.23-3.06-81.08 12.02-89.83zm-23.41 251.85q-6-1.71-11.85-3.71c-23.4-8-42.73-18.44-56-29.81-11.88-10.19-17.9-20.36-17.9-28.6 0-17.51 26.06-39.85 69.52-55q8.19-2.85 16.52-5.21a493.54 493.54 0 0023.4 60.75 502.46 502.46 0 00-23.69 61.58zm111.13 93.67c-18.63 16.32-37.29 27.89-53.74 33.72-14.78 5.23-26.55 5.38-33.66 1.27-15.14-8.75-21.44-42.54-12.85-87.86q1.53-8 3.5-16a480.85 480.85 0 0064.69 9.39 501.2 501.2 0 0041.2 51c-2.98 2.93-6.03 5.75-9.14 8.48zm23.42-23.22c-9.72-10.51-19.42-22.14-28.88-34.64q13.79.54 28.08.54c9.78 0 19.46-.21 29-.64a439.33 439.33 0 01-28.2 34.74zm124.52 28.59c-2.86 15.44-8.61 25.74-15.72 29.86-15.13 8.78-47.48-2.63-82.36-32.72-4-3.44-8-7.13-12.07-11a484.54 484.54 0 0040.23-51.2 477.84 477.84 0 0065-10.05q1.47 5.94 2.6 11.64c4.81 24.3 5.5 46.28 2.32 63.47zm17.4-102.64c-2.62.87-5.32 1.71-8.06 2.53a483.26 483.26 0 00-24.31-60.94 481.52 481.52 0 0023.36-60.06c4.91 1.43 9.68 2.93 14.27 4.52 44.42 15.32 71.52 38 71.52 55.43 0 18.6-29.27 42.74-76.78 58.52z"></path>
            <path d="M256 298.55a43 43 0 10-42.86-43 42.91 42.91 0 0042.86 43z"></path>
        </symbol>
        <symbol id="profile"
                viewBox="0 0 24 24">
            <path fill="none" d="M0 0h24v24H0z"></path>
            <path d="M19 5v14H5V5h14m0-2H5c-1.1 0-2 .9-2 2v14c0 1.1.9 2 2 2h14c1.1 0 2-.9 2-2V5c0-1.1-.9-2-2-2z"></path>
            <path d="M14 17H7v-2h7v2zm3-4H7v-2h10v2zm0-4H7V7h10v2z"></path>
        </symbol>

        <symbol id="create" viewBox="0 0 16 16">
            <path d="M15.502 1.94a.5.5 0 0 1 0 .706L14.459 3.69l-2-2L13.502.646a.5.5 0 0 1 .707 0l1.293 1.293zm-1.75 2.456-2-2L4.939 9.21a.5.5 0 0 0-.121.196l-.805 2.414a.25.25 0 0 0 .316.316l2.414-.805a.5.5 0 0 0 .196-.12l6.813-6.814z"/>
            <path d="M1 13.5A1.5 1.5 0 0 0 2.5 15h11a1.5 1.5 0 0 0 1.5-1.5v-6a.5.5 0 0 0-1 0v6a.5.5 0 0 1-.5.5h-11a.5.5 0 0 1-.5-.5v-11a.5.5 0 0 1 .5-.5H9a.5.5 0 0 0 0-1H2.5A1.5 1.5 0 0 0 1 2.5v11z"/>
        </symbol>
        <symbol id="list" viewBox="0 0 16 16">
        <path d="M14.5 3a.5.5 0 0 1 .5.5v9a.5.5 0 0 1-.5.5h-13a.5.5 0 0 1-.5-.5v-9a.5.5 0 0 1 .5-.5h13zm-13-1A1.5 1.5 0 0 0 0 3.5v9A1.5 1.5 0 0 0 1.5 14h13a1.5 1.5 0 0 0 1.5-1.5v-9A1.5 1.5 0 0 0 14.5 2h-13z"/>
        <path d="M5 8a.5.5 0 0 1 .5-.5h7a.5.5 0 0 1 0 1h-7A.5.5 0 0 1 5 8zm0-2.5a.5.5 0 0 1 .5-.5h7a.5.5 0 0 1 0 1h-7a.5.5 0 0 1-.5-.5zm0 5a.5.5 0 0 1 .5-.5h7a.5.5 0 0 1 0 1h-7a.5.5 0 0 1-.5-.5zm-1-5a.5.5 0 1 1-1 0 .5.5 0 0 1 1 0zM4 8a.5.5 0 1 1-1 0 .5.5 0 0 1 1 0zm0 2.5a.5.5 0 1 1-1 0 .5.5 0 0 1 1 0z"/>
        </symbol >
        <symbol id="users" viewBox="0 0 16 16">
            <path d="M15 14s1 0 1-1-1-4-5-4-5 3-5 4 1 1 1 1h8zm-7.978-1A.261.261 0 0 1 7 12.996c.001-.264.167-1.03.76-1.72C8.312 10.629 9.282 10 11 10c1.717 0 2.687.63 3.24 1.276.593.69.758 1.457.76 1.72l-.008.002a.274.274 0 0 1-.014.002H7.022zM11 7a2 2 0 1 0 0-4 2 2 0 0 0 0 4zm3-2a3 3 0 1 1-6 0 3 3 0 0 1 6 0zM6.936 9.28a5.88 5.88 0 0 0-1.23-.247A7.35 7.35 0 0 0 5 9c-4 0-5 3-5 4 0 .667.333 1 1 1h4.216A2.238 2.238 0 0 1 5 13c0-1.01.377-2.042 1.09-2.904.243-.294.526-.569.846-.816zM4.92 10A5.493 5.493 0 0 0 4 13H1c0-.26.164-1.03.76-1.724.545-.636 1.492-1.256 3.16-1.275zM1.5 5.5a3 3 0 1 1 6 0 3 3 0 0 1-6 0zm3-2a2 2 0 1 0 0 4 2 2 0 0 0 0-4z"/>
        </symbol>
        <symbol id="rect" viewBox="0 0 16 16">
        <path d="M11 2a3 3 0 0 1 3 3v6a3 3 0 0 1-3 3H5a3 3 0 0 1-3-3V5a3 3 0 0 1 3-3h6zM5 1a4 4 0 0 0-4 4v6a4 4 0 0 0 4 4h6a4 4 0 0 0 4-4V5a4 4 0 0 0-4-4H5z"/>
        </symbol>
        <symbol  id="email" viewBox="0 0 24 24">
         <path   d="M3 8l7.89 5.26a2 2 0 002.22 0L21 8M5 19h14a2 2 0 002-2V7a2 2 0 00-2-2H5a2 2 0 00-2 2v10a2 2 0 002 2z"/> 
         </symbol>

        <symbol  id="test" viewBox="0 0 24 24">
            <path
        d="M 22,1.65 H 2 C 5,10 5,13 11.8,13 l -0.3,8 C 6,21.5 5,21.5 5,22 c 0,0.25 14,0.3 14,0 0,-0.5 -1,-0.5 -6.4,-1 L 12.2,13 C 19,13 19,10 22,1.65 Z"    />
        </symbol>
    <symbol  id="fish" viewBox="0 0 24 24">
        <path
        d="m 17.52791,20.492166 c -0.450272,-0.575963 -0.682506,-1.376131 -0.700222,-2.412633 -0.0113,-0.660864 -0.09957,-0.809344 -0.55379,-0.931477 C 15.354807,16.900925 12.96853,16.181444 12.039038,15.871213 11.528217,15.700719 10.706167,15.610381 10.093771,15.65744 8.699186,15.764606 7.475774,15.45248 7.302523,14.945317 6.5378561,13.8104 6.3806533,12.353802 5.769333,11.187096 4.380056,9.043548 3.827577,6.3187026 4.413704,4.5010869 4.655329,3.7517953 4.669198,3.7442056 6.047346,3.6070823 c 1.668403,-0.1660031 3.338218,2.008e-4 4.455292,0.443456 0.715004,0.2837135 0.999478,0.2928326 2.202779,0.070612 1.512951,-0.2794052 2.770191,-0.062409 3.293348,0.5684237 0.473882,0.5714161 2.377783,4.318002 2.53398,4.986487 0.08358,0.357692 0.24174,0.701904 0.351472,0.764913 0.320587,0.184086 0.229474,1.424293 -0.1247,1.697391 -0.423923,0.326881 -0.409405,0.895492 0.05404,2.116282 l 0.378247,0.996374 0.972633,-0.05198 c 0.694312,-0.03711 1.219507,0.07938 1.835363,0.407067 1.09059,0.580285 1.199168,1.015834 0.336046,1.348003 -0.362133,0.139366 -0.658423,0.332796 -0.658423,0.429845 0,0.09705 -0.108509,0.176453 -0.24113,0.176453 -0.351352,0 -2.191092,1.847036 -2.680154,2.690781 -0.487293,0.840696 -0.723197,0.88698 -1.228224,0.240975 z m 0.907396,-0.605427 c 0,-0.35451 2.610473,-2.787289 3.299694,-3.075085 0.69566,-0.290485 0.75104,-0.563171 0.172768,-0.85071 -0.541858,-0.269433 -2.299545,-0.267865 -2.843352,0.0025 -0.37907,0.188489 -0.388853,0.242309 -0.09386,0.516386 0.181123,0.16828 0.329314,0.406917 0.329314,0.530303 0,0.123387 -0.198316,0.02656 -0.440701,-0.21516 -0.242386,-0.241725 -0.516936,-0.439499 -0.610111,-0.439499 -0.223183,0 -1.110596,1.659052 -1.110596,2.0763 0,0.678718 0.679149,1.916469 0.990625,1.805418 0.168421,-0.06005 0.30622,-0.217767 0.30622,-0.350491 z m 1.404915,-3.531227 c -0.285033,-0.1138 -0.321845,-0.176348 -0.10807,-0.183627 0.178316,-0.0061 0.470106,0.07656 0.648422,0.183627 0.395098,0.237228 0.05384,0.237228 -0.540352,0 z M 17.845572,16.179036 C 18.533028,15.472054 18.588101,15.32831 18.441847,14.622708 17.708623,11.085264 15.028475,6.9342662 12.491433,5.4067414 11.639006,4.8935042 10.816021,4.4866655 10.766345,4.5539519 10.744505,4.5835399 10.4984,5.1863453 10.219453,5.8935203 9.551087,7.5879337 8.296477,8.772379 6.663454,9.250647 6.005325,9.443395 5.466856,9.676758 5.466856,9.769232 c 0,0.09247 0.263412,0.550399 0.585358,1.017613 0.435596,0.632142 0.605548,0.759567 0.664271,0.49805 0.0434,-0.193286 0.181202,-0.351428 0.306223,-0.351428 0.3680997,2.01744 1.0849458,2.386739 2.967003,3.439447 0.365489,0.150311 0.664525,0.3416 0.664525,0.425087 0,0.08349 0.110926,0.151795 0.246502,0.151795 0.135576,0 0.646209,0.170878 1.134739,0.379727 1.392373,0.595249 4.338641,1.563835 4.915728,1.616047 0.07532,0.0068 0.47779,-0.338125 0.894367,-0.766534 z M 9.668094,13.201617 c -0.287186,-0.266824 -0.304917,-0.362186 -0.08028,-0.431755 0.158574,-0.04911 0.3256,0.01463 0.37117,0.141647 0.118063,0.329077 0.809562,0.285684 1.12798,-0.07078 0.157447,-0.176262 0.216879,-0.546248 0.142929,-0.889783 -0.12241,-0.568658 -0.103356,-0.584558 0.577503,-0.481903 0.95909,0.144604 1.41578,-0.330125 1.00448,-1.044157 -0.315537,-0.547785 -0.239345,-0.759209 0.185655,-0.515168 0.697303,0.400402 0.07734,2.228651 -0.755737,2.228651 -0.159891,0 -0.290712,0.09448 -0.290712,0.209945 0,0.360044 -1.039772,1.195771 -1.487723,1.195771 -0.234667,0 -0.592536,-0.154109 -0.795264,-0.342464 z M 8.262179,11.21845 c -0.251746,-0.281829 -0.200127,-0.303894 0.459852,-0.196561 0.999987,0.16263 1.36383,-0.0931 1.240774,-0.872088 -0.09589,-0.607046 -0.07727,-0.623541 0.575486,-0.509765 0.567615,0.09894 0.721147,0.03675 0.968199,-0.392139 0.240608,-0.417706 0.243151,-0.5662091 0.01409,-0.8226435 -0.378949,-0.4242317 -0.114712,-0.616309 0.493591,-0.3587982 0.755031,0.3196243 1.330665,-0.1468806 1.15993,-0.94003 -0.153857,-0.7147404 0.21282,-0.834231 0.488175,-0.159084 0.250908,0.6152017 -0.344205,1.5563277 -0.98413,1.5563277 -0.351851,0 -0.51318,0.1548368 -0.616437,0.591628 -0.09295,0.393188 -0.352447,0.679057 -0.773666,0.852287 -0.348594,0.143363 -0.637043,0.351559 -0.640998,0.462659 -0.004,0.111099 -0.189756,0.405325 -0.412892,0.653836 -0.478875,0.533332 -1.550379,0.606344 -1.971974,0.134371 z M 10,15 C 9.9968,14.91716 9.614766,14.632015 9.151031,14.366336 8.687296,14.100658 8.068153,13.676762 7.775159,13.424344 7.482166,13.171927 7.190775,13.013409 7.127625,13.072082 c -0.107911,0.10026 0.34019,1.474044 0.616093,1.888813 0.148513,0.223263 2.264806,0.259942 2.256282,0.03911 z m 8.503404,-3.33931 c 0.236797,-0.573331 -0.177932,-1.693584 -1.768497,-4.7770085 -1.0811,-2.0957903 -1.619898,-2.5771586 -2.884632,-2.5771586 -0.642219,0 -1.94871,0.5793328 -1.34422,0.5960629 0.315777,0.00874 2.463841,1.933438 3.256892,2.9182255 0.58514,0.7266099 1.786108,2.8783827 2.10153,3.7653087 0.14957,0.420574 0.480089,0.459149 0.638927,0.07457 z M 7.031363,8.700065 C 8.171989,8.159418 8.965344,7.4223115 9.547248,6.3625557 10.166327,5.2350969 10.155464,4.3952914 9.519498,4.2171214 8.591955,3.9572651 6.005353,3.8740339 5.412822,4.0849777 4.820164,4.2959666 4.818443,4.3022915 4.821386,6.2595132 4.822986,7.3391253 4.882986,8.425771 4.954665,8.6742814 5.122841,9.257332 5.836968,9.266199 7.031364,8.700065 Z M 7.42318,5.9233269 C 6.911668,5.4480811 6.87818,5.1506347 7.28072,4.6579517 7.654706,4.2002169 8.546413,4.2084194 8.999681,4.6737637 9.421223,5.1065379 9.435704,5.2987108 9.079511,5.7332199 8.616835,6.297626 7.912991,6.3784103 7.42318,5.9233269 Z m 0.9439,-0.1321655 c 0.38053,-0.1356703 0.462771,-0.7890737 0.123814,-0.983708 -0.31528,-0.1810383 -1.07877,0.085153 -1.07877,0.376113 0,0.1361407 0.116716,0.3559697 0.259369,0.4885086 0.303102,0.2816124 0.260289,0.2742828 0.695587,0.1190864 z M 7.982384,5.2101971 c 0.06843,-0.1656736 0.152231,-0.3012248 0.186233,-0.3012248 0.034,0 0.117806,0.1355512 0.186232,0.3012248 0.07502,0.1816481 0.0011,0.3012247 -0.186232,0.3012247 -0.187329,0 -0.261257,-0.1195766 -0.186233,-0.3012247 z" />
    </symbol>

        <symbol  id="alcohol" viewBox="0 0 24 24">
        <path
        d="M 6.6923691,10.789424 C 8.6290615,8.9767715 11.028974,7.8802584 10.810956,5.471419 L 10.620726,3.520107 C 12.089318,3.50213 13.55791,3.484164 15.026502,3.466197 14.586695,5.2436484 14.321728,6.9380928 15.146895,7.7829642 19.777274,11.871435 20,14 20,21.540969 14.580161,21.687507 10.42129,21.540655 5,21.589924 5,18 4.5746906,13.120921 6.6923691,10.789424 Z M 18.787081,17.790826 C 19,13 16.879793,13.973267 13.180937,13.92663 7.87462,13.85973 7.3050954,13.89868 6.7175214,14.368676 c -0.7205014,0.576319 -0.7134572,3.08697 0.00978,3.485155 0.5890329,0.324298 11.2855886,0.268415 12.0597806,-0.063 z M 11.452028,2.759661 C 10.220316,1.03678 10.427812,0.647006 12.624551,0.557109 c 2.36498,-0.09678 3.700681,0.303057 2.594415,0.776634 -0.396109,0.169569 -0.720197,0.574221 -0.720197,0.899227 0,0.459035 -0.334875,0.590921 -1.500411,0.590921 -0.825226,0 -1.521074,-0.0289 -1.54633,-0.06423 z" />
        </symbol>
        <symbol  id="cake" viewBox="0 0 24 24">
        <path
        d="m 16.680005,21.300799 c -0.891,-0.163823 -2.77425,-0.476207 -4.185,-0.694186 C 3.457682,19.21023 2.814883,19.09117 2.405414,18.737798 1.987455,18.3771 1.609592,10.855525 1.97829,10.235673 2.092634,10.04344 2.956546,9.631724 3.898096,9.320749 4.839646,9.009774 5.72543,8.668998 5.866505,8.563468 6.00758,8.457938 6.344712,8.371595 6.615688,8.371595 c 0.288956,0 0.609336,-0.264787 0.774793,-0.64035 0.406913,-0.9236363 1.047911,-1.4567372 1.751573,-1.4567372 0.35711,0 0.664942,-0.1703559 0.736833,-0.4077669 0.117597,-0.3883496 0.124969,-0.3883496 0.154798,0 0.01723,0.2242718 0.169262,0.4077669 0.337859,0.4077669 0.168596,0 0.588045,0.262136 0.932108,0.5825243 0.810823,0.7550309 1.18379,0.7372619 1.222673,-0.058252 0.01927,-0.3942284 0.07883,-0.4838824 0.154798,-0.2330097 0.0842,0.2780572 0.39631,0.4102329 0.981179,0.415519 1.204448,0.010886 2.093621,0.7282616 2.264368,1.8268686 0.138082,0.888439 0.201823,0.935066 2.791731,2.042143 1.736735,0.742382 2.701927,1.293597 2.799826,1.598964 0.202219,0.630758 0.190808,8.022009 -0.0134,8.679612 -0.145801,0.469519 -0.32165,0.521426 -1.683813,0.497027 -0.836555,-0.01498 -2.250009,-0.161281 -3.141009,-0.325105 z m 4.101521,-0.297224 c 0.222155,-0.121896 0.310967,-1.020949 0.287369,-2.909085 -0.03355,-2.684265 -0.04757,-2.742983 -0.791683,-3.315159 -0.416643,-0.320371 -0.8754,-0.582493 -1.019462,-0.582493 -0.144062,0 -0.394113,0.445631 -0.555669,0.990291 -0.161555,0.54466 -0.342114,1.115599 -0.401241,1.268753 -0.06866,0.177856 0.301961,0.311879 1.025831,0.370955 0.873551,0.07129 0.761997,0.09648 -0.486666,0.109879 -2.550166,0.02737 -3.336561,-0.136788 -3.177049,-0.663197 0.185435,-0.611957 -0.62859,-1.610662 -1.312821,-1.610662 -0.309332,0 -1.02264,0.314563 -1.58513,0.699029 -0.770748,0.526813 -1.279211,0.691212 -2.063854,0.667298 -0.624557,-0.01903 -0.79807,-0.07214 -0.433646,-0.132711 0.646756,-0.107504 0.79293,-0.408182 0.320846,-0.659974 -0.15766,-0.08409 -0.397653,-0.404841 -0.533318,-0.712781 -0.19231,-0.436516 -0.441495,-0.558257 -1.130845,-0.552479 -0.486301,0.0041 -1.12003,0.161357 -1.408288,0.349514 -0.744652,0.486064 -1.037772,0.432795 -1.928395,-0.350452 -1.124165,-0.988633 -2.112081,-0.928864 -2.78158,0.168285 -0.286338,0.46924 -0.255154,0.527602 0.29708,0.556003 l 0.617,0.03173 -0.623283,0.102764 c -0.964351,0.158998 -0.631326,0.854669 0.491348,1.0264 l 0.941935,0.144083 -1.0125,0.03067 c -1.01223,0.03066 -1.0125,0.03095 -1.0125,1.062574 0,1.272259 0.514084,1.764216 1.843568,1.764216 0.547248,0 1.419445,0.10755 1.938215,0.239001 0.518769,0.13145 1.611467,0.332499 2.428217,0.446774 2.246984,0.314387 5.910379,0.884992 7.425,1.156505 1.245065,0.223193 2.418352,0.361926 3.78,0.446959 0.297,0.01855 0.684685,-0.04567 0.861521,-0.142696 z M 18.907505,17.99356 c 0.334125,-0.05554 0.880875,-0.05554 1.215,0 0.334125,0.05554 0.06075,0.10098 -0.6075,0.10098 -0.66825,0 -0.941625,-0.04544 -0.6075,-0.10098 z m -2.561288,-0.46878 c 0.410417,-0.05356 1.017917,-0.05213 1.350001,0.0032 0.332082,0.05531 -0.0037,0.09913 -0.746213,0.09738 -0.7425,-0.0017 -1.014205,-0.047 -0.603788,-0.10056 z m -2.838712,-0.230249 c 0.334125,-0.05554 0.880875,-0.05554 1.215,0 0.334125,0.05554 0.06075,0.100979 -0.6075,0.100979 -0.66825,0 -0.941625,-0.04544 -0.6075,-0.100979 z m -2.7,-0.466019 c 0.334125,-0.05554 0.880875,-0.05554 1.215,0 0.334125,0.05554 0.06075,0.100979 -0.6075,0.100979 -0.66825,0 -0.941625,-0.04544 -0.6075,-0.100979 z m -2.7,-0.23301 c 0.334125,-0.05554 0.880875,-0.05554 1.215,0 0.334125,0.05554 0.06075,0.100979 -0.6075,0.100979 -0.66825,0 -0.941625,-0.04544 -0.6075,-0.100979 z m -2.97,-0.466019 c 0.334125,-0.05554 0.880875,-0.05554 1.215,0 0.334125,0.05554 0.06075,0.100979 -0.6075,0.100979 -0.66825,0 -0.941625,-0.04544 -0.6075,-0.100979 z m 7.968713,-0.0028 c 0.410416,-0.05356 1.017916,-0.05213 1.35,0.0032 0.332082,0.05531 -0.0037,0.09913 -0.746213,0.09738 -0.7425,-0.0017 -1.014205,-0.047 -0.603787,-0.100559 z m -5.670001,-0.69903 c 0.410417,-0.05356 1.017917,-0.05213 1.35,0.0032 0.332083,0.05531 -0.0037,0.09913 -0.746212,0.09738 -0.7425,-0.0017 -1.014205,-0.047 -0.603788,-0.10056 z M 4.736218,15.194644 c 0.410416,-0.05356 1.017916,-0.05213 1.35,0.0032 0.332082,0.05531 -0.0037,0.09913 -0.746213,0.09738 -0.7425,-0.0017 -1.014205,-0.047 -0.603787,-0.100559 z m 13.428787,-0.07494 c 0,-0.705303 0.607493,-1.388888 1.234286,-1.388888 0.212143,0 0.618589,0.20097 0.903214,0.446602 0.646887,0.558262 0.8325,0.40613 0.8325,-0.682334 0,-1.018263 -0.314151,-1.280214 -2.7,-2.25136 -2.461411,-1.001903 -2.847122,-1.08081 -3.313934,-0.677953 -0.688488,0.594165 -1.710947,0.681873 -2.609426,0.223841 -0.454652,-0.231775 -0.82664,-0.556084 -0.82664,-0.720686 0,-0.354899 -0.589911,-0.396008 -0.970425,-0.06763 C 10.02142,10.599496 7.923791,10.056169 7.532952,9.177197 7.332292,8.725925 6.073295,8.953242 3.88841,9.835233 l -1.721594,0.694971 0.15252,1.275322 c 0.171251,1.431945 0.292041,1.629715 0.786644,1.28798 0.865843,-0.598234 1.509036,-0.554206 2.357256,0.16136 0.920959,0.776929 1.719727,0.899346 2.34534,0.359443 0.22275,-0.192233 0.695155,-0.349515 1.049788,-0.349515 0.666386,0 2.016641,1.051495 2.016641,1.570435 0,0.161503 0.05081,0.293643 0.112918,0.293643 0.0621,0 0.289438,0.05846 0.505186,0.129905 0.215748,0.07145 0.562035,-0.0072 0.769527,-0.174757 0.207493,-0.167565 0.782043,-0.500272 1.276779,-0.73935 0.759802,-0.367169 0.998163,-0.389127 1.5346,-0.141366 0.349294,0.161326 0.707708,0.578688 0.796474,0.927471 0.08877,0.348783 0.41945,0.873192 0.734851,1.165355 l 0.573456,0.531204 0.493104,-0.52553 c 0.271208,-0.289037 0.493105,-0.820983 0.493105,-1.182097 z m -0.7425,-2.794208 c -0.334125,-0.115902 -0.6075,-0.266537 -0.6075,-0.334745 0,-0.276943 2.093523,-0.100036 2.580895,0.218091 0.492671,0.321585 0.467426,0.341663 -0.420895,0.334745 -0.51975,-0.004 -1.218375,-0.102188 -1.5525,-0.218091 z m -7.0875,-0.699676 c -0.51975,-0.106268 -1.85625,-0.257905 -2.97,-0.336971 -2.999877,-0.212965 -4.05,-0.370519 -4.05,-0.607641 0,-0.274284 1.980272,-0.263877 3.393412,0.01783 0.604126,0.120433 2.474849,0.330989 4.157163,0.467901 3.565389,0.290164 4.87759,0.694731 2.169425,0.66886 -0.96525,-0.0092 -2.18025,-0.103712 -2.7,-0.209981 z M 15,10 c 0.89562,-0.902704 0.400141,-2.15716 -0.969172,-2.453751 -0.765543,-0.165816 -0.944577,0.077338 -0.401823,0.545735 0.252,0.217475 0.222,0.279611 -0.135,0.279611 -0.25245,0 -0.459,-0.157281 -0.459,-0.349514 0,-0.7753399 -0.951356,-0.162723 -1.121155,0.721957 -0.05161,0.268922 0.07856,0.76698 0.28928,1.106797 0.305855,0.493239 0.579636,0.617848 1.357495,0.617848 C 14.20272,10.468683 14.693569,10.308855 15,10 Z M 11.068162,9.045842 C 11.594604,8.293316 11.359774,7.3221367 10.562314,6.9538195 10.046703,6.7156777 10.001717,6.7395127 10.135224,7.1801033 10.252242,7.566276 10.161704,7.672566 9.715728,7.672566 c -0.44234,0 -0.496723,-0.06214 -0.244723,-0.279612 0.440966,-0.3805524 0.407212,-0.6524267 -0.081,-0.6524267 -0.630435,0 -1.485,0.8700437 -1.485,1.5118997 0,1.495173 2.273326,2.065392 3.163157,0.793415 z m 1.469475,-3.9363827 c 0,-0.3203883 0.06128,-0.4514563 0.136184,-0.2912621 0.0749,0.1601941 0.0749,0.4223301 0,0.5825242 -0.0749,0.1601942 -0.136184,0.029126 -0.136184,-0.2912621 z M 10.086321,4.973537 c 0.01295,-0.271443 0.07693,-0.3266563 0.163125,-0.1407767 0.07799,0.1682039 0.0684,0.3691747 -0.02132,0.446602 -0.08972,0.077427 -0.153533,-0.060194 -0.141809,-0.3058253 z M 10.60914,4.5343534 c -0.005,-0.2754732 1.327132,-1.2889718 1.694272,-1.2889718 0.145429,0 -0.08609,0.2323077 -0.514495,0.5162391 -0.428402,0.2839314 -0.868176,0.6247081 -0.977277,0.7572816 -0.116027,0.1409881 -0.200082,0.1474017 -0.2025,0.015451 z m 2.463819,-0.3569329 c 0,-0.192233 0.104421,-0.5592233 0.232046,-0.815534 0.146263,-0.2937411 0.232046,-0.3368107 0.232046,-0.1165049 0,0.192233 -0.104421,0.5592233 -0.232046,0.815534 -0.146263,0.2937411 -0.232046,0.3368107 -0.232046,0.1165049 z m 0.610385,-1.3433739 c -0.431158,-0.2488008 -0.370073,-1.6857523 0.07166,-1.6857523 0.24,0 0.36,0.3106796 0.36,0.9320388 0,1.0109956 0.0035,1.0048394 -0.431661,0.7537135 z"
        /></symbol>
        <symbol  id="burger" viewBox="0 0 24 24">
            <path
        d="M 4.042719,19.467477 C 2.94411,19.015101 2.192268,18.103874 2.181963,17.212252 l -0.0084,-0.727018 h 3.030048 c 2.668678,0 3.013114,-0.04226 2.888046,-0.354303 C 7.982562,15.858739 7.90718,15.842424 7.766388,16.060531 7.618942,16.288945 7.395595,16.285179 6.623662,16.041261 5.891096,15.809784 5.599557,15.799982 5.390843,15.999811 5.0577,16.318771 3.57543,16.349816 3.57543,16.037831 c 0,-0.123034 -0.141415,-0.223698 -0.314255,-0.223698 -0.622471,0 -1.121419,-0.817535 -1.044674,-1.711715 l 0.07388,-0.86081 5.373832,-0.118197 5.373832,-0.118198 -5.432243,-0.04958 C 4.17459,12.924323 2.173559,12.823656 2.173559,12.68236 c 0,-0.143065 2.070135,-0.223698 5.743115,-0.223698 h 5.743115 l 1.207819,0.769037 c 0.664301,0.422971 1.408372,1.127619 1.653491,1.565885 0.245118,0.438266 0.551394,0.796847 0.680611,0.796847 0.274686,0 2.962503,-2.673419 2.962503,-2.946634 0,-0.101824 0.599299,-0.185135 1.331776,-0.185135 1.499687,0 1.466274,0.362294 -0.04673,0.506691 l -0.93458,0.08919 0.977246,0.0376 c 1.187917,0.04571 1.343321,0.361731 1.008678,2.051177 -0.174941,0.883187 -0.166402,1.243396 0.03226,1.36095 0.383677,0.227031 0.09858,1.646832 -0.430758,2.145209 -0.238493,0.224543 -0.828222,0.584422 -1.310509,0.799731 -0.78102,0.348674 -1.699779,0.389476 -8.404005,0.373223 -6.153278,-0.01492 -7.676375,-0.07971 -8.344876,-0.354976 z m 17.490195,-1.005975 c 0.857041,-0.802244 0.942194,-1.692301 0.149879,-1.566608 -0.256947,0.04076 -0.809645,0.127359 -1.228218,0.192437 -0.491061,0.07635 -0.967841,-0.01141 -1.343982,-0.247372 -0.533016,-0.334377 -0.643908,-0.335509 -1.294852,-0.01322 -0.664161,0.328829 -0.762108,0.322769 -1.460274,-0.09035 -0.572214,-0.338592 -0.850979,-0.38784 -1.184332,-0.209229 -0.239783,0.128477 -0.869417,0.177932 -1.399185,0.109901 -0.687398,-0.08827 -1.078204,-0.02406 -1.364779,0.224244 -0.612334,0.530562 -2.312958,0.635294 -3.268259,0.201273 -0.64204,-0.291702 -1.391538,-0.355299 -3.596161,-0.30515 l -2.785078,0.06335 0.04832,0.645464 c 0.04746,0.633963 0.57653,1.287135 1.247384,1.539971 0.186895,0.07044 4.026042,0.136018 8.531438,0.145732 l 8.191626,0.01766 z m -9.28372,-2.229591 c 0.639246,-0.655181 0.711064,-0.676987 1.105129,-0.335546 0.57215,0.495744 1.572881,0.461303 1.959699,-0.06745 0.340421,-0.465327 0.704203,-0.36352 0.946351,0.264844 0.196867,0.510863 1.274001,0.512581 1.862155,0.003 0.426057,-0.369161 0.463671,-0.368478 0.755574,0.01373 0.207468,0.27165 0.625008,0.406429 1.286161,0.415165 1.032152,0.01364 1.48249,-0.271339 1.742958,-1.102956 0.153012,-0.488537 0.109409,-0.503321 -1.484515,-0.503321 -1.297118,0 -1.72998,0.08763 -2.060137,0.417061 -0.229889,0.229383 -0.656662,0.536001 -0.948385,0.681374 -0.475615,0.237011 -0.572156,0.194076 -0.93458,-0.415646 l -0.404174,-0.679961 -4.848131,-0.0014 c -4.154343,-0.0012 -4.848131,0.0466 -4.848131,0.334132 0,0.414282 1.405752,0.466048 1.82243,0.06711 0.218068,-0.208785 0.280374,-0.18167 0.280374,0.122017 0,0.74051 1.063022,1.488607 2.115265,1.488607 0.783698,0 1.098611,-0.133578 1.651957,-0.700719 z M 5.078911,15.59598 c 1.033775,-0.376308 0.671443,-0.67663 -0.816336,-0.67663 -1.435086,0 -1.66992,0.261144 -0.604826,0.67259 0.666321,0.257399 0.724689,0.257565 1.421162,0.004 z m 10.412407,-1.339853 c 0,-0.562267 -1.159564,-0.678964 -6.746552,-0.678964 -5.632036,0 -6.367108,0.08239 -5.987093,0.671093 0.192688,0.298503 12.733645,0.306254 12.733645,0.0079 z m 6.852773,-0.101207 c 0.153005,-0.381748 -0.309926,-0.577757 -1.364539,-0.577757 -0.656891,0 -1.516272,0.452806 -1.516272,0.798921 0,0.05273 0.619593,0.09587 1.376872,0.09587 0.972617,0 1.414179,-0.09308 1.503939,-0.317034 z M 2.570143,12.0508 C 2.281313,11.99812 2.17356,11.751228 2.17356,11.142102 c 0,-2.72755 3.685268,-5.762663 7.476636,-6.157609 0.578271,-0.06024 1.640953,-0.170259 2.361514,-0.244491 0.720562,-0.07423 2.034814,-0.01537 2.920561,0.130799 4.371885,0.721475 8.096601,3.908252 7.757427,6.637069 l -0.07221,0.58098 -9.82538,0.01714 C 7.388146,12.11539 2.788263,12.09058 2.570143,12.0508 Z M 22.326208,11.432647 C 22.687699,11.086546 21.591576,9.126362 20.376941,7.946794 19.004648,6.61412 18.214601,6.198814 15.725706,5.501767 10.453152,4.025121 4.247766,6.377245 2.799716,10.401305 2.61717,10.908593 2.52427,11.3777 2.593273,11.443765 c 0.17147,0.16417 19.561263,0.153245 19.732935,-0.01112 z M 8.703665,10.433951 C 8.174187,9.927014 8.268177,9.198562 8.924849,8.719709 9.44769,8.338447 9.75016,8.367307 10.198096,8.841199 c 0.504022,0.533226 0.493405,1.365457 -0.0222,1.740193 C 9.602671,10.998005 9.2566,10.963347 8.703665,10.433951 Z M 10,10 C 10.187325,9.434917 9.97566,9.103207 9.42776,9.103207 8.892745,9.103207 8.618572,9.728354 8.973839,10.1382 9.356771,10.579961 9.828817,10.516387 10,10 Z m -5.022701,0.245629 c 0,-0.488663 0.487075,-0.736127 0.931402,-0.473209 0.434104,0.256869 0.108178,0.896671 -0.45678,0.896671 -0.309918,0 -0.474622,-0.146951 -0.474622,-0.423462 z M 18.516034,9.200443 C 18.240914,8.883056 18.255349,8.789457 18.618642,8.53512 19.180396,8.141842 19.73906,8.372674 19.650867,8.96162 19.561907,9.555719 18.937841,9.687052 18.516034,9.200443 Z M 13.239961,8.321761 c -0.08093,-0.201914 -0.03511,-0.47438 0.101824,-0.605481 0.355983,-0.340828 1.03047,-0.02932 0.937482,0.432966 -0.103575,0.514926 -0.852259,0.6392 -1.039306,0.172515 z M 9.808063,6.776123 c -0.06917,-0.172592 0.01829,-0.49975 0.194368,-0.727018 0.299345,-0.386374 0.345908,-0.388913 0.716837,-0.03909 0.218183,0.205769 0.333049,0.532927 0.255257,0.727018 -0.175286,0.437342 -0.995822,0.464839 -1.166462,0.03909 z"
        /></symbol>
        <symbol  id="konfet" viewBox="0 0 24 24"><path
            d="M 5.9495179,19.923892 C 4.9643546,18.935703 4.0657368,17.962212 3.9525914,17.760587 3.6399133,17.203391 4.2625226,16.839271 5.7982296,16.681208 6.5457758,16.604234 7.157405,16.450886 7.157405,16.340364 c 0,-0.11052 -0.329479,-0.537076 -0.732175,-0.947902 C 6.0225346,14.981641 5.6930574,14.53564 5.6930574,14.40136 c 0,-0.465522 8.4747996,-8.7447259 8.9405346,-8.7341908 0.250633,0.00578 0.725107,0.334245 1.054388,0.7301692 1.017525,1.2234544 1.399173,0.9796956 1.635712,-1.0447144 0.290859,-2.4893735 0.693783,-2.4954852 3.109319,-0.047163 1.556828,1.5779544 1.804762,1.9391996 1.596832,2.3266443 -0.135356,0.2522628 -0.489377,0.4632991 -0.786685,0.4689713 -0.297292,0.00578 -1.130754,0.1477525 -1.852123,0.3157342 l -1.311589,0.3054221 0.884483,0.9352607 c 0.486471,0.5143944 0.884483,1.1045804 0.884483,1.3115184 0,0.206942 -1.83889,2.217845 -4.086429,4.468673 -4.417458,4.423922 -4.781651,4.639279 -5.8845434,3.479731 C 9.5613284,18.58507 9.2122974,18.313145 9.101812,18.313145 c -0.1104818,0 -0.2772474,0.62977 -0.3705855,1.399496 -0.159753,1.317403 -0.4431096,2.007968 -0.8239296,2.007968 -0.091616,-3e-6 -0.9726148,-0.808524 -1.957779,-1.796717 z"
            /></symbol>
        <symbol  id="kura" viewBox="0 0 24 24">
            <path d="M 9.6155722,20.850174 C 8.4772766,20.404982 7.8457201,19.976018 7.8457201,19.648056 c 0,-0.143248 -0.3318478,-0.41009 -0.7374387,-0.592985 -1.7318803,-0.780959 -2.1287927,-1.020141 -2.6486758,-1.596109 -0.5426307,-0.60117 -0.8628759,-1.27568 -0.690596,-1.45455 0.048877,-0.05075 0.3220556,0.225175 0.6070756,0.61315 0.2850193,0.387975 0.9389312,0.90675 1.4531375,1.152835 0.5142059,0.246084 1.0973276,0.534029 1.2958253,0.639876 0.6879259,0.366832 3.581051,0.77919 5.44028,0.775405 3.863058,-0.0078 7.137327,-0.977214 8.348398,-2.471551 0.610671,-0.753503 0.625301,-1.335099 0.05135,-2.040734 -0.415123,-0.510353 -1.288443,-1.104842 -1.412515,-0.961531 -0.203002,0.23449 -0.29192,1.376505 -0.115965,1.489411 0.368458,0.236432 0.22605,1.071625 -0.234301,1.374117 -1.378261,0.905642 -2.297938,1.06936 -6.046997,1.07646 C 10.062257,17.65765 9.3699566,17.6012 8.5340037,17.274589 7.299465,16.792264 7.1293728,16.633667 7.4356698,16.250483 7.640796,15.993865 7.5203499,15.899399 6.6432079,15.62895 6.0743128,15.453545 5.4087102,15.114812 5.1640898,14.876211 4.9123622,14.630678 4.5869583,14.495131 4.4143448,14.563902 4.0458026,14.710736 4.022779,14.420122 4.3551793,13.817069 c 0.1351973,-0.245283 0.2458128,-0.755987 0.2458128,-1.1349 0,-0.526611 0.1039003,-0.729375 0.4409746,-0.860586 0.3694576,-0.143814 0.4898748,-0.07348 0.7424891,0.433715 0.385127,0.773244 0.514564,0.760977 0.9562912,-0.09064 0.90273,-1.740394 3.1251763,-3.0907328 5.457238,-3.3157664 1.278075,-0.1233287 1.511804,-0.2145861 2.119801,-0.8276541 0.787314,-0.7938821 2.178473,-1.4899401 2.97783,-1.4899401 0.395894,0 0.723414,-0.2151683 1.165437,-0.7656502 L 19.075853,5 19.448762,5.469367 c 0.379244,0.4773398 0.329418,1.147429 -0.07406,0.9960642 -0.498121,-0.1868666 -0.909858,0.2844419 -0.911071,1.0428752 -6.72e-4,0.4171562 -0.133408,1.0216324 -0.294977,1.3432808 -0.396755,0.7898416 -0.369831,0.9598473 0.252488,1.5945388 0.294428,0.300283 0.691902,1.006711 0.883274,1.56984 0.205505,0.604714 0.497838,1.073263 0.714083,1.144521 0.845396,0.278585 1.982453,1.70568 1.984751,2.491021 0.0025,0.799869 -0.66902,1.710664 -1.768557,2.399286 -0.594867,0.372557 -1.327199,0.737699 -1.627404,0.811428 -0.300203,0.07372 -0.847268,0.480474 -1.215693,0.90388 -0.942548,1.083198 -2.238164,1.470507 -4.843551,1.447922 -1.409663,-0.01222 -2.323224,-0.125571 -2.9324683,-0.363848 z m 6.1781818,-0.632013 c 1.220105,-0.543004 1.201918,-0.927071 -0.03286,-0.694 -1.194638,0.225491 -4.755401,0.227761 -6.0971194,0.0039 -0.8763007,-0.146218 -1.0163603,-0.126392 -0.9214425,0.130421 0.2268223,0.613701 1.4837529,0.920429 3.8558569,0.940945 1.873089,0.01623 2.459807,-0.05379 3.195565,-0.381226 z M 11.188775,8.0949609 c 0,-0.7388108 1.739306,-2.0446346 3.048081,-2.288414 1.000136,-0.1862915 1.868176,-0.6393816 1.868176,-0.975131 0,-0.6256263 0.438403,-0.7207098 0.906271,-0.1965592 l 0.465387,0.5213705 -0.636666,0.3656327 c -0.350167,0.2010981 -1.057006,0.573644 -1.570754,0.8278815 -0.513751,0.2542369 -0.934088,0.5369094 -0.934088,0.6281623 0,0.091252 -0.09787,0.165913 -0.217512,0.165913 -0.119633,0 -0.386506,0.2230623 -0.59306,0.4956947 -0.269567,0.3558156 -0.555018,0.4889781 -1.01155,0.4718932 -0.349805,-0.01309 -0.790872,0.049314 -0.980146,0.1386699 -0.247325,0.1167629 -0.344139,0.073128 -0.344139,-0.1551136 z"
            />
        </symbol>

          <symbol  id="aple" viewBox="0 0 24 24"><path
        d="M 9.4032167,21.319854 C 6.615429,20.408874 4.3472511,18.51194 3.2185447,16.185489 2.1883572,14.276077 1.9095347,12.034964 2.6435856,10.019401 3.1037963,8.9947269 4.0421514,8.1597447 5.2343029,7.7167435 6.802203,7.0358963 8.6976529,6.9108199 10.405444,7.2376177 c 0.691604,0.4311339 1.528023,0.6750905 1.4299,-0.3397352 0.03543,-1.1444323 -0.571304,-2.3951476 -1.814822,-2.9551927 -0.440359,-0.8551525 1.020798,-0.3421574 1.205281,0.1640168 0.416473,0.3046619 1.483994,1.7903889 1.468719,0.6180773 -0.117887,-0.8931901 0.31622,-1.9312403 1.474263,-2.1365474 1.224535,-0.2686999 2.535763,-0.4047112 3.791786,-0.2712732 0.198978,0.7355667 -0.651453,1.4149024 -1.103637,2.0063498 -0.634403,0.7094236 -1.495436,1.4389899 -2.647082,1.3436236 -0.952964,-0.1045965 -2.143556,0.3585829 -1.69462,1.3112902 0.522663,0.8068035 1.990331,-0.04807 2.912394,0.1530717 1.553299,-0.1378857 3.217667,0.1736522 4.322286,1.1562028 1.392336,1.0501297 2.20636,2.6117386 2.314936,4.1708166 -0.196322,1.664946 -0.88729,3.269212 -1.685142,4.793028 -0.65998,0.680445 -1.007745,1.457299 -1.804356,2.091815 -2.33334,1.955377 -5.992382,3.084072 -9.1721333,1.976693 z M 15.62373,20.489583 c 2.934532,-1.208781 4.817708,-3.753921 5.481883,-6.384251 0.417074,-1.764085 0.228636,-3.792293 -1.337081,-5.1406181 C 18.423694,7.6453301 16.182811,7.6591241 14.291371,7.7660661 13.196022,7.5212237 12.346219,8.8765848 11.406608,8.2305841 10.38223,7.5645396 8.984348,7.7826098 7.7759406,7.7408813 6.5831589,7.7081349 5.3096504,7.9232589 4.4912069,8.7155774 3.2678833,9.7508272 2.5896627,11.240301 2.8852681,12.698615 c 0.1385924,1.492156 0.4888886,3.016231 1.5279461,4.266193 0.6938531,0.87776 1.3501825,1.838717 2.370887,2.476207 0.8031106,0.395102 1.5197535,1.082042 2.5237758,1.26698 2.039064,0.464344 4.35261,0.494216 6.315853,-0.218412 z M 5.2483236,16.536742 C 4.096852,14.965709 3.5348245,13.050356 3.7812708,11.211424 3.5843493,10.676323 5.0803934,9.3225525 4.829298,10.43735 c -0.4708071,0.661643 -0.7465103,1.426849 -0.5863542,2.203387 0.2612211,1.272832 0.7344745,2.547054 1.5258468,3.658585 0.5326249,0.421436 -0.1987987,0.91761 -0.520467,0.23742 z M 15.95974,4.3477168 C 16.635036,3.9981679 17.807049,2.497816 16.187567,2.7111092 15.148979,2.8947275 14.013551,3.1301357 13.239799,3.7800263 12.80504,4.4302555 13.938792,4.5170408 14.144017,3.975609 15.000561,3.5481512 15.027144,4.3264883 14.357768,4.5568051 13.221417,5.0152322 14.389278,5.6142907 15,5 15.342198,4.8072364 15.661257,4.5861304 15.95974,4.3477168 Z" />
              />
      </symbol>
          <symbol  id="garnir" viewBox="0 0 24 24">
            <path
                    d="M 9.4263056,22.638963 C 7.9748384,22.309775 7.7218791,22.182019 6.8620475,21.34388 6.3652921,20.859655 5.4218874,20.286197 4.7655938,20.069528 1.5039569,18.992728 0.51966321,16.227542 2.7730531,14.471872 3.6766837,13.767832 3.8865025,13.391378 4.2926755,11.745374 5.0434055,8.7030651 6.9314371,6.2050639 9.3231571,5.0896876 9.9783162,4.7841568 10.671832,4.9851826 10.671832,5.4806129 c 0,0.4704509 0.799936,1.1260163 1.387496,1.1370897 0.283593,0.00529 0.884081,-0.3937846 1.334421,-0.8869549 0.637489,-0.6981101 0.938703,-0.8407552 1.360269,-0.6441562 2.523947,1.177037 4.60402,3.8758606 5.154932,6.6883755 0.228753,1.167796 0.502391,1.77429 0.959499,2.12662 2.04441,1.575831 2.404577,3.260553 1.003721,4.695035 -0.459341,0.470371 -1.457853,1.075241 -2.218891,1.344156 -0.76106,0.268913 -1.607929,0.736026 -1.881945,1.038026 -1.135632,1.251602 -2.119997,1.588926 -4.949942,1.696257 -1.52478,0.05783 -3.052565,0.04158 -3.3950864,-0.0361 z m 5.8990104,-0.918997 c 0.299541,-0.09968 0.489398,-0.352926 0.423216,-0.564475 -0.09169,-0.293256 -0.425212,-0.314036 -1.415105,-0.08817 -0.712295,0.16252 -2.331996,0.214906 -3.599319,0.116418 -2.3061631,-0.179227 -3.2084134,0.202463 -1.3700779,0.579603 0.5137798,0.105397 1.0462429,0.247501 1.1832529,0.315774 0.320309,0.159616 4.065094,-0.121853 4.778033,-0.359138 z m 1.200496,-1.772298 c 2.171623,-0.454728 3.711164,-1.068979 4.728456,-1.886565 0.866324,-0.696266 0.80058,-2.223444 -0.120043,-2.787769 -0.548831,-0.336433 -0.631785,-0.314066 -0.698761,0.188408 -0.09078,0.680682 -1.632536,2.471033 -2.127993,2.471033 -0.191936,0 -0.839489,0.215908 -1.439003,0.479794 -1.594243,0.701744 -7.5642146,0.678119 -9.7091198,-0.03842 -1.9723211,-0.658887 -3.2133899,-1.720425 -3.2133899,-2.748546 0,-0.413658 -0.1461024,-0.748325 -0.3266866,-0.748325 -0.4432809,0 -1.4170504,1.14583 -1.4170504,1.667439 0,0.756864 0.29531,1.388061 0.6494134,1.388061 0.1908542,0 0.347007,0.121198 0.347007,0.269332 0,0.404543 2.1271302,1.262133 4.2347895,1.70733 2.5133726,0.530896 6.6563488,0.548316 9.0923478,0.03824 z M 11.560791,5 c -0.701057,-0.6287739 -0.304359,-1.7336314 0.622458,-1.7336314 0.639624,0 0.730535,0.109995 0.730535,0.8839604 0,0.5241895 -0.16037,0.9594444 -0.394028,1.0694255 C 12.017816,5.4560027 12.08684,5.4718178 11.560791,5 Z"
            /></symbol>
          <symbol  id="icecream" viewBox="0 0 24 24">
            <path
                    d="m 11.928239,21.696841 c -0.201038,-0.585609 0.124392,-0.98698 0.808519,-0.997192 0.37518,-0.0056 0.257945,0.770569 -0.182978,1.211417 -0.385858,0.385794 -0.424044,0.372716 -0.625541,-0.214225 z M 11,19.598145 c -0.280984,-0.332386 0.08115,-0.679676 0.708739,-0.679676 0.292535,0 0.797391,-0.14682 1.121903,-0.326266 1.198864,-0.66294 1.936924,-0.121184 0.81799,0.600425 C 12.948826,19.643938 11.257601,19.902872 11,19.598145 Z m -0.774323,-1.904921 c -0.4182283,-0.368424 -0.137282,-0.503632 2.411446,-1.160527 2.29727,-0.592085 2.455307,-0.603857 2.455307,-0.182899 0,0.403822 -0.162489,0.474218 -2.565441,1.111431 -1.60276,0.425019 -2.032963,0.468388 -2.301312,0.231995 z M 9.4609844,15.797623 c -0.2890682,-0.34195 0.3659741,-0.814535 1.3098266,-0.944984 1.000119,-0.138225 3.362067,-0.742882 4.089526,-1.046915 0.784264,-0.327774 1.143966,-0.269194 1.143966,0.186305 0,0.223791 -0.307757,0.508836 -0.683905,0.633434 -1.173171,0.388609 -2.776286,0.783588 -3.651212,0.899593 -0.461783,0.06123 -0.914393,0.199792 -1.005801,0.307923 -0.227675,0.269325 -0.9631181,0.2477 -1.2024006,-0.03536 z M 8.6637256,14 c -0.025076,-0.105953 -0.059277,-0.307413 -0.07599,-0.447689 -0.02794,-0.234412 2.2575884,-0.928836 4.0730324,-1.237533 1.079558,-0.183567 1.27153,-0.531083 0.547118,-0.990415 -0.65354,-0.414394 -0.741019,-0.400448 -2.212845,0.352765 -1.49307,0.764085 -3.015018,1.011641 -4.3920106,0.714394 C 2.7686537,11.563807 2.753781,7.5822748 6.581616,6.6586714 7.7460276,6.377715 7.9625521,6.2320508 8.0377005,5.6791088 8.4148089,2.9043427 11.675795,1.6325059 14.716863,3.0741285 c 1.282802,0.6081145 1.670596,1.1935505 1.720539,2.5974227 0.02001,0.5624636 0.189261,0.677918 1.366591,0.9322107 0.739065,0.1596313 1.659513,0.558896 2.04544,0.8872547 1.39477,1.1867115 1.307078,3.1512744 -0.187386,4.1980494 -0.727524,0.509582 -1.278824,0.656033 -2.959803,0.786262 -1.136162,0.08802 -3.399364,0.510425 -5.029338,0.938676 C 10.042933,13.842255 8.6888027,14.105953 8.6637256,14 Z"


            /></symbol>
          <symbol  id="krevetka" viewBox="0 0 24 24">
            <path

                    d="M 12.839049,22.202841 C 10.96396,21.943906 8.4275587,20.850945 7.4947428,19.899921 7.2989841,19.700341 7.0227822,19.537048 6.8809614,19.537048 c -0.7281031,0 -4.4813602,-2.993628 -4.3103518,-3.43797 0.046944,-0.121993 0.4059663,-0.25382 0.7978137,-0.29295 0.5792032,-0.05784 0.6813064,-0.154171 0.5459328,-0.515069 -0.091584,-0.244157 -0.09399,-0.688447 -0.00536,-0.987312 0.1424787,-0.480333 0.2288795,-0.513998 0.744558,-0.290109 0.320855,0.139303 1.2321731,0.834109 2.0251508,1.544012 1.0553521,0.944791 1.7930705,1.389723 2.752483,1.660075 0.7208911,0.203139 1.4969461,0.508653 1.7245661,0.67892 1.254713,0.938568 3.143559,-0.530296 1.964641,-1.527809 -0.205692,-0.174042 -0.596766,-0.626407 -0.869062,-1.005256 -0.825864,-1.149057 -1.781457,-1.65411 -2.895327,-1.530246 -0.5353616,0.05953 -1.2388023,0.18112 -1.5632016,0.270193 -0.4473649,0.122836 -0.5898179,0.07535 -0.5898179,-0.196625 0,-0.22309 0.2228607,-0.359721 0.5898179,-0.361605 0.9101008,-0.0047 1.7694537,-0.246171 1.7694537,-0.497256 0,-0.142667 -0.5832027,-0.181996 -1.5728481,-0.106066 -1.9699376,0.151141 -2.0418667,-0.121465 -0.1276875,-0.483924 0.8537659,-0.161665 1.3774683,-0.366323 1.2797447,-0.500113 -0.1591087,-0.21783 -0.9976757,-0.165073 -2.532076,0.159301 -0.5995676,0.12675 -0.6965453,0.09119 -0.5617713,-0.205979 0.1194181,-0.263314 0.505224,-0.359175 1.4455537,-0.359175 1.0155056,0 1.282659,-0.07598 1.282659,-0.364781 0,-0.315903 -0.2346029,-0.346244 -1.7508672,-0.22644 -2.0302924,0.160418 -2.0078895,-0.26702 0.024156,-0.460817 0.661338,-0.06307 1.2024325,-0.183875 1.2024325,-0.268451 0,-0.08458 -0.6566784,-0.7228728 -1.4592844,-1.4184388 C 5.9874108,8.1156472 5.0311248,6.9906162 4.6598959,6.3045162 L 3.9868137,5.0605412 4.5460199,4.0866382 c 0.6183165,-1.07685 1.1692572,-1.336159 3.2627602,-1.5356713 0.9749642,-0.092915 1.6572673,-0.023098 2.4088239,0.2464847 1.862924,0.6682274 7.249334,5.7210756 6.781507,6.3615546 -0.0839,0.114832 -0.456099,-0.173104 -0.827155,-0.639858 -0.371056,-0.466753 -0.771428,-0.881913 -0.889698,-0.922577 -0.118271,-0.04066 -0.215044,-0.177528 -0.215044,-0.304141 0,-0.380559 -3.989776,-3.5917544 -5.035867,-4.053152 C 8.7062864,2.6548386 8.5387998,2.9215255 9.7517214,3.6845213 11.09014,4.5264592 13.924786,7.0054902 14.737993,8.0452472 c 0.363572,0.464851 0.763325,0.845184 0.88834,0.845184 0.125014,0 0.227304,0.103985 0.227304,0.231078 0,0.127094 0.206438,0.419337 0.458748,0.649428 0.681866,0.6218178 1.441131,1.7811478 1.166503,1.7811478 -0.131658,0 -1.075302,-0.928734 -2.096989,-2.0638538 C 11.557202,5.2388742 8.0422507,2.6901208 6.9773839,3.3939671 5.8428113,4.1438872 5.6069936,5.0050102 6.2199496,6.1598472 c 0.3748187,0.706175 1.121693,1.399756 1.5073124,1.399756 0.3983333,0 0.3132671,-0.72675 -0.1506656,-1.287187 -0.5514614,-0.666174 -0.387148,-0.98585 0.3325933,-0.647066 0.3163267,0.148896 1.073745,0.502579 1.6831512,0.785964 2.5480631,1.184893 5.5871921,3.541802 6.6344281,5.1451418 0.277314,0.42457 1.014587,1.256847 1.638388,1.849505 0.623794,0.592658 1.134177,1.233577 1.134177,1.424265 0,0.190687 0.160321,0.504281 0.356267,0.696875 0.651724,0.640572 0.968934,2.272795 0.608086,3.128933 -0.63332,1.502619 -1.870729,2.843618 -2.64763,2.869278 -0.132828,0.0044 -0.430819,0.152941 -0.6622,0.330121 -0.5535,0.423833 -2.185289,0.572435 -3.814839,0.347408 z m 3.073576,-0.503199 c 0.316874,-0.152491 0.736566,-0.402021 0.932669,-0.554511 0.196092,-0.152491 0.502869,-0.277256 0.681721,-0.277256 0.394307,0 1.197577,-0.909609 1.850359,-2.095312 0.466037,-0.846498 0.466295,-0.914333 0.0073,-2.055509 -0.260748,-0.649066 -0.631181,-1.290437 -0.823187,-1.425268 -0.192005,-0.13483 -0.349101,-0.402134 -0.349101,-0.594009 0,-0.191874 -0.2973,-0.611427 -0.660668,-0.93234 l -0.660668,-0.583479 -1.054288,0.848597 c -0.857741,0.690398 -1.247708,0.848598 -2.091815,0.848598 -1.258118,0 -1.303633,0.262963 -0.193946,1.120548 0.849848,0.656777 2.231339,1.031248 2.947098,0.798849 0.212735,-0.06907 0.454374,-0.03306 0.536978,0.08003 0.246907,0.338031 -1.171372,0.517604 -2.127354,0.269351 -1.226399,-0.318476 -1.190708,0.150572 0.07884,1.036012 1.124561,0.784324 0.972904,1.223436 -0.174617,0.505584 -1.520375,-0.951098 -2.573467,-0.335809 -2.260412,1.320688 0.128125,0.677953 0.07904,0.857662 -0.234223,0.857662 -0.292845,0 -0.396309,-0.251604 -0.396309,-0.963743 0,-1.019288 -0.216787,-1.265061 -1.744364,-1.977621 C 8.9898325,17.372688 8.5400183,17.44522 8.0985976,18.261674 l -0.3897401,0.720864 0.087517,-0.83103 C 7.8760427,17.395391 7.7357072,17.187434 6.2396733,15.844613 4.9726136,14.707316 4.5584346,14.45029 4.4342102,14.724199 c -0.089216,0.196727 0.1607297,0.855934 0.5597394,1.47624 0.8636239,1.342599 0.6999437,1.655983 -0.3470619,0.664491 -0.4171423,-0.395026 -0.9113386,-0.675105 -1.0982127,-0.622399 -0.4643667,0.130971 1.3555167,1.732864 2.8678887,2.524366 0.6487998,0.33955 1.65149,0.926224 2.2282012,1.303721 1.5447661,1.011154 2.2004181,1.283889 3.8002981,1.580837 1.961514,0.364065 2.787314,0.375541 3.467539,0.04819 z m -0.572593,-7.826755 c 1.234014,-0.94493 0.368688,-2.825551 -2.18389,-4.7462648 -0.822509,-0.618901 -1.057275,-0.702174 -1.250639,-0.443609 -0.198824,0.265857 -0.238728,0.258258 -0.242079,-0.04611 -0.0061,-0.596132 -0.778942,-0.692817 -1.046022,-0.130939 l -0.235465,0.495366 -0.01659,-0.480577 c -0.0095,-0.264317 0.130833,-0.528448 0.311057,-0.586958 0.338462,-0.109882 -0.400235,-0.668502 -1.5841928,-1.198004 -0.485391,-0.217082 -0.6285027,-0.211177 -0.7380864,0.03045 -0.1592186,0.351071 0.5613074,3.5352238 0.9825814,4.3422288 0.9506438,1.821084 1.7832508,2.7798 2.7159408,3.127316 0.789186,0.294046 2.705772,0.08247 3.287406,-0.362905 z M 7.9894356,8.7534342 c 0,-0.07535 -0.4710302,-0.535548 -1.0467328,-1.022666 C 5.6578638,6.6436332 5.1658683,5.4345702 5.5629049,4.3399662 5.8705757,3.4917395 5.7459441,3.3563997 5.2086538,3.9552801 4.6569733,4.5702012 4.7676624,5.9343702 5.4335592,6.7270612 c 1.3007509,1.548431 2.5558764,2.543531 2.5558764,2.026373 z"
            /></symbol>


          <symbol  id="meat" viewBox="0 0 24 24">
            <path
                    d="M 12.858886,20.380171 C 12.40769,20.270308 11.5709,19.863981 10.999352,19.477214 9.929889,18.75351 8.104468,16.527499 8.101857,15.943849 c -8.08e-4,-0.18077 -0.08253,-0.328661 -0.181608,-0.328661 -0.09908,0 -0.4726035,-0.666951 -0.8300615,-1.482109 C 6.7327298,13.317913 5.92625,12.078877 5.2980106,11.379662 3.7095504,9.61175 3.3217704,8.847811 3.3200114,7.482936 c -0.0013,-1.0038023 0.11245,-1.2850513 0.8241,-2.0377344 0.712565,-0.7536477 0.9869165,-0.8732011 2.0038339,-0.8732011 0.6480284,0 1.3065563,0.1478999 1.4633957,0.3286669 0.206091,0.2375318 1.37549,0.3286655 4.217343,0.3286655 4.423906,0 4.843746,0.1302978 6.678388,2.0727151 1.631647,1.727494 1.986746,2.766554 1.987364,5.815274 4.78e-4,2.322342 -0.06414,2.752122 -0.553417,3.681061 -0.712561,1.352874 -1.672365,2.471877 -2.626904,3.062616 -0.867034,0.53659 -3.245441,0.813746 -4.455229,0.519172 z m 4.525044,-1.533747 c 1.9112,-1.293292 3.06312,-4.525441 2.553162,-7.163866 C 19.645795,10.175436 18.931108,8.656667 18.084768,7.7462 16.677516,6.2323416 13.609031,5.3437929 11.549567,5.8537917 9.91959,6.2574366 8.304501,6.2117059 7.7722299,5.7468388 7.5227237,5.5289295 6.8424984,5.3608029 6.2103658,5.3608029 c -1.5162902,0 -2.1992894,0.7230891 -2.2047954,2.3342101 -0.0036,1.065952 0.09704,1.262654 1.3623161,2.661515 0.7514377,0.830779 1.3662503,1.643918 1.3662503,1.806979 0,0.163061 0.095564,0.296486 0.2123636,0.296486 0.1168,0 0.2772158,0.235936 0.3564795,0.524313 0.079264,0.288366 0.2654893,0.674713 0.413834,0.85854 0.1483461,0.183833 0.4746561,0.805701 0.7251361,1.381953 0.491977,1.131836 2.154461,3.182107 3.074063,3.791127 1.495863,0.99064 4.271992,0.910458 5.867917,-0.169499 z M 12.068758,18.150816 C 10.773398,17.363515 10.327095,16.936039 9.695999,15.878118 9.394059,15.371973 9.079039,14.898696 8.995955,14.826388 8.912875,14.754108 8.766038,14.399115 8.669658,14.037585 8.573278,13.676059 8.431382,13.321093 8.354332,13.248785 8.277282,13.176495 8.030356,12.698433 7.805608,12.186451 7.5808597,11.674475 6.9494758,10.846245 6.4025328,10.345919 5.8555898,9.84561 5.2504767,9.06014 5.0578367,8.600443 4.7318884,7.822609 4.7388066,7.71878 5.1575287,7.104117 5.803875,6.1553087 6.2565188,6.0786398 7.7377249,6.6670808 8.904356,7.130552 9.24903,7.157483 10.796603,6.906068 c 4.195589,-0.6816037 6.793422,0.559204 7.848281,3.748586 1.62733,4.920256 -2.699436,9.852362 -6.576126,7.496162 z m 2.544156,-4.314454 c 0.137801,-0.106244 0.368827,-0.452635 0.513391,-0.769749 0.864215,-1.895735 -2.565543,-4.033317 -3.934743,-2.452309 -0.455399,0.525855 -0.455821,0.544778 -0.03234,1.452771 0.710658,1.523741 2.550021,2.466026 3.453696,1.769287 z M 12.7002,12.659133 c -0.380429,-0.211517 -0.504972,-0.475673 -0.455416,-0.96595 0.09337,-0.923749 0.727263,-0.993953 1.449068,-0.160492 0.481464,0.555944 0.542128,0.75939 0.319002,1.069829 -0.32063,0.446096 -0.591147,0.457767 -1.312654,0.05663 z"
            /></symbol>

        <symbol  id="pirog" viewBox="0 0 24 24">
            <path
                    d="m 6.8826399,20.118187 c -0.131768,-0.07872 -0.433381,-0.844428 -0.670251,-1.701579 -0.753742,-2.727526 -1.023208,-3.285563 -1.753766,-3.631877 -0.852206,-0.40398 -1.93253,-1.920231 -1.958962,-2.749433 -0.03709,-1.163388 1.495096,-3.247236 2.81181,-3.824213 0.305702,-0.133957 0.525701,-0.412376 0.525701,-0.665301 0,-0.60286 0.999774,-1.770817 1.919767,-2.242712 0.421932,-0.216423 1.50313,-0.540581 2.4026631,-0.720352 0.899532,-0.179771 2.018417,-0.490965 2.486411,-0.691542 l 0.850896,-0.364685 0.138904,0.432005 c 0.219562,0.682864 0.167705,1.170803 -0.184198,1.733183 -0.179632,0.287071 -0.266601,0.571977 -0.193265,0.633123 0.297152,0.247757 1.881233,0.09728 2.184634,-0.207531 0.174479,-0.175289 0.717129,-0.529186 1.205889,-0.786439 0.7975,-0.419755 1.107474,-0.461998 3.021913,-0.411821 1.507534,0.03951 2.163132,0.131053 2.235104,0.312086 0.07935,0.199584 -0.09712,0.2211 -0.798858,0.0974 -1.572748,-0.277234 -2.946586,-0.174798 -4.132147,0.308101 -1.236886,0.503805 -1.592467,0.933294 -1.04803,1.265861 0.428453,0.261718 1.12527,1.350529 1.12527,1.758288 0,0.162829 0.31572,0.490674 0.701601,0.728544 0.944459,0.582199 1.640343,1.836038 1.611558,2.903695 -0.03901,1.446833 -0.355647,1.952286 -1.903596,3.038725 -0.420755,0.29531 -0.684932,0.762233 -0.881749,1.558455 -0.405729,1.641384 -0.958893,3.062838 -1.256192,3.228015 -0.141682,0.07872 -2.044987,0.143122 -4.229566,0.143122 -2.1845791,0 -4.0797731,-0.06441 -4.2115411,-0.143121 z m 8.5105751,-0.971052 c 0.655813,-2.092033 0.957975,-3.105806 0.957975,-3.214067 0,-0.06616 -0.305708,-0.113048 -0.679352,-0.104191 -0.785715,0.01863 -1.005108,0.32313 -1.412934,1.961068 -0.287135,1.153213 -0.711452,1.6707 -0.711452,0.86767 0,-0.255096 0.165334,-0.868382 0.367409,-1.362858 0.202074,-0.494475 0.3335,-1.134495 0.292056,-1.422265 l -0.07535,-0.52322 -0.578291,0.392386 c -0.504569,0.342364 -0.589735,0.581342 -0.668061,1.874581 -0.07008,1.157091 -0.166944,1.482194 -0.441621,1.482194 -0.293318,0 -0.322091,-0.186344 -0.172962,-1.12014 0.289108,-1.810296 0.276397,-1.893332 -0.30028,-1.961619 -0.509954,-0.06039 -0.525701,-0.01243 -0.525701,1.601043 0,1.39845 -0.0558,1.64544 -0.350467,1.551163 -0.272844,-0.0873 -0.350467,-0.472746 -0.350467,-1.740295 0,-1.451073 -0.053,-1.651814 -0.487301,-1.845607 -0.7028131,-0.313611 -0.7801651,-0.135263 -0.4806521,1.108216 0.14686,0.609714 0.2670181,1.462135 0.2670181,1.89427 0,1.256988 -0.4887211,0.563563 -0.6179971,-0.87685 -0.166656,-1.856904 -0.264315,-2.116707 -0.795656,-2.116707 -0.659232,0 -0.763187,0.383078 -0.374577,1.380337 0.51237,1.314859 0.649094,1.931382 0.428316,1.931382 -0.255212,0 -0.74289,-0.882116 -0.74289,-1.343746 0,-0.73554 -0.537922,-1.610393 -1.09968,-1.78847 -0.807768,-0.256063 -1.006406,-0.07871 -0.729176,0.651054 0.131737,0.346772 0.337868,1.102093 0.458069,1.678489 0.390412,1.87214 0.14115,1.776708 4.6406571,1.776708 h 3.954363 z M 13.707751,15.16051 c 0.172053,-0.111793 0.454127,-0.101077 0.743985,0.02826 1.647881,0.735321 4.073901,-0.573562 4.572694,-2.467054 0.386738,-1.468116 -2.037617,-4.142101 -2.545578,-2.807691 -0.432253,1.135523 -3.450552,1.33342 -4.47108,0.29315 -0.847419,-0.863812 -0.78409,-2.313817 0.137811,-3.155389 0.385514,-0.351923 0.700934,-0.848433 0.700934,-1.103357 0,-0.254923 0.105141,-0.517676 0.233645,-0.583895 0.238412,-0.122853 0.335195,-1.071438 0.109318,-1.071438 -0.06838,0 -0.50178,0.131495 -0.963113,0.29221 -0.461332,0.160721 -1.139239,0.292216 -1.506459,0.292216 -0.9984141,0 -2.5608281,0.580496 -3.4662231,1.287834 -0.758873,0.592868 -0.80233,0.696816 -0.788901,1.887008 0.01414,1.253006 0.468909,2.294528 1.215285,2.78326 0.178313,0.116761 0.275976,0.33293 0.217029,0.480375 -0.173014,0.432764 -1.176677,-0.669718 -1.73464,-1.90543 L 5.6699869,8.319901 4.8074459,9.060443 c -2.427193,2.083887 -2.349093,4.00302 0.225644,5.544698 1.352155,0.809632 2.713803,0.979074 3.946992,0.491161 0.628005,-0.248472 0.918786,-0.282963 1.0373261,-0.123044 0.09059,0.122215 0.580206,0.342592 1.088032,0.489727 0.919083,0.26629 1.902959,0.151931 2.602311,-0.302475 z M 9.4903479,12.181374 c -0.112334,-0.244076 0.03129,-0.272745 0.8511711,-0.1699 1.417029,0.177753 1.637186,0.463521 0.357099,0.463521 -0.7406541,0 -1.1150021,-0.09097 -1.2082701,-0.293621 z M 15.700214,10 c 0.768582,-0.613948 0.902112,-1.840917 0.264297,-2.428543 -0.467836,-0.431021 -1.01519,-0.46555 -1.01519,-0.06404 0,0.160716 -0.161409,0.292211 -0.358688,0.292211 -0.287509,0 -0.308547,-0.07811 -0.106017,-0.39364 0.525145,-0.818135 -0.292407,-1.018825 -1.537247,-0.377358 -1.517263,0.781847 -1.498365,2.46229 0.0374,3.325474 0.857143,0.481762 1.827456,0.35523 2.715447,-0.354103 z M 13.839508,8.449838 c -0.160631,-0.05404 -0.292056,-0.236034 -0.292056,-0.404427 0,-0.260102 0.07228,-0.251633 0.48036,0.05629 0.406859,0.306998 0.553342,0.324456 0.957331,0.114098 0.262335,-0.136597 0.542544,-0.193687 0.622687,-0.126866 0.379897,0.316749 -1.038884,0.606315 -1.768322,0.360907 z"

            /></symbol>
        <symbol  id="piza" viewBox="0 0 24 24">
            <path
                    d="M 5.588655,19.068505 C 5.4368761,17.354486 4.6634051,15.776764 4.2688338,14.114482 3.382287,10.940335 2.4727214,7.7712781 1.6488211,4.5804838 1.3569295,3.334164 3.1926154,4.1327015 3.8466811,4.0873274 c 3.7107245,0.5677657 7.4034749,1.2420507 11.1071839,1.851614 2.194497,0.3004649 4.355149,0.804398 6.546119,1.1183722 1.167859,-0.2677382 1.222161,0.9766381 0.736278,1.7025257 -0.94593,2.2285787 -2.369858,4.2700807 -4.288901,5.7671467 -2.907458,2.43033 -6.376494,4.205541 -10.0594781,5.101957 -0.7045882,0.04974 -1.8228941,0.545747 -2.2711601,-0.172144 -0.025213,-0.127986 -0.02761,-0.258479 -0.028068,-0.388294 z m 3.618723,-0.355484 c 2.044725,-0.739723 4.104422,-1.502608 5.906883,-2.747405 2.208248,-1.441783 4.216939,-3.259505 5.56775,-5.546984 0.52877,-0.7553369 1.199026,-1.6875011 0.844034,-2.6473644 -0.683207,-0.4834941 -1.779078,-0.6653771 -2.541905,-0.5797629 -0.676802,1.116852 -1.084986,2.393028 -1.959307,3.3912393 -2.577477,3.206318 -6.352267,5.359309 -10.3498697,6.235212 -0.3323361,0.08211 -0.6646722,0.164209 -0.9970083,0.246314 0.2218183,0.691367 0.3746007,1.412866 0.708296,2.061577 0.8024769,0.183837 1.6491867,-0.101242 2.4367544,-0.284288 l 0.1996117,-0.06277 z M 8.999785,15.679762 c 0.8131972,-0.158974 1.330638,-0.795376 2.108992,-0.938667 2.566427,-1.432583 4.892794,-3.441605 6.36684,-6.0105287 0.482108,-0.6769326 0.6604,-1.981741 -0.513358,-1.9608418 C 13.94038,6.1839316 10.876757,5.8273447 7.8673983,5.1702085 6.4709263,4.9127965 5.0347247,4.9446032 3.6594749,4.5527413 3.2399213,4.4572719 2.8203676,4.3618024 2.400814,4.266333 c 0.199527,1.2028808 0.3264475,2.4411505 0.881604,3.543471 0.4819433,1.6966013 0.7407101,3.452858 1.3354602,5.119405 0.3597192,1.172414 0.7050136,2.349168 1.0548368,3.524553 1.1280828,-0.172074 2.2435194,-0.409353 3.32707,-0.774 z M 8.025816,14.140273 C 7.2710483,13.690341 7.4332481,12.601644 7.6132298,11.869636 7.9099896,10.830333 9.194443,10.375555 10.14515,10.736941 c 0.127935,0.667934 0.402187,1.323267 1.26269,1.247645 1.062259,-0.0039 1.209622,1.484265 0.152662,1.643156 -0.798536,-0.01537 -1.7187294,-0.275878 -2.1808945,0.599398 -0.4166464,0.285025 -0.9383298,0.08827 -1.3537915,-0.08687 z m 1.418065,-1.225931 c 0.664631,-0.259497 1.813361,0.79643 2.290975,-0.08825 -0.47377,-0.871143 -1.8167352,-0.213895 -2.3223946,-0.819604 0.4498336,-0.653988 -0.1522,-1.080614 -0.6903837,-0.564036 -0.6139496,0.490798 -0.8677766,2.22782 -0.04279,2.367826 0.2885668,-0.265027 0.5664809,-0.555569 0.7645932,-0.895932 z M 5.981746,11.644476 c -0.9039795,-0.44891 -0.049369,-1.7910219 0.7964861,-1.596498 0.867323,0.101005 1.3468919,1.156423 0.3396828,1.510391 -0.3303895,0.287313 -0.7574174,0.220365 -1.1361689,0.08611 z m 0.97852,-0.669274 c 0.056405,-0.99251 -1.418523,0.336668 -0.338516,0.325859 0.1463112,-0.06509 0.2640658,-0.185415 0.338516,-0.325859 z m 5.075072,-0.04901 C 11.123853,10.634287 10.187189,9.9255546 10.325742,8.852561 10.192589,7.7002624 11.251936,6.9248227 12.269698,6.7307529 c 1.305889,-0.2936166 3.006739,-0.00796 3.708886,1.2536337 0.589277,1.2993683 -0.480023,2.7395454 -1.759973,3.0476674 -0.712079,0.214405 -1.494918,0.173748 -2.183273,-0.105862 z M 15,10 C 15.908261,9.3720216 15.719099,8.034253 14.756102,7.5747605 13.488476,6.658444 11.304802,7.0078714 10.780103,8.6072791 10.661334,9.5262165 11.544557,10.500191 12.475613,10.553555 13.344151,10.641701 14.350406,10.707616 15,10 Z M 12.393325,9.560108 c 0.412152,-1.0230345 1.493286,0.638736 0.286389,0.3483935 -0.188166,0.00524 -0.445013,-0.1252326 -0.286389,-0.3483935 z m 1.418781,-0.813679 c 0.941853,-0.9485398 0.543817,0.8040771 0,0 z m -1.619532,-0.71934 c 0.02796,-0.8897575 1.651733,0.1731563 0.471708,0.321138 C 12.43469,8.4503817 12.139825,8.3195613 12.192574,8.027089 Z M 6.296218,9.285985 C 5.8625901,8.8930382 5.6413846,8.3138332 4.8918327,8.4305469 4.1653308,8.3565821 3.195595,7.3710753 4.0511169,6.786897 4.7635434,6.1199159 5.9939414,7.0245846 6.3154984,5.8817233 7.1678654,5.2539291 8.4588113,6.0373271 8.3962619,7.0814488 8.5436914,7.9497891 8.3464101,9.0048519 7.3669467,9.254846 7.0299302,9.4643035 6.6506137,9.4171278 6.296218,9.285985 Z M 7.673091,8.181134 C 8.2561873,7.6043967 7.9057469,6.8800984 7.4557033,6.3621941 7.2586511,5.8550596 7.0883053,6.1839573 6.9181215,6.5179231 6.5122593,7.5222413 5.354814,6.9889729 4.5575724,7.1316663 3.8155213,7.8644634 5.5516728,7.8221548 6.0102487,7.8107185 6.8514948,7.6908409 6.2936036,9.5542816 7.2446263,8.7223746 7.4118419,8.5630059 7.5488823,8.3749802 7.673091,8.181134 Z" />

            /></symbol>   <symbol  id="rogalik" viewBox="0 0 24 24">
            <path
                    d="m 8.1758336,20.190382 c -0.996436,-0.329723 -3.2471999,-1.705915 -3.2471999,-1.985443 0,-0.09736 -0.239505,-0.291222 -0.5322312,-0.430831 C 3.7192652,17.451172 3.0335725,15.922367 2.6714869,13.928265 2.332516,12.061476 2.6214775,10.103707 3.42811,8.8019178 3.7109763,8.3454141 4.0602171,7.5492018 4.2041997,7.0325576 4.5108437,5.9322433 5.4099073,4.8558488 6.5189368,4.2612591 7.2015282,3.8952986 7.7744951,3.849611 10.773641,3.9219899 c 3.696295,0.089203 4.645872,0.3139259 5.799977,1.372591 0.338044,0.310082 0.997093,0.7751392 1.464581,1.0334614 0.467473,0.2583224 0.900154,0.6017737 0.961496,0.7632249 0.06136,0.1614511 0.226946,0.2937522 0.367998,0.2940017 0.141042,2.583e-4 0.584563,0.5043987 0.985601,1.1203331 0.767781,1.1791669 0.989208,2.67324 0.448727,3.027642 -0.154245,0.101149 -1.214342,0.151793 -2.355772,0.112566 -1.141427,-0.0392 -2.075316,0.02173 -2.075316,0.135426 0,0.270929 -1.911825,1.239703 -2.446475,1.239703 -0.228384,0 -0.527372,0.141416 -0.664412,0.314253 -0.137042,0.172837 -0.653449,0.441035 -1.147568,0.595991 -0.494121,0.154949 -1.146982,0.541923 -1.450793,0.859935 -0.303823,0.318016 -0.657957,0.578205 -0.7869588,0.578205 -0.530287,0 -0.181468,1.027593 0.5847588,1.722621 1.363706,1.236999 2.097529,2.009058 2.093916,2.203007 -0.01959,1.048561 -2.426798,1.540952 -4.3775674,0.895431 z m 3.5925774,-0.591221 c 0.324157,-0.281584 0.290132,-0.380577 -0.336783,-0.979923 -0.383544,-0.366675 -0.747298,-0.666685 -0.808344,-0.666685 -0.303953,0 -1.4735593,-1.608721 -1.5867594,-2.18247 -0.1536625,-0.778881 -1.2168186,-1.443248 -1.9861462,-1.241134 -0.6438378,0.169133 -2.1217447,2.01135 -2.1217447,2.644749 0,0.565832 1.6923126,1.904194 3.1306385,2.475873 1.163848,0.462579 3.1496758,0.435589 3.7091388,-0.05045 z M 4.9286337,15.944356 c 0,-0.160348 0.3568779,-0.619512 0.7930614,-1.020381 0.9152327,-0.841122 1.9380624,-0.95447 3.1556127,-0.349719 0.7035224,0.349434 0.8070224,0.349122 1.3219282,-0.0041 0.378185,-0.259366 0.604813,-0.685296 0.701541,-1.318475 0.167243,-1.094753 0.534264,-1.253318 0.534264,-0.230823 0,0.387483 0.07749,0.704516 0.172276,0.704516 0.416122,0 1.842215,-1.228165 2.272741,-1.957296 0.638757,-1.081804 0.649258,-3.3076857 0.02153,-4.5682058 C 13.010797,5.411109 12.164483,4.7586451 10.193437,4.3411714 7.9121146,3.8579766 5.7453384,4.800073 4.8172092,6.6787118 L 4.5231196,7.2739825 6.384703,7.2706625 c 1.4610821,-0.00257 1.9549847,0.085126 2.2957269,0.4076736 0.2387813,0.2260326 0.5019194,0.4109668 0.5847523,0.4109668 0.340774,0 1.3092508,1.3015815 1.7279268,2.3222461 0.383794,0.935644 0.06147,0.834522 -0.544954,-0.170964 C 9.3550482,8.4281095 8.1076355,7.6196267 6.4042662,7.6196267 c -1.0635745,0 -2.1443803,0.4433211 -2.1469875,0.8806453 -9.394e-4,0.1614513 -0.083793,0.2935476 -0.1840673,0.2935476 -0.1002737,0 -0.403159,0.529395 -0.6730764,1.1764329 -0.7554567,1.8109795 -0.6391782,3.4684835 0.4493289,6.4048345 0.2299764,0.62038 0.2634852,0.633417 0.6607068,0.257144 0.230144,-0.217999 0.4184433,-0.527564 0.4184433,-0.687904 z M 15.510464,11.905455 c 1.157211,-0.712897 1.645726,-1.824255 1.645726,-3.7439727 0,-1.3891007 -0.07969,-1.7655942 -0.448726,-2.119571 -0.904952,-0.8680808 -2.126136,-1.4403611 -3.403021,-1.594748 l -1.308506,-0.1582108 0.691716,0.5334956 c 0.91728,0.7074769 1.529339,1.7215244 2.017568,3.3426925 0.379517,1.2602058 0.380833,1.4018727 0.02398,2.5867644 -0.207633,0.689447 -0.377511,1.323514 -0.377511,1.409028 0,0.27214 0.470796,0.16834 1.15876,-0.255478 z m 4.989283,-0.905793 c 0.173417,-0.473024 -0.256851,-2.205816 -0.547718,-2.205816 -0.118645,0 -0.219655,-0.132096 -0.22447,-0.2935482 -0.0051,-0.1614513 -0.459137,-0.6403475 -1.009607,-1.0642157 L 17.717083,6.6654145 v 1.6374526 c 0,0.9005991 -0.100957,1.7027649 -0.224362,1.7825909 -0.508493,0.328948 -0.211509,0.822228 0.504816,0.83844 0.40104,0.0089 0.93108,0.10733 1.177878,0.218337 0.705929,0.317512 1.174139,0.267112 1.324332,-0.142573 z"

            /></symbol>   <symbol  id="sup" viewBox="0 0 24 24">
            <path
                    d="m 10.821094,18.880802 c 0,-2.551811 0.06604,-3.144259 0.363149,-3.256973 0.277197,-0.105167 0.36315,-0.553961 0.36315,-1.896169 v -1.758395 l -1.04154,-0.455508 C 9.9330003,11.263227 9.106758,10.611913 8.6697478,10.066394 8.2327402,9.5208734 7.7267612,9.0745397 7.5453517,9.0745397 c -0.3225751,0 -2.7270492,-1.34737 -3.5597913,-1.9947632 C 3.7546432,6.900257 3.477522,6.3337262 3.3697358,5.8208199 3.2340758,5.1752727 3.027993,4.8606022 2.7001296,4.7983851 2.4396324,4.7489547 2.0325606,4.5743992 1.7955277,4.4104918 1.3951881,4.1336602 1.4123951,4.081512 2.0376287,3.6767873 2.4078181,3.4371574 2.9092064,2.9918642 3.1518262,2.6872466 3.534043,2.2073606 3.639119,2.1790412 3.938655,2.4751866 c 0.1901362,0.1879844 0.3457031,0.5507251 0.3457031,0.806091 0,0.357056 0.2136038,0.4926269 0.9247566,0.5869326 1.0129607,0.2011687 1.6874343,0.8437097 2.5000117,1.3765637 0.1137126,0 0.2067499,-0.5351807 0.2067499,-1.1892896 0,-0.9588073 0.070375,-1.1625889 0.3631519,-1.051513 0.2595351,0.098465 0.3631518,0.4994131 0.3631518,1.4052353 0,1.2064307 0.036714,1.2801093 0.7624267,1.5302336 0.7141683,0.2432932 1.4058833,0.2602189 2.1427863,0.2627748 -0.10693,-1.3880359 -0.299826,-4.491495 0.363156,-4.3084862 0.363149,0.1118759 0.363149,2.3895189 0.363149,4.3084862 1.815431,0.1207161 2.872661,-0.384345 2.953339,-1.8255461 0.100027,-1.8764847 0.629141,-2.0078041 0.726145,-0.1802224 0.06848,1.2898312 0.09878,1.3513687 0.479465,0.9732486 0.971704,-0.5708884 1.764304,-1.0356438 2.535398,-1.3610839 0.421412,0 0.686133,-0.2272515 0.983925,-0.8446597 l 0.4074,-0.8446597 c 0.510276,0.6685436 1.177755,1.2383255 1.819104,1.6893194 0.623716,0 0.118543,0.8371494 -0.577049,0.9562724 C 21.01664,4.8650294 20.856848,5.0381537 20.716033,5.7241699 20.463,6.9568955 18.927879,8.1339157 16.079999,9.2787478 15.710084,9.4274516 15.337098,9.7303188 15.251139,9.9517855 15.001506,10.594941 14.36812,11.115493 13.345705,11.517767 l -0.950958,0.374157 -0.07203,1.746952 c -0.0569,1.380142 0.007,1.79048 0.302631,1.954248 C 12.933401,15.763571 13,16.351413 13,18.900208 V 22 h -1.089449 -1.089455 z m 1.573653,2.038799 c 0,-0.553587 -0.108455,-0.714804 -0.48089,-0.714804 -0.503391,0 -0.752262,0.600991 -0.508726,1.228474 0.252992,0.651809 0.989616,0.269454 0.989616,-0.51367 z m -0.07831,-3.10785 c -0.06024,-1.566652 -0.157809,-2.035121 -0.423674,-2.035121 -0.271995,0 -0.345366,0.43221 -0.345366,2.034564 0,1.777892 0.05347,2.034633 0.42368,2.035121 0.376457,5.03e-4 0.414947,-0.226262 0.34536,-2.034564 z m -0.76904,-7.301049 c 0,-0.7015194 -0.02772,-0.7180813 -1.202909,-0.7180813 -0.9697866,0 -1.1758952,0.06958 -1.0635519,0.3590413 0.4235506,0.580854 1.2333879,0.80849 1.7995549,1.077121 0.357382,0 0.466906,-0.168439 0.466906,-0.718081 z m 2.992765,-0.35904 c 0.11235,-0.2894594 -0.09377,-0.3590413 -1.063552,-0.3590413 -1.175163,0 -1.202908,0.016566 -1.202908,0.7180813 0,0.549642 0.109523,0.718081 0.466912,0.718081 0.773851,-0.169918 1.299212,-0.664082 1.799548,-1.077121 z M 13.83278,9.283597 c 2.041048,-0.3751381 3.670045,-1.0562679 5.159227,-2.1572193 1.360612,-1.0058993 1.58386,-1.6218317 0.870352,-2.4013174 -0.587787,-0.6421506 -1.138403,-0.5440401 -2.68885,0.4791076 -1.396511,0.9215657 -3.777201,1.716129 -5.141911,1.716129 -1.36471,0 -3.7454037,-0.7945633 -5.1419139,-1.716129 C 5.4087825,4.2269137 4.7026386,4.0789525 4.1460145,4.6292761 3.3068393,7.5940831 7.6919309,8.752753 9.8507275,9.2054131 11.986056,9.5892529 12.152047,9.5925116 13.83278,9.283597 Z M 3.6532454,3.9853664 C 3.791205,3.7691315 3.8268922,3.5158982 3.7325542,3.4226252 3.5019749,3.1946574 2.5640495,4.0527283 2.7385982,4.331957 2.9232214,4.6273018 3.3458686,4.4671467 3.653248,3.9853664 Z M 21.313972,4.3885055 C 21.62258,4.2714215 21.607115,4.180036 21.212723,3.7901047 20.956708,3.5369871 20.638292,3.3298906 20.505135,3.3298906 c -0.333986,0 -0.304119,0.561017 0.04845,0.90957 0.338433,0.3346042 0.294176,0.3259295 0.760411,0.1490449 z"

            /></symbol>   <symbol  id="sosiska" viewBox="0 0 24 24">
            <path
                    d="M 4.168403,18.435949 C 3.418036,17.02469 3.283844,16.942328 2.794765,17.592868 1.894363,18.79052 1.678087,18.457496 1.676633,15.871159 l -0.0014,-2.471666 C 2.9172017,14.428082 3.4572804,14.987355 3.66383,13.549841 4,13 4,12 6.419392,12.269592 9.9209441,12.659769 15,10 17.456672,6.2608151 18.210531,5.113402 19,5 20.068818,5.2197536 c 0.890975,0.1831883 0.71598,0.5616566 1.058032,-0.7572813 0.40561,-1.564012 0.711769,-1.6039271 0.968086,-0.1262125 0.108367,0.6247568 0.393304,1.5287564 0.633192,2.0088884 0.38438,0.7693321 0.385435,0.9071667 0.0089,1.1610299 C 21,7 21.083133,8.1232033 21.07458,9.2192438 c 0,1.9109952 -1.645202,4.4380402 -4.428795,6.8026732 -3.053879,2.594237 -4.865907,3.389997 -8.421706,3.698427 C 6.5631925,19.805394 4,19 4.168403,18.435949 Z m 7.993767,-0.371685 c 2.132064,-0.88284 5.329629,-3.462082 7.116427,-5.740303 1.689444,-2.172046 1.986331,-9.4804351 -1.503651,-5.4093371 -1.57735,1.8399942 -1.634129,1.9820261 -1.456679,3.6438531 0.101594,0.951427 0.06569,1.729229 -0.07981,1.729229 -0.145452,0 -0.343179,-0.69152 -0.439393,-1.536709 -0.157607,-1.3844926 -0.235357,-1.4798957 -0.78493,-0.9631537 -0.480947,0.4522157 -0.574642,0.8841207 -0.442881,2.0415627 0.09309,0.817761 0.04301,1.468007 -0.113058,1.468007 -0.154095,0 -0.282153,-0.28398 -0.284573,-0.631067 -0.0096,-1.373986 -0.475279,-2.018083 -1.060962,-1.467389 -0.422403,0.397168 -0.539805,0.948165 -0.46828,2.197752 l 0.09546,1.667693 -0.421159,-1.597726 c -0.327178,-1.241197 -0.554717,-1.536364 -1.019676,-1.322743 -0.485103,0.222872 -0.565331,0.54044 -0.423386,1.675875 0.09632,0.770493 0.054,1.532429 -0.09406,1.693191 -0.148057,0.160762 -0.34636,-0.385571 -0.440675,-1.214072 -0.136954,-1.20307 -0.320192,-1.506368 -0.910076,-1.506368 -0.694058,0 -0.726749,0.110959 -0.542124,1.83997 0.140705,1.317704 0.103619,1.739147 -0.130657,1.484766 -0.179921,-0.195362 -0.327129,-0.782756 -0.327129,-1.305321 0,-1.333926 -0.458072,-1.691873 -2.358617,-1.843078 C 4.651876,12.855891 4.36948,12.985086 4.099458,13.871515 3.728512,15.089253 3.5018731,17.351833 4.572544,18.05822 6,19 9.608618,19.121633 12.162172,18.06422 Z M 2.971126,15.791887 c 0,-0.261282 -0.129311,-0.475059 -0.287357,-0.475059 -0.158046,0 -0.287356,0.354185 -0.287356,0.787075 0,0.432892 0.12931,0.646669 0.287356,0.47506 0.158046,-0.17161 0.287357,-0.525793 0.287357,-0.787076 z M 21.936643,6.2592562 c 0,-0.261283 -0.129311,-0.6154662 -0.287357,-0.7870764 -0.158046,-0.171609 -0.287356,0.04217 -0.287356,0.4750597 0,0.4328908 0.12931,0.7870752 0.287356,0.7870752 0.158046,0 0.287357,-0.2137767 0.287357,-0.4750585 z"

            /></symbol>   <symbol  id="tea" viewBox="0 0 24 24">
            <path
                    d="M 8.229952,22.815068 C 8.2843354,22.361216 9.18995,21.812251 8.1313089,21.742685 6.3868559,21.45167 4.6114534,20.897816 3.2206805,19.779182 2.713893,19.179714 3.3457499,18.684267 3.7253746,19.450124 c 1.7924301,1.586544 4.3166177,1.655628 6.5706894,1.946553 2.82796,0.213988 5.72585,-0.08122 8.403135,-1.036273 1.300801,-0.651182 1.366797,-1.246297 2.136386,-1.271316 0.491771,0.589579 -1.346225,1.336078 -2.116458,1.811904 -1.141134,0.534857 -2.380419,0.872829 -3.641721,0.879168 0.149059,0.299176 0.833771,1.402912 0.04739,0.968789 -0.766334,-0.700549 -1.910244,-0.565765 -2.869581,-0.737012 -1.253473,-0.09809 -2.5440463,0.122459 -3.6371787,0.75708 -0.1219481,0.04477 -0.2578182,0.09161 -0.3880833,0.04605 z M 7.3912575,16.596059 C 5.9894957,15.067012 4.999472,12.962928 5.358495,10.857309 5.7054788,9.6164131 7.232733,10.255878 8.1668232,10.045288 c 3.0936488,-0.097071 6.1924728,-0.03506 9.2843548,-0.0035 0.958529,0.07207 1.211532,1.289925 2.265856,0.814209 1.26858,-0.264991 2.886839,0.725366 2.260758,2.159116 -0.387318,1.20096 -1.784453,1.312049 -2.756818,1.812479 -1.356069,0.537017 -2.379423,1.615152 -3.417505,2.597316 -0.828198,0.872618 -1.502498,2.036183 -1.357686,3.279006 -0.405732,0.645702 -1.782755,0.125135 -2.581742,0.302275 -0.76162,-0.165977 -2.0789135,0.326955 -2.4777715,-0.410942 0.098738,-1.687281 -1.0617711,-2.930432 -1.995012,-3.999188 z M 17.744138,13.633654 c -0.660571,-1.021756 -2.083244,-0.438723 -3.091773,-0.625443 -2.695124,0.0073 -5.3942388,-0.08165 -8.0854867,0.106529 -1.2049763,0.520999 0.3124822,1.882588 0.7156772,2.568006 0.9645631,1.146178 2.3153484,2.147636 2.5691181,3.719646 -0.2154643,1.445985 1.6900794,1.033262 2.5699004,1.026916 0.711444,0.0023 1.520168,0.132701 1.550828,-0.761932 0.596981,-2.677113 3.229052,-4.053337 3.771736,-6.033722 z m 2.536421,0.201702 c 1.244308,-0.09435 1.800499,-2.045896 0.448142,-2.449686 -1.30216,-0.619972 -2.332474,0.771137 -2.390258,1.944666 0.292022,1.28738 1.092909,1.081083 1.942116,0.50502 z M 18,12.5 c 0,-0.31964 -3.517236,-0.18299 -5.274534,-0.243962 -2.152952,-0.0167 -4.3100567,-0.02417 -6.4569067,0.161636 0.1963847,0.449182 1.6142102,0.169041 2.2500558,0.290015 C 11.846431,12.720762 17.40755,12.696157 18,12.5 Z m 0,-1.25 C 18.255271,10.472581 17.660449,10.436544 17.083756,10.5 H 6.04386 V 12 H 18 Z M 11.385965,9.264754 C 12.34281,8.3917115 11.683052,7.008749 11.028979,6.1741124 10.179899,5.5967652 9.4045031,4.5576085 10.156875,3.5606503 c 0.0153,-0.6013612 1.572178,-1.1027806 0.80755,-0.322508 -0.905784,0.9531263 -0.205626,2.1920574 0.627339,2.8853747 0.685253,0.8340293 1.23912,2.1314277 0.511648,3.1088546 -0.16009,0.1996879 -0.699642,0.5248039 -0.717447,0.032382 z m 1.526316,-1.25 c 0.901383,-0.8242988 0.359264,-2.1460957 -0.21086,-2.9934346 -0.604969,-0.7981619 -1.52721,-1.9429742 -0.618513,-2.8817376 0.09328,-0.63254 1.453898,-0.7804173 0.77343,-0.075518 -1.035928,0.7656101 -0.669349,1.9262533 0.232035,2.5744423 0.742821,0.969224 1.167576,2.4171108 0.399962,3.4842849 -0.17808,0.2407297 -0.475861,0.1328214 -0.576054,-0.108037 z"


            /></symbol>   <symbol  id="bear" viewBox="0 0 24 24">
            <path
                    d="m 12.118121,20.973565 c 0.168892,-0.237198 1.378269,-0.43127 2.687506,-0.43127 h 2.38043 v -6.984688 c 0,-6.018809 -0.0957,-7.016563 -0.692032,-7.21519 C 15.052039,5.86212 13.290016,6.149764 10.903893,7.254985 9.546583,7.883673 8.436057,8.278666 8.436057,8.132746 c 0,-0.145919 -0.401419,0.108687 -0.892043,0.565791 -0.490623,0.457105 -1.081248,0.8311 -1.3125,0.8311 -0.240912,0 -0.420457,1.621605 -0.420457,3.797468 0,2.278481 -0.175,3.797469 -0.4375,3.797469 -0.261533,0 -0.4375,-1.478355 -0.4375,-3.675571 0,-3.595993 -0.544867,-5.88407 -1.640625,-6.889529 C 2.616771,5.936739 2.584718,4.50729 3.236722,3.941352 3.505215,3.708302 3.956053,3.118745 4.238584,2.631225 4.659796,1.904406 5.103567,1.743095 6.70354,1.735207 7.776734,1.729907 8.855106,1.616231 9.099921,1.482572 c 0.655079,-0.357644 5.560277,0.0065 6.072127,0.450822 0.241452,0.209579 0.86771,0.381053 1.391684,0.381053 0.523975,0 1.156045,0.213607 1.4046,0.474683 0.714742,0.750745 1.114143,3.199414 0.569511,3.491581 -0.953614,0.511565 -0.495005,1.350191 0.738363,1.350191 0.668334,0 1.652709,0.266019 2.1875,0.591154 0.873029,0.530772 0.972346,0.915629 0.972346,3.767877 v 3.176724 l -1.82875,1.358705 c -1.005812,0.747288 -1.990187,1.358705 -2.1875,1.358705 -0.197312,0 -0.35875,0.394554 -0.35875,0.876786 0,1.611949 -0.985873,2.265066 -3.715693,2.46156 -1.823638,0.131267 -2.448208,0.06148 -2.227243,-0.248848 z m 8.306227,-5.118342 1.550594,-1.269351 -0.209679,-2.758097 C 21.649939,10.310821 21.446758,8.916839 21.31375,8.730037 20.884753,8.127535 18.061057,8.327182 18.061057,8.960016 c 0,0.34764 0.407994,0.569621 1.046942,0.569621 1.244343,0 1.578058,0.616108 1.578058,2.913424 0,1.426984 -0.21855,1.878525 -1.3125,2.711733 -1.273321,0.969825 -1.733326,1.96978 -0.906151,1.96978 0.223492,0 1.104116,-0.571208 1.956942,-1.269351 z m -1.079001,-1.549247 c 0.758673,-0.793471 0.426583,-4.206719 -0.40929,-4.206719 -0.49944,0 -0.687373,0.567125 -0.786501,2.373418 -0.12934,2.356804 0.205057,2.869477 1.195791,1.833301 z M 7,8 C 7.157435,7.477442 7.476028,7.297077 7.991024,7.438954 8.408473,7.553957 8.998799,7.387864 9.302859,7.069856 c 0.30406,-0.318007 1.020918,-0.578194 1.593018,-0.578194 0.632938,0 1.04018,-0.223013 1.04018,-0.56962 0,-0.674128 3.476515,-0.810486 4.814711,-0.188847 1.055296,0.490223 1.380061,0.01698 1.030234,-1.501264 C 17.545782,3.211081 17.335315,3.05051 16.361078,3.148625 15.632591,3.221995 14.949667,2.988055 14.480176,2.50432 13.834524,1.839081 13.624518,1.807605 12.787971,2.250688 12.102945,2.613517 11.699037,2.64036 11.359477,2.345628 10.667307,1.744829 9.703358,1.843195 9.084533,2.577772 8.575489,3.182033 8.498085,3.182033 7.801926,2.577772 7.394448,2.224084 6.79387,1.934703 6.467307,1.934703 c -0.779673,0 -1.96875,1.048493 -1.96875,1.735986 0,0.298372 -0.196875,0.542495 -0.4375,0.542495 -0.699038,0 -0.504913,1.900117 0.21875,2.141155 0.360937,0.120221 0.65625,0.599035 0.65625,1.06403 0,1.498392 1.647841,1.962765 2.063943,0.581634 z M 5.823265,20.36519 c -0.292837,-0.306269 -0.4646,-0.727898 -0.381695,-0.936954 0.08291,-0.209056 0.378308,0.04153 0.65645,0.556852 0.576543,1.068185 0.493284,1.183368 -0.274755,0.380102 z m 2.451042,-2.955806 c -0.436426,-1.413543 -0.312904,-5.981013 0.16175,-5.981013 0.259259,0 0.4375,1.392405 0.4375,3.417722 0,3.495718 -0.134171,4.069636 -0.59925,2.563291 z m 2.78675,-2.563291 c 0,-2.025317 0.178241,-3.417722 0.4375,-3.417722 0.259259,0 0.4375,1.392405 0.4375,3.417722 0,2.025316 -0.178241,3.417721 -0.4375,3.417721 -0.259259,0 -0.4375,-1.392405 -0.4375,-3.417721 z m 3.0625,0 c 0,-2.025317 0.178241,-3.417722 0.4375,-3.417722 0.259259,0 0.4375,1.392405 0.4375,3.417722 0,2.025316 -0.178241,3.417721 -0.4375,3.417721 -0.259259,0 -0.4375,-1.392405 -0.4375,-3.417721 z"

            /></symbol>
        <symbol  id="salad" viewBox="0 0 24 24">
            <path
                    d="m 8.717186,19.875413 c -0.0579,-0.07852 -0.07111,-0.214641 -0.07111,-0.732504 V 18.506842 L 8.291584,18.389598 C 7.34577,18.076779 6.115467,17.433024 5.423419,16.888832 4.109952,15.855987 3.299007,14.610881 3.044166,13.235784 2.945496,12.70338 2.950106,11.877887 3.053066,11.642291 3.115666,11.499042 3.384136,11.260395 3.56497,11.187257 3.57087,11.184857 3.48174,11.057566 3.366951,10.904334 2.93049,10.321687 2.722279,9.755821 2.56795,8.732849 2.404432,7.648964 2.181085,6.944321 1.975441,6.863525 1.664377,6.741311 1.731726,6.260913 2.059921,6.260913 c 0.250255,0 1.136077,0.311701 1.635799,0.575602 C 3.971543,6.982176 4.210669,7.0843 4.227111,7.063457 4.243551,7.042617 4.298601,6.824501 4.349432,6.57876 4.465202,6.019126 4.47504,5.547753 4.376282,5.292336 4.294862,5.081771 4.326882,4.936418 4.476285,4.838286 4.58271,4.768386 4.709832,4.828286 5.04169,5.104909 5.652482,5.613958 6.149689,6.334732 6.393886,7.065112 6.561505,7.566451 6.629121,7.538498 6.59707,6.981112 6.51536,5.560054 7.296618,4.474692 8.538661,4.283775 8.731862,4.254075 9.232104,4.317995 9.390567,4.39262 9.429277,4.41085 9.485737,4.35513 9.542242,4.242919 9.641222,4.046363 9.790728,3.940598 9.969588,3.940598 c 0.07779,0 0.526183,0.323827 1.353288,0.977338 0.680323,0.537536 1.255479,0.963284 1.278125,0.946107 0.02265,-0.01718 0.04118,-0.0735 0.04118,-0.125165 0,-0.19066 0.276329,-0.764027 0.526217,-1.091869 0.632691,-0.830065 1.580457,-1.034472 2.424037,-0.522797 0.545406,0.330817 0.921122,0.902994 1.052854,1.603391 l 0.04948,0.263092 0.175853,-0.17247 c 0.820871,-0.805078 1.806427,-0.814385 2.539936,-0.02398 l 0.147778,0.15924 0.25461,-0.108139 c 0.780553,-0.331519 1.461146,-0.238468 2.334516,0.319177 0.749303,0.478427 1.193934,1.329333 1.193934,2.28487 0,1.076815 -0.793767,2.479009 -1.701772,3.00619 -0.186619,0.108351 -0.232489,0.15802 -0.209965,0.227356 0.06608,0.203431 0.07108,0.89766 0.0096,1.327977 -0.270946,1.895057 -1.604758,3.591555 -3.69467,4.699315 -0.447118,0.236995 -1.308421,0.599729 -1.74006,0.732818 l -0.182617,0.05631 v 0.63078 c 0,0.560468 -0.0096,0.642536 -0.08594,0.736249 -0.0845,0.103707 -0.143229,0.105468 -3.516777,0.105468 -3.269173,0 -3.434192,-0.0045 -3.501953,-0.09644 z m 6.589043,-0.88574 v -0.349366 l -0.139648,0.03581 c -1.02623,0.263172 -2.632115,0.392298 -3.784665,0.304317 -0.708304,-0.05407 -1.704458,-0.198076 -2.102054,-0.303882 l -0.118164,-0.03144 v 0.346963 0.346964 h 3.072265 3.072266 z m -1.289062,-0.730491 c 2.757207,-0.42811 5.038215,-1.693586 6.170236,-3.423173 0.250963,-0.38344 0.568634,-1.072693 0.640657,-1.390038 l 0.02693,-0.118652 h -6.455567 c -5.946674,0 -6.461761,-0.0069 -6.534146,-0.08727 -0.100507,-0.11163 -0.100576,-0.293821 -1.71e-4,-0.405358 0.07207,-0.08005 0.605369,-0.08819 6.58496,-0.100458 l 6.506555,-0.01335 v -0.393951 c 0,-0.367271 -0.0073,-0.398467 -0.107422,-0.460648 -0.150035,-0.09316 -17.083569,-0.100081 -17.249932,-0.0071 -0.103731,0.058 -0.109443,0.08278 -0.109443,0.474609 v 0.41341 h 1.425327 c 1.265983,0 1.434112,0.0098 1.503907,0.08727 0.09772,0.108535 0.100759,0.269849 0.0075,0.396366 -0.06606,0.08958 -0.168398,0.09644 -1.439453,0.09644 -1.287472,0 -1.368341,0.0056 -1.368341,0.09463 0,0.154604 0.349843,0.962434 0.565992,1.306944 0.295012,0.470207 0.844912,1.083083 1.32024,1.47144 1.47734,1.207029 3.382976,1.922996 5.740721,2.15685 0.458521,0.04548 2.256983,-0.01812 2.771485,-0.09801 z M 9.63128,17.254448 C 8.946811,17.123489 8.250051,16.86531 7.644072,16.518104 7.358918,16.354721 7.271651,16.199267 7.348652,15.99186 c 0.07757,-0.208933 0.210629,-0.211088 0.571497,-0.0093 0.693427,0.387824 1.490382,0.636422 2.28153,0.711689 0.25967,0.0247 0.48884,0.07323 0.526367,0.11145 0.08602,0.08762 0.08542,0.340386 -0.0011,0.446524 -0.08436,0.103526 -0.561072,0.104477 -1.095708,0.0022 z M 6.356421,15.568923 c -0.283516,-0.265681 -0.321122,-0.523598 -0.0948,-0.650155 0.13185,-0.07373 0.208847,-0.04104 0.440113,0.18684 0.20595,0.202935 0.235946,0.371106 0.09668,0.542024 -0.121482,0.149091 -0.217068,0.13207 -0.441995,-0.07871 z m -1.577536,-4.47726 c 0,-0.13312 -0.179582,-0.791473 -0.289207,-1.060242 C 4.329102,9.637735 4.097067,9.285128 3.844315,9.050706 3.679184,8.897551 3.618729,8.806608 3.618729,8.711353 c 0,-0.147838 0.137102,-0.341065 0.241998,-0.341065 0.124014,0 0.348945,0.207526 0.632902,0.583931 0.327884,0.434633 0.581602,1.032006 0.729651,1.717946 0.08424,0.39031 0.11589,0.469435 0.193399,0.483529 0.08958,0.01629 0.09267,-4.75e-4 0.09267,-0.503081 0,-0.895057 -0.1908,-1.498119 -0.672082,-2.124254 C 4.507772,8.099694 4.115346,7.764155 3.610564,7.479481 3.232488,7.266264 2.808129,7.079953 2.779787,7.114736 c -0.0093,0.01145 0.03053,0.204344 0.08857,0.428654 0.05804,0.224309 0.146081,0.685818 0.195645,1.025575 0.10647,0.729837 0.173474,0.992828 0.352445,1.383354 0.182061,0.397267 0.616243,0.920557 0.896794,1.080845 0.256534,0.146566 0.465644,0.172837 0.465644,0.0585 z M 9.108636,9.596362 9.120026,8.053882 H 7.858169 6.59631 L 6.57051,8.462573 C 6.53857,8.968474 6.411464,9.487869 6.192566,10.006942 6.043094,10.361384 6.02498,10.445531 6.02498,10.78544 v 0.381102 l 1.536133,-0.01385 1.536133,-0.01385 z m 1.857749,1.519103 c 0,-0.02736 -0.03834,-0.0827 -0.08519,-0.122976 C 10.61994,10.767912 9.871426,9.556365 9.723923,9.119328 9.692563,9.026398 9.649903,8.950366 9.629143,8.950366 c -0.04349,0 -0.05238,2.126587 -0.0091,2.179687 0.04545,0.05577 1.346354,0.04168 1.346354,-0.01459 z M 12,11 c 0.03067,-0.09086 0.104861,-0.236825 0.164874,-0.324356 l 0.109115,-0.159148 -0.105296,-0.08434 c -0.996988,-0.798513 -1.67082,-1.828422 -1.89262,-2.892748 -0.187511,-0.89979 -0.03082,-1.594906 0.359511,-1.594906 0.115812,0 0.391638,0.194368 1.342455,0.946 l 1.196695,0.945999 0.116549,-0.247269 c 0.0641,-0.135998 0.103796,-0.263842 0.08821,-0.284098 -0.05216,-0.06778 -3.370681,-2.678992 -3.404665,-2.678992 -0.05494,0 -0.214677,0.576023 -0.285165,1.028321 -0.226632,1.454207 0.332048,3.361135 1.368654,4.671587 0.34628,0.437758 0.743558,0.839155 0.830544,0.839155 0.03046,0 0.08047,-0.07434 0.111141,-0.16521 z m 3.306229,0.148151 c 0,-0.0094 -0.135573,-0.130745 -0.301273,-0.269694 l -0.301273,-0.252634 -0.514541,0.190144 c -0.926511,0.342384 -0.927605,0.340043 0.161032,0.344941 0.52583,0.0024 0.956055,-0.0034 0.956055,-0.01276 z m 5.667876,-0.06414 C 21.379633,10.966696 21.731159,10.7133 22.072769,10.292044 22.601866,9.639587 22.853887,8.971084 22.815968,8.320658 22.777908,7.667737 22.5032,7.14467 22.009212,6.784499 21.221137,6.209906 20.452912,6.129342 19.776024,6.550303 c -0.117168,0.07287 -0.240335,0.132486 -0.273704,0.132486 -0.03337,0 -0.157652,-0.113515 -0.276181,-0.252255 -0.327118,-0.382898 -0.610407,-0.55132 -0.973664,-0.578868 -0.395272,-0.02998 -0.689821,0.103048 -1.099708,0.496653 l -0.303615,0.291553 -0.441695,-0.03695 c -1.306928,-0.109326 -2.349679,0.434417 -2.714266,1.415354 -0.05579,0.150099 -0.160536,0.556871 -0.232774,0.903936 -0.14388,0.69126 -0.310196,1.173676 -0.539937,1.566137 -0.08209,0.140241 -0.134794,0.254875 -0.117109,0.254741 0.01769,-1.58e-4 0.186832,-0.07408 0.375882,-0.164325 0.189049,-0.09025 0.575062,-0.251228 0.857805,-0.357738 l 0.514079,-0.193655 0.09478,-0.324931 c 0.263065,-0.901875 0.677547,-1.549332 1.190066,-1.858988 0.310655,-0.187693 0.463454,-0.186289 0.546881,0.005 0.0898,0.205935 0.01474,0.351575 -0.271728,0.52725 -0.341931,0.209682 -0.63768,0.592511 -0.825103,1.068041 -0.08095,0.20539 -0.143056,0.378504 -0.13801,0.384696 0.005,0.0062 0.258476,-0.05723 0.563178,-0.140948 0.304702,-0.08371 0.896646,-0.229017 1.31543,-0.322899 l 0.761425,-0.170694 0.128501,-0.319533 c 0.333789,-0.830008 0.946248,-1.433032 1.610866,-1.586052 0.123066,-0.02833 0.171437,-0.01343 0.243532,0.07505 0.180714,0.221784 0.08192,0.483887 -0.210817,0.559281 -0.216824,0.05584 -0.536217,0.264875 -0.725649,0.474911 -0.187984,0.208431 -0.416351,0.592641 -0.37929,0.638126 0.01376,0.01689 0.388848,-0.0309 0.833532,-0.106181 1.024644,-0.17347 1.528243,-0.241856 1.785065,-0.242404 0.171825,-3.69e-4 0.214453,0.02081 0.276741,0.13748 0.06604,0.123698 0.06708,0.152234 0.01012,0.276856 -0.07674,0.167895 -0.06338,0.164521 -1.49217,0.376901 -0.598473,0.08896 -1.144408,0.175556 -1.213188,0.192439 l -0.125056,0.03069 0.160453,0.157101 c 0.260414,0.254973 0.567766,0.420216 0.866045,0.465615 0.29097,0.04429 0.390112,0.128854 0.390112,0.332763 0,0.195494 -0.124489,0.297296 -0.363551,0.297296 -0.436599,0 -0.982437,-0.321347 -1.474869,-0.86829 -0.22524,-0.250173 -0.228919,-0.251939 -0.451172,-0.216577 -0.339002,0.05394 -2.140248,0.502336 -2.209797,0.550103 -0.07207,0.0495 0.287434,0.297868 0.823378,0.568858 l 0.345933,0.174913 2.041015,2.11e-4 c 1.670601,1.58e-4 2.090979,-0.01427 2.316314,-0.07946 z M 12.643091,9.628038 C 12.379745,9.360768 12.47817,8.936261 12.823586,8.84956 12.93574,8.82141 12.966819,8.78307 12.989937,8.644344 c 0.02417,-0.145034 0.01151,-0.185169 -0.08447,-0.267846 -0.2321,-0.199916 -2.091249,-1.655242 -2.14971,-1.682774 -0.09068,-0.0427 -0.03555,0.625704 0.0818,0.991835 0.227681,0.710345 0.822345,1.564601 1.447359,2.079184 l 0.288343,0.237397 0.07777,-0.143562 c 0.07562,-0.139594 0.0754,-0.145967 -0.0079,-0.23054 z M 11.614035,8.547746 c -0.120245,-0.187609 -0.113415,-0.39466 0.01802,-0.546195 0.149821,-0.172739 0.350538,-0.164324 0.479806,0.02012 0.124233,0.177254 0.127911,0.344554 0.01157,0.52608 -0.06869,0.107175 -0.126932,0.138948 -0.254694,0.138948 -0.127762,0 -0.186001,-0.03177 -0.254694,-0.138948 z M 6.010955,8.844929 C 6.133237,8.207547 6.053545,7.550652 5.781512,6.953659 5.637009,6.636537 5.06945,5.839038 4.988266,5.839038 c -0.02063,0 -0.03751,0.08001 -0.03751,0.177809 0,0.169666 -0.163344,1.027153 -0.246282,1.292873 -0.0354,0.113432 0.004,0.178976 0.396195,0.65918 C 5.440122,8.384516 5.57338,8.591697 5.704848,8.908239 5.893657,9.362842 5.912332,9.35898 6.010951,8.844929 Z M 7.486336,7.012378 C 7.486835,6.527957 7.59609,6.189383 7.851923,5.87946 8.129682,5.542976 8.349237,5.443135 8.804889,5.446109 l 0.395143,0.0026 0.02848,-0.206859 C 9.262962,4.991609 9.234412,4.963285 8.899568,4.915591 8.18032,4.813142 7.426975,5.351889 7.184006,6.142457 c -0.07533,0.245105 -0.0898,0.384085 -0.07567,0.726893 0.0096,0.233115 0.03196,0.452622 0.04967,0.487793 0.01771,0.03517 0.09874,0.06395 0.180057,0.06395 h 0.147854 l 4.3e-4,-0.408692 z M 9.187399,7.249682 C 9.171999,7.155422 9.147279,6.869545 9.132479,6.614406 9.100929,6.070522 9.065759,6.024813 8.706947,6.061331 8.192782,6.113661 7.883422,6.656951 8.015262,7.27605 l 0.03088,0.145019 h 0.584631 0.584631 z m 4.524692,-1.347579 c 0.100952,-0.242856 0.345891,-0.519176 0.559763,-0.631477 0.195441,-0.102625 0.622962,-0.09858 0.825086,0.0078 0.201937,0.106291 0.396895,0.309489 0.507316,0.528759 0.08498,0.168743 0.09559,0.173786 0.313906,0.149202 0.124277,-0.01399 0.231471,-0.03114 0.238211,-0.0381 0.0067,-0.007 -0.02857,-0.14657 -0.07847,-0.31024 -0.11617,-0.381058 -0.42957,-0.78127 -0.760078,-0.970621 -0.215113,-0.123241 -0.301951,-0.141915 -0.656129,-0.141101 -0.355459,8.18e-4 -0.439155,0.01942 -0.647748,0.143937 -0.447989,0.267428 -0.837059,0.887367 -0.921744,1.468696 -0.02723,0.186928 -0.02267,0.194772 0.222995,0.383573 l 0.250794,0.192742 0.03046,-0.289147 c 0.01675,-0.159031 0.06879,-0.381347 0.115633,-0.494035 z m 0.693405,0.467432 c 0.146927,-0.08528 0.361359,-0.184686 0.476515,-0.220907 0.233657,-0.07349 0.253822,-0.113823 0.112695,-0.225372 -0.26928,-0.21284 -0.607309,-0.116291 -0.794066,0.226803 -0.08501,0.156178 -0.131599,0.374526 -0.07991,0.374526 0.0097,0 0.13784,-0.06977 0.284766,-0.15505 z"


            /></symbol>

    </defs>
</svg>